<?xml version="1.0" encoding="UTF-8" standalone="no"?>
<!DOCTYPE svg PUBLIC "-//W3C//DTD SVG 1.1//EN"
 "http://www.w3.org/Graphics/SVG/1.1/DTD/svg11.dtd">
<!-- Generated by graphviz version 14.1.1 (20251213.1925)
 -->
<!-- Title: G Pages: 1 -->
<svg width="1624pt" height="515pt"
 viewBox="0.00 0.00 1624.00 515.00" xmlns="http://www.w3.org/2000/svg" xmlns:xlink="http://www.w3.org/1999/xlink">
<g id="graph0" class="graph" transform="scale(1 1) rotate(0) translate(4 511)">
<title>G</title><style>.edge>path:hover{stroke-width:8}</style>
<polygon fill="white" stroke="none" points="-4,4 -4,-511 1620.36,-511 1620.36,4 -4,4"/>
<!-- apex -->
<g id="node1" class="node">
<title>apex</title><style>.edge>path:hover{stroke-width:8}</style>
<polygon fill="#b83d3d" stroke="black" points="1155.36,-36 1152.36,-40 1131.36,-40 1128.36,-36 1101.36,-36 1101.36,0 1155.36,0 1155.36,-36"/>
<text xml:space="preserve" text-anchor="middle" x="1128.36" y="-14.12" font-family="Helvetica,sans-Serif" font-size="10.00" fill="#ffffff">apex</text>
</g>
<!-- asyncpg -->
<g id="node2" class="node">
<title>asyncpg</title><style>.edge>path:hover{stroke-width:8}</style>
<polygon fill="#e64719" stroke="black" points="719.36,-254 716.36,-258 695.36,-258 692.36,-254 665.36,-254 665.36,-218 719.36,-218 719.36,-254"/>
<text xml:space="preserve" text-anchor="middle" x="692.36" y="-232.12" font-family="Helvetica,sans-Serif" font-size="10.00" fill="#ffffff">asyncpg</text>
</g>
<!-- asyncpg&#45;&gt;apex -->
<g id="edge1" class="edge">
<title>asyncpg&#45;&gt;apex</title><style>.edge>path:hover{stroke-width:8}</style>
<path fill="none" stroke="black" d="M683.1,-217.6C677.85,-207.38 671.35,-194.13 666.36,-182"/>
</g>
<!-- src -->
<g id="node22" class="node">
<title>src</title><style>.edge>path:hover{stroke-width:8}</style>
<polygon fill="#ac10f9" stroke="black" points="1100.36,-145 1097.36,-149 1076.36,-149 1073.36,-145 1046.36,-145 1046.36,-109 1100.36,-109 1100.36,-145"/>
<text xml:space="preserve" text-anchor="middle" x="1073.36" y="-123.12" font-family="Helvetica,sans-Serif" font-size="10.00" fill="#ffffff">src</text>
</g>
<!-- asyncpg&#45;&gt;src -->
<g id="edge2" class="edge">
<title>asyncpg&#45;&gt;src</title><style>.edge>path:hover{stroke-width:8}</style>
<path fill="none" stroke="black" d="M708.27,-217.65C718.78,-206.72 733.18,-192.7 747.36,-182"/>
</g>
<!-- backtrader -->
<g id="node3" class="node">
<title>backtrader</title><style>.edge>path:hover{stroke-width:8}</style>
<polygon fill="#d97626" stroke="black" points="319.24,-254 316.24,-258 295.24,-258 292.24,-254 257.49,-254 257.49,-218 319.24,-218 319.24,-254"/>
<text xml:space="preserve" text-anchor="middle" x="288.36" y="-232.12" font-family="Helvetica,sans-Serif" font-size="10.00" fill="#000000">backtrader</text>
</g>
<!-- backtrader&#45;&gt;apex -->
<g id="edge3" class="edge">
<title>backtrader&#45;&gt;apex</title><style>.edge>path:hover{stroke-width:8}</style>
<path fill="none" stroke="black" d="M257.24,-220.03C234.46,-207.7 210.55,-190.85 229.36,-182"/>
</g>
<!-- backtrader&#45;&gt;src -->
<g id="edge4" class="edge">
<title>backtrader&#45;&gt;src</title><style>.edge>path:hover{stroke-width:8}</style>
<path fill="none" stroke="black" d="M277.89,-217.72C270.79,-203.94 264.88,-186.27 278.36,-182"/>
</g>
<!-- config -->
<g id="node4" class="node">
<title>config</title><style>.edge>path:hover{stroke-width:8}</style>
<polygon fill="#efa106" stroke="black" points="129.36,-254 126.36,-258 105.36,-258 102.36,-254 75.36,-254 75.36,-218 129.36,-218 129.36,-254"/>
<text xml:space="preserve" text-anchor="middle" x="102.36" y="-232.12" font-family="Helvetica,sans-Serif" font-size="10.00" fill="#000000">config</text>
</g>
<!-- config&#45;&gt;apex -->
<g id="edge5" class="edge">
<title>config&#45;&gt;apex</title><style>.edge>path:hover{stroke-width:8}</style>
<path fill="none" stroke="black" d="M129.8,-221.82C132.68,-220.51 135.57,-219.21 138.36,-218 178.27,-200.7 190.01,-200.52 229.36,-182"/>
</g>
<!-- config&#45;&gt;src -->
<g id="edge6" class="edge">
<title>config&#45;&gt;src</title><style>.edge>path:hover{stroke-width:8}</style>
<path fill="none" stroke="black" d="M129.65,-221.46C132.56,-220.21 135.5,-219.03 138.36,-218 198.79,-196.19 217.11,-201.38 278.36,-182"/>
<path fill="none" stroke="black" d="M278.36,-181C350.91,-158.04 886.09,-135.39 1035.01,-129.48"/>
<polygon fill="#efa106" stroke="black" points="1034.87,-132.99 1044.73,-129.1 1034.6,-126 1034.87,-132.99"/>
</g>
<!-- duckdb -->
<g id="node5" class="node">
<title>duckdb</title><style>.edge>path:hover{stroke-width:8}</style>
<polygon fill="#d9c526" stroke="black" points="537.36,-254 534.36,-258 513.36,-258 510.36,-254 483.36,-254 483.36,-218 537.36,-218 537.36,-254"/>
<text xml:space="preserve" text-anchor="middle" x="510.36" y="-232.12" font-family="Helvetica,sans-Serif" font-size="10.00" fill="#000000">duckdb</text>
</g>
<!-- duckdb&#45;&gt;apex -->
<g id="edge7" class="edge">
<title>duckdb&#45;&gt;apex</title><style>.edge>path:hover{stroke-width:8}</style>
<path fill="none" stroke="black" d="M504.13,-217.64C500.95,-205.34 499.7,-189.7 510.36,-182"/>
</g>
<!-- duckdb&#45;&gt;src -->
<g id="edge8" class="edge">
<title>duckdb&#45;&gt;src</title><style>.edge>path:hover{stroke-width:8}</style>
<path fill="none" stroke="black" d="M537.42,-222.84C542.02,-221.05 546.78,-219.35 551.36,-218 636.3,-192.9 676.66,-235.35 747.36,-182"/>
</g>
<!-- futu -->
<g id="node6" class="node">
<title>futu</title><style>.edge>path:hover{stroke-width:8}</style>
<polygon fill="#bece3b" stroke="black" points="391.36,-254 388.36,-258 367.36,-258 364.36,-254 337.36,-254 337.36,-218 391.36,-218 391.36,-254"/>
<text xml:space="preserve" text-anchor="middle" x="364.36" y="-232.12" font-family="Helvetica,sans-Serif" font-size="10.00" fill="#000000">futu</text>
</g>
<!-- futu&#45;&gt;apex -->
<g id="edge9" class="edge">
<title>futu&#45;&gt;apex</title><style>.edge>path:hover{stroke-width:8}</style>
<path fill="none" stroke="black" d="M391.73,-221.65C394.62,-220.36 397.54,-219.12 400.36,-218 448.16,-198.98 468.67,-212.12 510.36,-182"/>
<path fill="none" stroke="black" d="M510.36,-181C544.34,-156.46 547.9,-138.94 588.36,-128"/>
</g>
<!-- futu&#45;&gt;src -->
<g id="edge10" class="edge">
<title>futu&#45;&gt;src</title><style>.edge>path:hover{stroke-width:8}</style>
<path fill="none" stroke="black" d="M391.54,-221.11C394.47,-219.93 397.45,-218.86 400.36,-218 634.45,-148.89 930.13,-132.7 1034.64,-129.03"/>
<polygon fill="#bece3b" stroke="black" points="1034.74,-132.53 1044.62,-128.7 1034.51,-125.54 1034.74,-132.53"/>
</g>
<!-- hypothesis -->
<g id="node7" class="node">
<title>hypothesis</title><style>.edge>path:hover{stroke-width:8}</style>
<polygon fill="#99cc33" stroke="black" points="1219.99,-145 1216.99,-149 1195.99,-149 1192.99,-145 1156.74,-145 1156.74,-109 1219.99,-109 1219.99,-145"/>
<text xml:space="preserve" text-anchor="middle" x="1188.36" y="-123.12" font-family="Helvetica,sans-Serif" font-size="10.00" fill="#000000">hypothesis</text>
</g>
<!-- hypothesis&#45;&gt;apex -->
<g id="edge11" class="edge">
<title>hypothesis&#45;&gt;apex</title><style>.edge>path:hover{stroke-width:8}</style>
<path fill="none" stroke="black" d="M1156.36,-113.09C1139.9,-104.16 1124.08,-90.7 1128.36,-73"/>
</g>
<!-- ib_async -->
<g id="node8" class="node">
<title>ib_async</title><style>.edge>path:hover{stroke-width:8}</style>
<polygon fill="#73f30c" stroke="black" points="464.86,-254 461.86,-258 440.86,-258 437.86,-254 409.86,-254 409.86,-218 464.86,-218 464.86,-254"/>
<text xml:space="preserve" text-anchor="middle" x="437.36" y="-232.12" font-family="Helvetica,sans-Serif" font-size="10.00" fill="#000000">ib_async</text>
</g>
<!-- ib_async&#45;&gt;apex -->
<g id="edge12" class="edge">
<title>ib_async&#45;&gt;apex</title><style>.edge>path:hover{stroke-width:8}</style>
<path fill="none" stroke="black" d="M461.35,-217.55C475.58,-207.2 493.99,-193.83 510.36,-182"/>
</g>
<!-- ib_async&#45;&gt;src -->
<g id="edge13" class="edge">
<title>ib_async&#45;&gt;src</title><style>.edge>path:hover{stroke-width:8}</style>
<path fill="none" stroke="black" d="M747.36,-181C792.06,-147.27 958.3,-134.16 1034.61,-129.84"/>
<polygon fill="#73f30c" stroke="black" points="1034.75,-133.34 1044.55,-129.3 1034.37,-126.35 1034.75,-133.34"/>
<path fill="none" stroke="black" d="M465.31,-221.11C468.32,-219.93 471.38,-218.86 474.36,-218 591.95,-184.07 649.67,-255.71 747.36,-182"/>
</g>
<!-- jsonschema -->
<g id="node9" class="node">
<title>jsonschema</title><style>.edge>path:hover{stroke-width:8}</style>
<polygon fill="#5cc040" stroke="black" points="1306.61,-145 1303.61,-149 1282.61,-149 1279.61,-145 1238.11,-145 1238.11,-109 1306.61,-109 1306.61,-145"/>
<text xml:space="preserve" text-anchor="middle" x="1272.36" y="-123.12" font-family="Helvetica,sans-Serif" font-size="10.00" fill="#000000">jsonschema</text>
</g>
<!-- jsonschema&#45;&gt;apex -->
<g id="edge14" class="edge">
<title>jsonschema&#45;&gt;apex</title><style>.edge>path:hover{stroke-width:8}</style>
<path fill="none" stroke="black" d="M1237.67,-112.17C1234.86,-111.08 1232.07,-110.02 1229.36,-109 1184.76,-92.24 1117.16,-119.32 1128.36,-73"/>
</g>
<!-- numpy -->
<g id="node10" class="node">
<title>numpy</title><style>.edge>path:hover{stroke-width:8}</style>
<polygon fill="#06f906" stroke="black" points="298.36,-507 295.36,-511 274.36,-511 271.36,-507 244.36,-507 244.36,-471 298.36,-471 298.36,-507"/>
<text xml:space="preserve" text-anchor="middle" x="271.36" y="-485.12" font-family="Helvetica,sans-Serif" font-size="10.00" fill="#000000">numpy</text>
</g>
<!-- numpy&#45;&gt;apex -->
<g id="edge15" class="edge">
<title>numpy&#45;&gt;apex</title><style>.edge>path:hover{stroke-width:8}</style>
<path fill="none" stroke="black" d="M588.36,-126C646.56,-110.27 1114.19,-131.6 1128.36,-73"/>
<path fill="none" stroke="black" d="M47.36,-235C55.24,-226.86 56.28,-223.17 66.36,-218 132.39,-184.16 162.38,-213.9 229.36,-182"/>
<path fill="none" stroke="black" d="M229.36,-181C374.98,-111.66 432.67,-170.08 588.36,-128"/>
<path fill="none" stroke="black" d="M271.98,-470.79C272.2,-460.41 272.21,-446.93 271.36,-435"/>
<path fill="none" stroke="black" d="M271.36,-434C267.51,-379.55 64.02,-439.33 28.36,-398 -18.7,-343.45 -2.74,-288.78 47.36,-237"/>
<path fill="none" stroke="black" d="M1128.36,-72C1130.23,-64.28 1130.84,-55.74 1130.83,-47.81"/>
<polygon fill="#06f906" stroke="black" points="1134.33,-47.81 1130.46,-37.94 1127.33,-48.06 1134.33,-47.81"/>
</g>
<!-- optuna -->
<g id="node11" class="node">
<title>optuna</title><style>.edge>path:hover{stroke-width:8}</style>
<polygon fill="blue" stroke="black" points="647.36,-254 644.36,-258 623.36,-258 620.36,-254 593.36,-254 593.36,-218 647.36,-218 647.36,-254"/>
<text xml:space="preserve" text-anchor="middle" x="620.36" y="-232.12" font-family="Helvetica,sans-Serif" font-size="10.00" fill="white">optuna</text>
</g>
<!-- numpy&#45;&gt;optuna -->
<g id="edge16" class="edge">
<title>numpy&#45;&gt;optuna</title><style>.edge>path:hover{stroke-width:8}</style>
<path fill="none" stroke="black" d="M747.36,-307C749.03,-302.1 696.09,-274.58 658.06,-255.55"/>
<polygon fill="#06f906" stroke="black" points="659.65,-252.43 649.13,-251.1 656.52,-258.69 659.65,-252.43"/>
<path fill="none" stroke="black" d="M271.36,-434C264.86,-407.44 738.59,-334.89 747.36,-309"/>
</g>
<!-- scipy -->
<g id="node20" class="node">
<title>scipy</title><style>.edge>path:hover{stroke-width:8}</style>
<polygon fill="#3a06ef" stroke="black" points="353.36,-398 350.36,-402 329.36,-402 326.36,-398 299.36,-398 299.36,-362 353.36,-362 353.36,-398"/>
<text xml:space="preserve" text-anchor="middle" x="326.36" y="-376.12" font-family="Helvetica,sans-Serif" font-size="10.00" fill="#ffffff">scipy</text>
</g>
<!-- numpy&#45;&gt;scipy -->
<g id="edge17" class="edge">
<title>numpy&#45;&gt;scipy</title><style>.edge>path:hover{stroke-width:8}</style>
<path fill="none" stroke="black" d="M271.36,-434C268.38,-419.94 277.78,-408.29 289.61,-399.52"/>
<polygon fill="#06f906" stroke="black" points="291.26,-402.63 297.7,-394.22 287.42,-396.77 291.26,-402.63"/>
</g>
<!-- sklearn -->
<g id="node21" class="node">
<title>sklearn</title><style>.edge>path:hover{stroke-width:8}</style>
<polygon fill="#6e0ce9" stroke="black" points="201.36,-254 198.36,-258 177.36,-258 174.36,-254 147.36,-254 147.36,-218 201.36,-218 201.36,-254"/>
<text xml:space="preserve" text-anchor="middle" x="174.36" y="-232.12" font-family="Helvetica,sans-Serif" font-size="10.00" fill="#ffffff">sklearn</text>
</g>
<!-- numpy&#45;&gt;sklearn -->
<g id="edge18" class="edge">
<title>numpy&#45;&gt;sklearn</title><style>.edge>path:hover{stroke-width:8}</style>
<path fill="none" stroke="black" d="M271.36,-434C257.46,-368.56 217.03,-300.26 192.98,-263.77"/>
<polygon fill="#06f906" stroke="black" points="195.99,-261.97 187.51,-255.61 190.17,-265.87 195.99,-261.97"/>
</g>
<!-- numpy&#45;&gt;src -->
<g id="edge19" class="edge">
<title>numpy&#45;&gt;src</title><style>.edge>path:hover{stroke-width:8}</style>
<path fill="none" stroke="black" d="M747.36,-307C756.55,-277.27 733.94,-265.06 747.36,-237"/>
</g>
<!-- optuna&#45;&gt;apex -->
<g id="edge20" class="edge">
<title>optuna&#45;&gt;apex</title><style>.edge>path:hover{stroke-width:8}</style>
<path fill="none" stroke="black" d="M647.81,-219.32C660.79,-209.68 672.29,-196.43 666.36,-182"/>
<path fill="none" stroke="black" d="M666.36,-181C650.44,-142.23 547.9,-138.94 588.36,-128"/>
</g>
<!-- optuna&#45;&gt;src -->
<g id="edge21" class="edge">
<title>optuna&#45;&gt;src</title><style>.edge>path:hover{stroke-width:8}</style>
<path fill="none" stroke="black" d="M647.8,-221.82C650.68,-220.51 653.57,-219.21 656.36,-218 696.27,-200.7 712.65,-208.2 747.36,-182"/>
</g>
<!-- pandas -->
<g id="node12" class="node">
<title>pandas</title><style>.edge>path:hover{stroke-width:8}</style>
<polygon fill="#06f972" stroke="black" points="829.36,-326 826.36,-330 805.36,-330 802.36,-326 775.36,-326 775.36,-290 829.36,-290 829.36,-326"/>
<text xml:space="preserve" text-anchor="middle" x="802.36" y="-304.12" font-family="Helvetica,sans-Serif" font-size="10.00" fill="#000000">pandas</text>
</g>
<!-- pandas&#45;&gt;apex -->
<g id="edge22" class="edge">
<title>pandas&#45;&gt;apex</title><style>.edge>path:hover{stroke-width:8}</style>
<path fill="none" stroke="black" d="M829.85,-306.19C918.28,-303.24 1194.35,-291.19 1274.36,-254 1295.46,-244.19 1292.41,-229.96 1312.36,-218 1355.76,-191.98 1443.25,-227.13 1420.36,-182"/>
</g>
<!-- pandas&#45;&gt;src -->
<g id="edge23" class="edge">
<title>pandas&#45;&gt;src</title><style>.edge>path:hover{stroke-width:8}</style>
<path fill="none" stroke="black" d="M775.23,-290.61C756.89,-277.26 737.63,-257.36 747.36,-237"/>
</g>
<!-- talib -->
<g id="node23" class="node">
<title>talib</title><style>.edge>path:hover{stroke-width:8}</style>
<polygon fill="#bb33cc" stroke="black" points="901.36,-254 898.36,-258 877.36,-258 874.36,-254 847.36,-254 847.36,-218 901.36,-218 901.36,-254"/>
<text xml:space="preserve" text-anchor="middle" x="874.36" y="-232.12" font-family="Helvetica,sans-Serif" font-size="10.00" fill="#ffffff">talib</text>
</g>
<!-- pandas&#45;&gt;talib -->
<g id="edge24" class="edge">
<title>pandas&#45;&gt;talib</title><style>.edge>path:hover{stroke-width:8}</style>
<path fill="none" stroke="black" d="M820.16,-289.7C828.64,-281.45 838.95,-271.43 848.3,-262.35"/>
<polygon fill="#06f972" stroke="black" points="850.71,-264.88 855.44,-255.4 845.83,-259.86 850.71,-264.88"/>
</g>
<!-- pandas_market_calendars -->
<g id="node13" class="node">
<title>pandas_market_calendars</title><style>.edge>path:hover{stroke-width:8}</style>
<polygon fill="#47c299" stroke="black" points="1265.36,-254 1262.36,-258 1241.36,-258 1238.36,-254 1135.36,-254 1135.36,-218 1265.36,-218 1265.36,-254"/>
<text xml:space="preserve" text-anchor="middle" x="1200.36" y="-232.12" font-family="Helvetica,sans-Serif" font-size="10.00" fill="#000000">pandas_market_calendars</text>
</g>
<!-- pandas_market_calendars&#45;&gt;apex -->
<g id="edge25" class="edge">
<title>pandas_market_calendars&#45;&gt;apex</title><style>.edge>path:hover{stroke-width:8}</style>
<path fill="none" stroke="black" d="M1420.36,-181C1390.54,-122.18 1146.94,-191.28 1128.36,-128"/>
<path fill="none" stroke="black" d="M1265.59,-220.84C1331.11,-206.4 1422.19,-185.6 1420.36,-182"/>
</g>
<!-- pandas_market_calendars&#45;&gt;src -->
<g id="edge26" class="edge">
<title>pandas_market_calendars&#45;&gt;src</title><style>.edge>path:hover{stroke-width:8}</style>
<path fill="none" stroke="black" d="M1134.96,-218C1117.37,-210.07 1100.44,-198.57 1090.36,-182"/>
</g>
<!-- prometheus_client -->
<g id="node14" class="node">
<title>prometheus_client</title><style>.edge>path:hover{stroke-width:8}</style>
<polygon fill="#33ccbb" stroke="black" points="1561.11,-254 1558.11,-258 1537.11,-258 1534.11,-254 1465.61,-254 1465.61,-218 1561.11,-218 1561.11,-254"/>
<text xml:space="preserve" text-anchor="middle" x="1513.36" y="-232.12" font-family="Helvetica,sans-Serif" font-size="10.00" fill="#000000">prometheus_client</text>
</g>
<!-- prometheus_client&#45;&gt;apex -->
<g id="edge27" class="edge">
<title>prometheus_client&#45;&gt;apex</title><style>.edge>path:hover{stroke-width:8}</style>
<path fill="none" stroke="black" d="M1465.16,-220.29C1447.41,-212.13 1429.44,-199.9 1420.36,-182"/>
</g>
<!-- prometheus_client&#45;&gt;src -->
<g id="edge28" class="edge">
<title>prometheus_client&#45;&gt;src</title><style>.edge>path:hover{stroke-width:8}</style>
<path fill="none" stroke="black" d="M1465.14,-219.25C1439.7,-210.02 1408.44,-197.19 1382.36,-182"/>
</g>
<!-- pyarrow -->
<g id="node15" class="node">
<title>pyarrow</title><style>.edge>path:hover{stroke-width:8}</style>
<polygon fill="#19cfe6" stroke="black" points="829.36,-254 826.36,-258 805.36,-258 802.36,-254 775.36,-254 775.36,-218 829.36,-218 829.36,-254"/>
<text xml:space="preserve" text-anchor="middle" x="802.36" y="-232.12" font-family="Helvetica,sans-Serif" font-size="10.00" fill="#000000">pyarrow</text>
</g>
<!-- pyarrow&#45;&gt;apex -->
<g id="edge29" class="edge">
<title>pyarrow&#45;&gt;apex</title><style>.edge>path:hover{stroke-width:8}</style>
<path fill="none" stroke="black" d="M1128.36,-126C1121.73,-103.4 1122.83,-95.9 1128.36,-73"/>
<path fill="none" stroke="black" d="M829.73,-221.66C832.63,-220.38 835.54,-219.13 838.36,-218 885.32,-199.16 905.75,-212.18 946.36,-182"/>
<path fill="none" stroke="black" d="M946.36,-181C1013.99,-130.75 1152.09,-208.84 1128.36,-128"/>
</g>
<!-- pyarrow&#45;&gt;src -->
<g id="edge30" class="edge">
<title>pyarrow&#45;&gt;src</title><style>.edge>path:hover{stroke-width:8}</style>
<path fill="none" stroke="black" d="M774.95,-222.1C753.98,-210.76 731.17,-194.22 747.36,-182"/>
</g>
<!-- pydantic -->
<g id="node16" class="node">
<title>pydantic</title><style>.edge>path:hover{stroke-width:8}</style>
<polygon fill="#3399cc" stroke="black" points="1117.36,-254 1114.36,-258 1093.36,-258 1090.36,-254 1063.36,-254 1063.36,-218 1117.36,-218 1117.36,-254"/>
<text xml:space="preserve" text-anchor="middle" x="1090.36" y="-232.12" font-family="Helvetica,sans-Serif" font-size="10.00" fill="#000000">pydantic</text>
</g>
<!-- pydantic&#45;&gt;apex -->
<g id="edge31" class="edge">
<title>pydantic&#45;&gt;apex</title><style>.edge>path:hover{stroke-width:8}</style>
<path fill="none" stroke="black" d="M1103.66,-217.74C1118.18,-196.72 1138.14,-160.05 1128.36,-128"/>
</g>
<!-- pydantic&#45;&gt;src -->
<g id="edge32" class="edge">
<title>pydantic&#45;&gt;src</title><style>.edge>path:hover{stroke-width:8}</style>
<path fill="none" stroke="black" d="M1090.36,-181C1085.74,-173.39 1082.24,-164.4 1079.66,-156"/>
<polygon fill="#3399cc" stroke="black" points="1083.09,-155.28 1077.08,-146.56 1076.34,-157.13 1083.09,-155.28"/>
<path fill="none" stroke="black" d="M1094.73,-217.54C1096.47,-206.56 1096.77,-192.54 1090.36,-182"/>
</g>
<!-- pytest -->
<g id="node17" class="node">
<title>pytest</title><style>.edge>path:hover{stroke-width:8}</style>
<polygon fill="#537fb6" stroke="black" points="1378.36,-145 1375.36,-149 1354.36,-149 1351.36,-145 1324.36,-145 1324.36,-109 1378.36,-109 1378.36,-145"/>
<text xml:space="preserve" text-anchor="middle" x="1351.36" y="-123.12" font-family="Helvetica,sans-Serif" font-size="10.00" fill="#ffffff">pytest</text>
</g>
<!-- pytest&#45;&gt;apex -->
<g id="edge33" class="edge">
<title>pytest&#45;&gt;apex</title><style>.edge>path:hover{stroke-width:8}</style>
<path fill="none" stroke="black" d="M1324.14,-112.28C1321.22,-111.07 1318.26,-109.94 1315.36,-109 1275.14,-95.86 1118.42,-114.13 1128.36,-73"/>
</g>
<!-- pytz -->
<g id="node18" class="node">
<title>pytz</title><style>.edge>path:hover{stroke-width:8}</style>
<polygon fill="#264ed9" stroke="black" points="973.36,-254 970.36,-258 949.36,-258 946.36,-254 919.36,-254 919.36,-218 973.36,-218 973.36,-254"/>
<text xml:space="preserve" text-anchor="middle" x="946.36" y="-232.12" font-family="Helvetica,sans-Serif" font-size="10.00" fill="#ffffff">pytz</text>
</g>
<!-- pytz&#45;&gt;apex -->
<g id="edge34" class="edge">
<title>pytz&#45;&gt;apex</title><style>.edge>path:hover{stroke-width:8}</style>
<path fill="none" stroke="black" d="M940.19,-217.72C937.04,-205.47 935.8,-189.85 946.36,-182"/>
</g>
<!-- pytz&#45;&gt;src -->
<g id="edge35" class="edge">
<title>pytz&#45;&gt;src</title><style>.edge>path:hover{stroke-width:8}</style>
<path fill="none" stroke="black" d="M919.11,-221.36C916.19,-220.13 913.24,-218.98 910.36,-218 840.16,-194.01 688.14,-226.69 747.36,-182"/>
</g>
<!-- rich -->
<g id="node19" class="node">
<title>rich</title><style>.edge>path:hover{stroke-width:8}</style>
<polygon fill="blue" stroke="black" points="1616.36,-398 1613.36,-402 1592.36,-402 1589.36,-398 1562.36,-398 1562.36,-362 1616.36,-362 1616.36,-398"/>
<text xml:space="preserve" text-anchor="middle" x="1589.36" y="-376.12" font-family="Helvetica,sans-Serif" font-size="10.00" fill="white">rich</text>
</g>
<!-- rich&#45;&gt;apex -->
<g id="edge36" class="edge">
<title>rich&#45;&gt;apex</title><style>.edge>path:hover{stroke-width:8}</style>
<path fill="none" stroke="black" d="M1589.36,-307C1569.4,-271.82 1598.6,-246.96 1570.36,-218 1522.5,-168.91 1451.37,-243.15 1420.36,-182"/>
</g>
<!-- textual -->
<g id="node24" class="node">
<title>textual</title><style>.edge>path:hover{stroke-width:8}</style>
<polygon fill="blue" stroke="black" points="1375.36,-254 1372.36,-258 1351.36,-258 1348.36,-254 1321.36,-254 1321.36,-218 1375.36,-218 1375.36,-254"/>
<text xml:space="preserve" text-anchor="middle" x="1348.36" y="-232.12" font-family="Helvetica,sans-Serif" font-size="10.00" fill="white">textual</text>
</g>
<!-- rich&#45;&gt;textual -->
<g id="edge37" class="edge">
<title>rich&#45;&gt;textual</title><style>.edge>path:hover{stroke-width:8}</style>
<path fill="none" stroke="black" d="M1593.88,-361.68C1596.77,-346.73 1598.48,-325.07 1589.36,-309"/>
<path fill="none" stroke="black" d="M1589.36,-307C1544.65,-228.19 1478.03,-281.69 1386.37,-254.1"/>
<polygon fill="blue" stroke="black" points="1387.69,-250.85 1377.09,-251.02 1385.48,-257.49 1387.69,-250.85"/>
</g>
<!-- scipy&#45;&gt;apex -->
<g id="edge38" class="edge">
<title>scipy&#45;&gt;apex</title><style>.edge>path:hover{stroke-width:8}</style>
<path fill="none" stroke="black" d="M424.36,-307C470.11,-239.32 305.13,-312.75 248.36,-254 225.37,-230.2 199.42,-196.09 229.36,-182"/>
</g>
<!-- scipy&#45;&gt;optuna -->
<g id="edge39" class="edge">
<title>scipy&#45;&gt;optuna</title><style>.edge>path:hover{stroke-width:8}</style>
<path fill="none" stroke="black" d="M424.36,-307C465.13,-246.68 511.26,-279.73 579.36,-254 580.48,-253.58 581.61,-253.14 582.76,-252.7"/>
<polygon fill="#3a06ef" stroke="black" points="583.71,-256.09 591.71,-249.14 581.12,-249.59 583.71,-256.09"/>
</g>
<!-- scipy&#45;&gt;sklearn -->
<g id="edge40" class="edge">
<title>scipy&#45;&gt;sklearn</title><style>.edge>path:hover{stroke-width:8}</style>
<path fill="none" stroke="black" d="M353.82,-366.3C376.18,-354.55 406.8,-334.98 424.36,-309"/>
<path fill="none" stroke="black" d="M424.36,-307C478.03,-227.6 306.31,-284.21 215.36,-254 214.23,-253.62 213.08,-253.23 211.93,-252.82"/>
<polygon fill="#3a06ef" stroke="black" points="213.51,-249.68 202.92,-249.43 211.05,-256.23 213.51,-249.68"/>
</g>
<!-- scipy&#45;&gt;src -->
<g id="edge41" class="edge">
<title>scipy&#45;&gt;src</title><style>.edge>path:hover{stroke-width:8}</style>
<path fill="none" stroke="black" d="M424.36,-307C506.62,-185.3 683.98,-369.51 747.36,-237"/>
<path fill="none" stroke="black" d="M747.36,-235C757.53,-213.75 728.56,-196.19 747.36,-182"/>
</g>
<!-- sklearn&#45;&gt;apex -->
<g id="edge42" class="edge">
<title>sklearn&#45;&gt;apex</title><style>.edge>path:hover{stroke-width:8}</style>
<path fill="none" stroke="black" d="M187.24,-217.6C197.27,-205.45 212.33,-190.02 229.36,-182"/>
</g>
<!-- sklearn&#45;&gt;src -->
<g id="edge43" class="edge">
<title>sklearn&#45;&gt;src</title><style>.edge>path:hover{stroke-width:8}</style>
<path fill="none" stroke="black" d="M201.55,-218C221.93,-206.04 250.93,-190.68 278.36,-182"/>
</g>
<!-- src&#45;&gt;apex -->
<g id="edge44" class="edge">
<title>src&#45;&gt;apex</title><style>.edge>path:hover{stroke-width:8}</style>
<path fill="none" stroke="black" d="M1100.57,-109.89C1112.51,-100.87 1124.66,-88.34 1128.36,-73"/>
</g>
<!-- talib&#45;&gt;apex -->
<g id="edge45" class="edge">
<title>talib&#45;&gt;apex</title><style>.edge>path:hover{stroke-width:8}</style>
<path fill="none" stroke="black" d="M898.08,-217.63C912.14,-207.31 930.29,-193.94 946.36,-182"/>
</g>
<!-- talib&#45;&gt;src -->
<g id="edge46" class="edge">
<title>talib&#45;&gt;src</title><style>.edge>path:hover{stroke-width:8}</style>
<path fill="none" stroke="black" d="M846.93,-221.82C844.05,-220.51 841.16,-219.21 838.36,-218 798.46,-200.7 712.65,-208.2 747.36,-182"/>
</g>
<!-- textual&#45;&gt;apex -->
<g id="edge47" class="edge">
<title>textual&#45;&gt;apex</title><style>.edge>path:hover{stroke-width:8}</style>
<path fill="none" stroke="black" d="M1375.68,-221.77C1398.26,-209.89 1425.81,-192.73 1420.36,-182"/>
</g>
<!-- textual&#45;&gt;src -->
<g id="edge48" class="edge">
<title>textual&#45;&gt;src</title><style>.edge>path:hover{stroke-width:8}</style>
<path fill="none" stroke="black" d="M1370.29,-217.74C1383.68,-205.49 1395.87,-189.87 1382.36,-182"/>
<path fill="none" stroke="black" d="M1382.36,-181C1278.53,-120.5 1230.4,-176.28 1114.36,-145 1113.39,-144.74 1112.4,-144.46 1111.42,-144.16"/>
<polygon fill="blue" stroke="black" points="1112.84,-140.95 1102.25,-141.01 1110.57,-147.57 1112.84,-140.95"/>
</g>
<!-- vectorbt -->
<g id="node25" class="node">
<title>vectorbt</title><style>.edge>path:hover{stroke-width:8}</style>
<polygon fill="#cc3399" stroke="black" points="1045.36,-254 1042.36,-258 1021.36,-258 1018.36,-254 991.36,-254 991.36,-218 1045.36,-218 1045.36,-254"/>
<text xml:space="preserve" text-anchor="middle" x="1018.36" y="-232.12" font-family="Helvetica,sans-Serif" font-size="10.00" fill="#ffffff">vectorbt</text>
</g>
<!-- vectorbt&#45;&gt;apex -->
<g id="edge49" class="edge">
<title>vectorbt&#45;&gt;apex</title><style>.edge>path:hover{stroke-width:8}</style>
<path fill="none" stroke="black" d="M990.92,-221.11C966.63,-208.02 936.46,-189.36 946.36,-182"/>
</g>
<!-- vectorbt&#45;&gt;src -->
<g id="edge50" class="edge">
<title>vectorbt&#45;&gt;src</title><style>.edge>path:hover{stroke-width:8}</style>
<path fill="none" stroke="black" d="M991.17,-221.16C988.25,-219.97 985.27,-218.89 982.36,-218 881.32,-187.12 663.02,-245.64 747.36,-182"/>
</g>
<!-- yaml -->
<g id="node26" class="node">
<title>yaml</title><style>.edge>path:hover{stroke-width:8}</style>
<polygon fill="#f91078" stroke="black" points="91.36,-398 88.36,-402 67.36,-402 64.36,-398 37.36,-398 37.36,-362 91.36,-362 91.36,-398"/>
<text xml:space="preserve" text-anchor="middle" x="64.36" y="-376.12" font-family="Helvetica,sans-Serif" font-size="10.00" fill="#ffffff">yaml</text>
</g>
<!-- yaml&#45;&gt;apex -->
<g id="edge51" class="edge">
<title>yaml&#45;&gt;apex</title><style>.edge>path:hover{stroke-width:8}</style>
<path fill="none" stroke="black" d="M53.65,-361.74C46,-347.03 38.49,-325.67 47.36,-309"/>
<path fill="none" stroke="black" d="M47.36,-307C61.99,-279.54 25.73,-259.36 47.36,-237"/>
</g>
<!-- yaml&#45;&gt;config -->
<g id="edge52" class="edge">
<title>yaml&#45;&gt;config</title><style>.edge>path:hover{stroke-width:8}</style>
<path fill="none" stroke="black" d="M47.36,-307C55.72,-291.3 67.68,-275.57 78.31,-263.01"/>
<polygon fill="#f91078" stroke="black" points="80.83,-265.45 84.75,-255.61 75.55,-260.86 80.83,-265.45"/>
</g>
<!-- yaml&#45;&gt;src -->
<g id="edge53" class="edge">
<title>yaml&#45;&gt;src</title><style>.edge>path:hover{stroke-width:8}</style>
<path fill="none" stroke="black" d="M47.36,-307C99.77,-208.57 445.1,-300.7 546.36,-254 567.49,-244.26 563.81,-228.91 584.36,-218 649.9,-183.22 688.14,-226.69 747.36,-182"/>
</g>
<!-- yfinance -->
<g id="node27" class="node">
<title>yfinance</title><style>.edge>path:hover{stroke-width:8}</style>
<polygon fill="#f30c40" stroke="black" points="1447.36,-254 1444.36,-258 1423.36,-258 1420.36,-254 1393.36,-254 1393.36,-218 1447.36,-218 1447.36,-254"/>
<text xml:space="preserve" text-anchor="middle" x="1420.36" y="-232.12" font-family="Helvetica,sans-Serif" font-size="10.00" fill="#ffffff">yfinance</text>
</g>
<!-- yfinance&#45;&gt;apex -->
<g id="edge54" class="edge">
<title>yfinance&#45;&gt;apex</title><style>.edge>path:hover{stroke-width:8}</style>
<path fill="none" stroke="black" d="M1424.16,-217.85C1425.68,-207 1425.94,-193 1420.36,-182"/>
</g>
<!-- yfinance&#45;&gt;src -->
<g id="edge55" class="edge">
<title>yfinance&#45;&gt;src</title><style>.edge>path:hover{stroke-width:8}</style>
<path fill="none" stroke="black" d="M1412.73,-217.65C1406.43,-205.52 1396.26,-190.09 1382.36,-182"/>
</g>
</g>
</svg>
