<?xml version="1.0" encoding="UTF-8" standalone="no"?>
<!DOCTYPE svg PUBLIC "-//W3C//DTD SVG 1.1//EN"
 "http://www.w3.org/Graphics/SVG/1.1/DTD/svg11.dtd">
<!-- Generated by graphviz version 14.1.1 (20251213.1925)
 -->
<!-- Title: G Pages: 1 -->
<svg width="1200pt" height="620pt"
 viewBox="0.00 0.00 1200.00 620.00" xmlns="http://www.w3.org/2000/svg" xmlns:xlink="http://www.w3.org/1999/xlink">
<g id="graph0" class="graph" transform="scale(1 1) rotate(0) translate(4 616)">
<title>G</title><style>.edge>path:hover{stroke-width:8}</style>
<polygon fill="white" stroke="none" points="-4,4 -4,-616 1196.5,-616 1196.5,4 -4,4"/>
<!-- __main__ -->
<g id="node1" class="node">
<title>__main__</title><style>.edge>path:hover{stroke-width:8}</style>
<polygon fill="blue" stroke="black" points="431.5,-468 428.5,-472 407.5,-472 404.5,-468 373.5,-468 373.5,-432 431.5,-432 431.5,-468"/>
<text xml:space="preserve" text-anchor="middle" x="402.5" y="-446.12" font-family="Helvetica,sans-Serif" font-size="10.00" fill="white">__main__</text>
</g>
<!-- pandas -->
<g id="node13" class="node">
<title>pandas</title><style>.edge>path:hover{stroke-width:8}</style>
<polygon fill="blue" stroke="black" points="420.5,-396 417.5,-400 396.5,-400 393.5,-396 366.5,-396 366.5,-360 420.5,-360 420.5,-396"/>
<text xml:space="preserve" text-anchor="middle" x="393.5" y="-374.12" font-family="Helvetica,sans-Serif" font-size="10.00" fill="white">pandas</text>
</g>
<!-- __main__&#45;&gt;pandas -->
<g id="edge1" class="edge">
<title>__main__&#45;&gt;pandas</title><style>.edge>path:hover{stroke-width:8}</style>
<path fill="none" stroke="black" d="M400.27,-431.7C399.33,-424.32 398.19,-415.52 397.13,-407.25"/>
<polygon fill="blue" stroke="black" points="400.64,-407.08 395.89,-397.61 393.69,-407.97 400.64,-407.08"/>
</g>
<!-- apex -->
<g id="node2" class="node">
<title>apex</title><style>.edge>path:hover{stroke-width:8}</style>
<polygon fill="blue" stroke="black" points="437.5,-36 434.5,-40 413.5,-40 410.5,-36 383.5,-36 383.5,0 437.5,0 437.5,-36"/>
<text xml:space="preserve" text-anchor="middle" x="410.5" y="-14.12" font-family="Helvetica,sans-Serif" font-size="10.00" fill="white">apex</text>
</g>
<!-- asyncpg -->
<g id="node3" class="node">
<title>asyncpg</title><style>.edge>path:hover{stroke-width:8}</style>
<polygon fill="#cc7533" stroke="black" points="158.5,-180 155.5,-184 134.5,-184 131.5,-180 104.5,-180 104.5,-144 158.5,-144 158.5,-180"/>
<text xml:space="preserve" text-anchor="middle" x="131.5" y="-158.12" font-family="Helvetica,sans-Serif" font-size="10.00" fill="#000000">asyncpg</text>
</g>
<!-- asyncpg&#45;&gt;apex -->
<g id="edge2" class="edge">
<title>asyncpg&#45;&gt;apex</title><style>.edge>path:hover{stroke-width:8}</style>
<path fill="none" stroke="black" d="M104.13,-143.87C87.19,-130.87 69.82,-111.74 76.5,-91"/>
</g>
<!-- src -->
<g id="node23" class="node">
<title>src</title><style>.edge>path:hover{stroke-width:8}</style>
<polygon fill="blue" stroke="black" points="621.5,-108 567.5,-108 567.5,-72 621.5,-72 621.5,-108"/>
<text xml:space="preserve" text-anchor="middle" x="594.5" y="-86.12" font-family="Helvetica,sans-Serif" font-size="10.00" fill="white">src</text>
</g>
<!-- asyncpg&#45;&gt;src -->
<g id="edge3" class="edge">
<title>asyncpg&#45;&gt;src</title><style>.edge>path:hover{stroke-width:8}</style>
<path fill="none" stroke="black" d="M158.66,-147.08C161.6,-145.91 164.58,-144.85 167.5,-144 204.39,-133.3 457.61,-105.58 555.75,-95.1"/>
<polygon fill="#cc7533" stroke="black" points="556.12,-98.58 565.69,-94.04 555.38,-91.62 556.12,-98.58"/>
</g>
<!-- backtrader -->
<g id="node4" class="node">
<title>backtrader</title><style>.edge>path:hover{stroke-width:8}</style>
<polygon fill="blue" stroke="black" points="724.37,-180 721.37,-184 700.37,-184 697.37,-180 662.62,-180 662.62,-144 724.37,-144 724.37,-180"/>
<text xml:space="preserve" text-anchor="middle" x="693.5" y="-158.12" font-family="Helvetica,sans-Serif" font-size="10.00" fill="white">backtrader</text>
</g>
<!-- backtrader&#45;&gt;apex -->
<g id="edge4" class="edge">
<title>backtrader&#45;&gt;apex</title><style>.edge>path:hover{stroke-width:8}</style>
<path fill="none" stroke="black" d="M724.71,-147C727.65,-145.9 730.61,-144.88 733.5,-144 792.6,-125.93 1025.28,-149.88 1006.5,-91"/>
</g>
<!-- backtrader&#45;&gt;src -->
<g id="edge5" class="edge">
<title>backtrader&#45;&gt;src</title><style>.edge>path:hover{stroke-width:8}</style>
<path fill="none" stroke="black" d="M668.77,-143.52C656.51,-134.85 641.52,-124.25 628.23,-114.85"/>
<polygon fill="blue" stroke="black" points="630.33,-112.05 620.15,-109.13 626.29,-117.77 630.33,-112.05"/>
</g>
<!-- config -->
<g id="node5" class="node">
<title>config</title><style>.edge>path:hover{stroke-width:8}</style>
<polygon fill="#c4af31" stroke="black" points="1164.5,-180 1161.5,-184 1140.5,-184 1137.5,-180 1110.5,-180 1110.5,-144 1164.5,-144 1164.5,-180"/>
<text xml:space="preserve" text-anchor="middle" x="1137.5" y="-158.12" font-family="Helvetica,sans-Serif" font-size="10.00" fill="#000000">config</text>
</g>
<!-- config&#45;&gt;apex -->
<g id="edge6" class="edge">
<title>config&#45;&gt;apex</title><style>.edge>path:hover{stroke-width:8}</style>
<path fill="none" stroke="black" d="M1110.03,-148.79C1072.65,-131.84 1010.01,-101.99 1006.5,-91"/>
</g>
<!-- config&#45;&gt;src -->
<g id="edge7" class="edge">
<title>config&#45;&gt;src</title><style>.edge>path:hover{stroke-width:8}</style>
<path fill="none" stroke="black" d="M1110.2,-154.43C1095.04,-150.96 1075.8,-146.84 1058.5,-144 901.73,-118.24 713.12,-100.87 633.25,-94.13"/>
<polygon fill="#c4af31" stroke="black" points="633.59,-90.65 623.33,-93.3 633.01,-97.62 633.59,-90.65"/>
</g>
<!-- duckdb -->
<g id="node6" class="node">
<title>duckdb</title><style>.edge>path:hover{stroke-width:8}</style>
<polygon fill="#c1cc33" stroke="black" points="230.5,-180 227.5,-184 206.5,-184 203.5,-180 176.5,-180 176.5,-144 230.5,-144 230.5,-180"/>
<text xml:space="preserve" text-anchor="middle" x="203.5" y="-158.12" font-family="Helvetica,sans-Serif" font-size="10.00" fill="#000000">duckdb</text>
</g>
<!-- duckdb&#45;&gt;apex -->
<g id="edge8" class="edge">
<title>duckdb&#45;&gt;apex</title><style>.edge>path:hover{stroke-width:8}</style>
<path fill="none" stroke="black" d="M176.11,-147.58C138.26,-128.81 74.76,-96.39 76.5,-91"/>
</g>
<!-- duckdb&#45;&gt;src -->
<g id="edge9" class="edge">
<title>duckdb&#45;&gt;src</title><style>.edge>path:hover{stroke-width:8}</style>
<path fill="none" stroke="black" d="M230.69,-147.15C233.62,-145.97 236.59,-144.88 239.5,-144 298.2,-126.18 476.6,-104.42 555.85,-95.32"/>
<polygon fill="#c1cc33" stroke="black" points="556.2,-98.8 565.74,-94.19 555.41,-91.85 556.2,-98.8"/>
</g>
<!-- futu -->
<g id="node7" class="node">
<title>futu</title><style>.edge>path:hover{stroke-width:8}</style>
<polygon fill="blue" stroke="black" points="492.5,-180 489.5,-184 468.5,-184 465.5,-180 438.5,-180 438.5,-144 492.5,-144 492.5,-180"/>
<text xml:space="preserve" text-anchor="middle" x="465.5" y="-158.12" font-family="Helvetica,sans-Serif" font-size="10.00" fill="white">futu</text>
</g>
<!-- futu&#45;&gt;apex -->
<g id="edge10" class="edge">
<title>futu&#45;&gt;apex</title><style>.edge>path:hover{stroke-width:8}</style>
<path fill="none" stroke="black" d="M438.04,-143.68C421.33,-130.72 404.3,-111.73 410.5,-91"/>
</g>
<!-- futu&#45;&gt;src -->
<g id="edge11" class="edge">
<title>futu&#45;&gt;src</title><style>.edge>path:hover{stroke-width:8}</style>
<path fill="none" stroke="black" d="M492.86,-146.15C511.58,-135.99 536.65,-122.39 557.2,-111.24"/>
<polygon fill="blue" stroke="black" points="558.73,-114.39 565.85,-106.55 555.39,-108.24 558.73,-114.39"/>
</g>
<!-- hypothesis -->
<g id="node8" class="node">
<title>hypothesis</title><style>.edge>path:hover{stroke-width:8}</style>
<polygon fill="#75b03a" stroke="black" points="988.12,-396 985.12,-400 964.12,-400 961.12,-396 924.87,-396 924.87,-360 988.12,-360 988.12,-396"/>
<text xml:space="preserve" text-anchor="middle" x="956.5" y="-374.12" font-family="Helvetica,sans-Serif" font-size="10.00" fill="#000000">hypothesis</text>
</g>
<!-- hypothesis&#45;&gt;apex -->
<g id="edge12" class="edge">
<title>hypothesis&#45;&gt;apex</title><style>.edge>path:hover{stroke-width:8}</style>
<path fill="none" stroke="black" d="M977.98,-359.85C1006.91,-335.45 1057.62,-287.76 1082.5,-235"/>
</g>
<!-- ib_async -->
<g id="node9" class="node">
<title>ib_async</title><style>.edge>path:hover{stroke-width:8}</style>
<polygon fill="blue" stroke="black" points="566,-180 563,-184 542,-184 539,-180 511,-180 511,-144 566,-144 566,-180"/>
<text xml:space="preserve" text-anchor="middle" x="538.5" y="-158.12" font-family="Helvetica,sans-Serif" font-size="10.00" fill="white">ib_async</text>
</g>
<!-- ib_async&#45;&gt;apex -->
<g id="edge13" class="edge">
<title>ib_async&#45;&gt;apex</title><style>.edge>path:hover{stroke-width:8}</style>
<path fill="none" stroke="black" d="M510.6,-147.44C472.46,-128.67 408.87,-96.45 410.5,-91"/>
</g>
<!-- ib_async&#45;&gt;src -->
<g id="edge14" class="edge">
<title>ib_async&#45;&gt;src</title><style>.edge>path:hover{stroke-width:8}</style>
<path fill="none" stroke="black" d="M552.34,-143.7C558.78,-135.64 566.58,-125.89 573.71,-116.98"/>
<polygon fill="blue" stroke="black" points="576.36,-119.28 579.87,-109.29 570.89,-114.91 576.36,-119.28"/>
</g>
<!-- jsonschema -->
<g id="node10" class="node">
<title>jsonschema</title><style>.edge>path:hover{stroke-width:8}</style>
<polygon fill="#49c040" stroke="black" points="382.75,-108 379.75,-112 358.75,-112 355.75,-108 314.25,-108 314.25,-72 382.75,-72 382.75,-108"/>
<text xml:space="preserve" text-anchor="middle" x="348.5" y="-86.12" font-family="Helvetica,sans-Serif" font-size="10.00" fill="#000000">jsonschema</text>
</g>
<!-- jsonschema&#45;&gt;apex -->
<g id="edge15" class="edge">
<title>jsonschema&#45;&gt;apex</title><style>.edge>path:hover{stroke-width:8}</style>
<path fill="none" stroke="black" d="M363.82,-71.7C371.03,-63.56 379.77,-53.69 387.73,-44.7"/>
<polygon fill="#49c040" stroke="black" points="390.34,-47.04 394.35,-37.24 385.1,-42.4 390.34,-47.04"/>
</g>
<!-- numpy -->
<g id="node11" class="node">
<title>numpy</title><style>.edge>path:hover{stroke-width:8}</style>
<polygon fill="#05e525" stroke="black" points="656.5,-540 653.5,-544 632.5,-544 629.5,-540 602.5,-540 602.5,-504 656.5,-504 656.5,-540"/>
<text xml:space="preserve" text-anchor="middle" x="629.5" y="-518.12" font-family="Helvetica,sans-Serif" font-size="10.00" fill="#000000">numpy</text>
</g>
<!-- numpy&#45;&gt;apex -->
<g id="edge16" class="edge">
<title>numpy&#45;&gt;apex</title><style>.edge>path:hover{stroke-width:8}</style>
<path fill="none" stroke="black" d="M656.8,-519.28C726,-514.49 906.36,-499.27 956.5,-468 1023.05,-426.5 1025.1,-394.96 1058.5,-324 1075.94,-286.93 1065.99,-272.5 1082.5,-235"/>
</g>
<!-- numpy&#45;&gt;backtrader -->
<g id="edge17" class="edge">
<title>numpy&#45;&gt;backtrader</title><style>.edge>path:hover{stroke-width:8}</style>
<path fill="none" stroke="black" d="M708.5,-377C700.96,-314.33 704.82,-298.1 706.5,-235"/>
</g>
<!-- numpy&#45;&gt;hypothesis -->
<g id="edge18" class="edge">
<title>numpy&#45;&gt;hypothesis</title><style>.edge>path:hover{stroke-width:8}</style>
<path fill="none" stroke="black" d="M656.95,-519.88C723.75,-516.58 892.28,-504.74 932.5,-468 949.13,-452.8 954.73,-427.41 956.4,-407.62"/>
<polygon fill="#05e525" stroke="black" points="959.89,-407.85 956.91,-397.68 952.9,-407.49 959.89,-407.85"/>
</g>
<!-- optuna -->
<g id="node12" class="node">
<title>optuna</title><style>.edge>path:hover{stroke-width:8}</style>
<polygon fill="blue" stroke="black" points="310.5,-324 307.5,-328 286.5,-328 283.5,-324 256.5,-324 256.5,-288 310.5,-288 310.5,-324"/>
<text xml:space="preserve" text-anchor="middle" x="283.5" y="-302.12" font-family="Helvetica,sans-Serif" font-size="10.00" fill="white">optuna</text>
</g>
<!-- numpy&#45;&gt;optuna -->
<g id="edge19" class="edge">
<title>numpy&#45;&gt;optuna</title><style>.edge>path:hover{stroke-width:8}</style>
<path fill="none" stroke="black" d="M224.5,-449C215.65,-440.82 248.62,-373.56 268.83,-334.62"/>
<polygon fill="#05e525" stroke="black" points="271.91,-336.28 273.45,-325.8 265.71,-333.03 271.91,-336.28"/>
</g>
<!-- numpy&#45;&gt;pandas -->
<g id="edge20" class="edge">
<title>numpy&#45;&gt;pandas</title><style>.edge>path:hover{stroke-width:8}</style>
<path fill="none" stroke="black" d="M708.5,-449C713.36,-393.09 517.66,-381.82 432.36,-379.56"/>
<polygon fill="#05e525" stroke="black" points="432.44,-376.06 422.36,-379.33 432.28,-383.06 432.44,-376.06"/>
<path fill="none" stroke="black" d="M656.82,-509.47C678.69,-498.22 706.08,-478.75 708.5,-451"/>
</g>
<!-- pandas_market_calendars -->
<g id="node14" class="node">
<title>pandas_market_calendars</title><style>.edge>path:hover{stroke-width:8}</style>
<polygon fill="blue" stroke="black" points="678.5,-252 675.5,-256 654.5,-256 651.5,-252 548.5,-252 548.5,-216 678.5,-216 678.5,-252"/>
<text xml:space="preserve" text-anchor="middle" x="613.5" y="-230.12" font-family="Helvetica,sans-Serif" font-size="10.00" fill="white">pandas_market_calendars</text>
</g>
<!-- numpy&#45;&gt;pandas_market_calendars -->
<g id="edge21" class="edge">
<title>numpy&#45;&gt;pandas_market_calendars</title><style>.edge>path:hover{stroke-width:8}</style>
<path fill="none" stroke="black" d="M708.5,-449C711.2,-418.01 715.98,-409.2 708.5,-379"/>
<path fill="none" stroke="black" d="M708.5,-377C697.09,-330.96 662.87,-287.02 638.78,-260.53"/>
<polygon fill="#05e525" stroke="black" points="641.46,-258.28 632.08,-253.35 636.34,-263.05 641.46,-258.28"/>
</g>
<!-- pyarrow -->
<g id="node16" class="node">
<title>pyarrow</title><style>.edge>path:hover{stroke-width:8}</style>
<polygon fill="blue" stroke="black" points="196.5,-324 193.5,-328 172.5,-328 169.5,-324 142.5,-324 142.5,-288 196.5,-288 196.5,-324"/>
<text xml:space="preserve" text-anchor="middle" x="169.5" y="-302.12" font-family="Helvetica,sans-Serif" font-size="10.00" fill="white">pyarrow</text>
</g>
<!-- numpy&#45;&gt;pyarrow -->
<g id="edge22" class="edge">
<title>numpy&#45;&gt;pyarrow</title><style>.edge>path:hover{stroke-width:8}</style>
<path fill="none" stroke="black" d="M224.5,-377C221.33,-359.83 210.26,-344.19 198.86,-332.07"/>
<polygon fill="#05e525" stroke="black" points="201.65,-329.9 192.09,-325.33 196.71,-334.86 201.65,-329.9"/>
<path fill="none" stroke="black" d="M224.5,-449C199.54,-430.43 230.14,-409.59 224.5,-379"/>
</g>
<!-- scipy -->
<g id="node21" class="node">
<title>scipy</title><style>.edge>path:hover{stroke-width:8}</style>
<polygon fill="#4205db" stroke="black" points="355.5,-468 352.5,-472 331.5,-472 328.5,-468 301.5,-468 301.5,-432 355.5,-432 355.5,-468"/>
<text xml:space="preserve" text-anchor="middle" x="328.5" y="-446.12" font-family="Helvetica,sans-Serif" font-size="10.00" fill="#ffffff">scipy</text>
</g>
<!-- numpy&#45;&gt;scipy -->
<g id="edge23" class="edge">
<title>numpy&#45;&gt;scipy</title><style>.edge>path:hover{stroke-width:8}</style>
<path fill="none" stroke="black" d="M602.23,-517.78C555.42,-511.78 456.8,-497.09 366.43,-468.2"/>
<polygon fill="#05e525" stroke="black" points="367.76,-464.96 357.17,-465.17 365.59,-471.61 367.76,-464.96"/>
</g>
<!-- sklearn -->
<g id="node22" class="node">
<title>sklearn</title><style>.edge>path:hover{stroke-width:8}</style>
<polygon fill="blue" stroke="black" points="382.5,-252 379.5,-256 358.5,-256 355.5,-252 328.5,-252 328.5,-216 382.5,-216 382.5,-252"/>
<text xml:space="preserve" text-anchor="middle" x="355.5" y="-230.12" font-family="Helvetica,sans-Serif" font-size="10.00" fill="white">sklearn</text>
</g>
<!-- numpy&#45;&gt;sklearn -->
<g id="edge24" class="edge">
<title>numpy&#45;&gt;sklearn</title><style>.edge>path:hover{stroke-width:8}</style>
<path fill="none" stroke="black" d="M224.5,-377C218.85,-346.41 202.69,-329.18 224.5,-307"/>
</g>
<!-- numpy&#45;&gt;src -->
<g id="edge25" class="edge">
<title>numpy&#45;&gt;src</title><style>.edge>path:hover{stroke-width:8}</style>
<path fill="none" stroke="black" d="M372.5,-161C436.5,-139.05 511.74,-115.87 556.15,-102.46"/>
<polygon fill="#05e525" stroke="black" points="557,-105.85 565.56,-99.62 554.98,-99.15 557,-105.85"/>
<path fill="none" stroke="black" d="M224.5,-449C138.06,-384.67 72.09,-281.69 157.5,-216 227.7,-162 273.97,-218.98 353.5,-180 363.67,-175.01 361.78,-166.68 372.5,-163"/>
<path fill="none" stroke="black" d="M602.28,-520.12C520.48,-516.92 279.16,-503.15 224.5,-451"/>
</g>
<!-- vectorbt -->
<g id="node26" class="node">
<title>vectorbt</title><style>.edge>path:hover{stroke-width:8}</style>
<polygon fill="blue" stroke="black" points="796.5,-180 793.5,-184 772.5,-184 769.5,-180 742.5,-180 742.5,-144 796.5,-144 796.5,-180"/>
<text xml:space="preserve" text-anchor="middle" x="769.5" y="-158.12" font-family="Helvetica,sans-Serif" font-size="10.00" fill="white">vectorbt</text>
</g>
<!-- numpy&#45;&gt;vectorbt -->
<g id="edge26" class="edge">
<title>numpy&#45;&gt;vectorbt</title><style>.edge>path:hover{stroke-width:8}</style>
<path fill="none" stroke="black" d="M856.5,-377C883.06,-309.84 869.84,-278.99 834.5,-216 827.65,-203.8 816.79,-193.29 805.89,-184.92"/>
<polygon fill="#05e525" stroke="black" points="808.2,-182.27 798.04,-179.29 804.12,-187.96 808.2,-182.27"/>
</g>
<!-- yfinance -->
<g id="node28" class="node">
<title>yfinance</title><style>.edge>path:hover{stroke-width:8}</style>
<polygon fill="blue" stroke="black" points="828.5,-324 825.5,-328 804.5,-328 801.5,-324 774.5,-324 774.5,-288 828.5,-288 828.5,-324"/>
<text xml:space="preserve" text-anchor="middle" x="801.5" y="-302.12" font-family="Helvetica,sans-Serif" font-size="10.00" fill="white">yfinance</text>
</g>
<!-- numpy&#45;&gt;yfinance -->
<g id="edge27" class="edge">
<title>numpy&#45;&gt;yfinance</title><style>.edge>path:hover{stroke-width:8}</style>
<path fill="none" stroke="black" d="M856.5,-377C863.29,-359.82 851.75,-343.42 837.51,-330.82"/>
<polygon fill="#05e525" stroke="black" points="840.08,-328.4 830.11,-324.82 835.67,-333.83 840.08,-328.4"/>
<path fill="none" stroke="black" d="M708.5,-449C714.81,-376.51 829.74,-446.67 856.5,-379"/>
</g>
<!-- optuna&#45;&gt;apex -->
<g id="edge28" class="edge">
<title>optuna&#45;&gt;apex</title><style>.edge>path:hover{stroke-width:8}</style>
<path fill="none" stroke="black" d="M410.5,-89C414.43,-75.85 414.89,-60.68 414.18,-47.84"/>
<polygon fill="blue" stroke="black" points="417.67,-47.55 413.34,-37.88 410.69,-48.14 417.67,-47.55"/>
<path fill="none" stroke="black" d="M263.18,-287.73C240.47,-268.87 202.18,-238.36 166.5,-216 136.52,-197.21 114.01,-210.15 95.5,-180 87.13,-166.37 84.89,-155.98 95.5,-144 189.63,-37.73 369.85,-227.02 410.5,-91"/>
</g>
<!-- optuna&#45;&gt;src -->
<g id="edge29" class="edge">
<title>optuna&#45;&gt;src</title><style>.edge>path:hover{stroke-width:8}</style>
<path fill="none" stroke="black" d="M448.5,-233C457.93,-226.72 457.7,-221.69 467.5,-216 520.4,-185.3 564.95,-216.55 594.5,-163"/>
<path fill="none" stroke="black" d="M310.75,-296.92C344.79,-286.08 403.96,-264.68 448.5,-235"/>
</g>
<!-- pandas&#45;&gt;apex -->
<g id="edge30" class="edge">
<title>pandas&#45;&gt;apex</title><style>.edge>path:hover{stroke-width:8}</style>
<path fill="none" stroke="black" d="M410.5,-233C417.34,-170.26 396.73,-152.59 410.5,-91"/>
<path fill="none" stroke="black" d="M448.5,-305C463.81,-273.08 406.78,-270.2 410.5,-235"/>
</g>
<!-- pandas&#45;&gt;backtrader -->
<g id="edge31" class="edge">
<title>pandas&#45;&gt;backtrader</title><style>.edge>path:hover{stroke-width:8}</style>
<path fill="none" stroke="black" d="M706.5,-233C706.87,-219.09 704.4,-203.88 701.52,-191.21"/>
<polygon fill="blue" stroke="black" points="705,-190.71 699.19,-181.85 698.21,-192.4 705,-190.71"/>
<path fill="none" stroke="black" d="M670.5,-305C699.64,-285.64 705.57,-269.97 706.5,-235"/>
<path fill="none" stroke="black" d="M420.67,-376.02C473.21,-372.93 590.55,-360.11 670.5,-307"/>
</g>
<!-- pandas&#45;&gt;futu -->
<g id="edge32" class="edge">
<title>pandas&#45;&gt;futu</title><style>.edge>path:hover{stroke-width:8}</style>
<path fill="none" stroke="black" d="M410.5,-233C412.38,-215.77 423.16,-200.21 434.69,-188.15"/>
<polygon fill="blue" stroke="black" points="436.86,-190.92 441.6,-181.45 431.99,-185.9 436.86,-190.92"/>
</g>
<!-- pandas&#45;&gt;ib_async -->
<g id="edge33" class="edge">
<title>pandas&#45;&gt;ib_async</title><style>.edge>path:hover{stroke-width:8}</style>
<path fill="none" stroke="black" d="M410.5,-233C411.92,-220.01 423.31,-222.76 434.5,-216 455.67,-203.2 480.29,-190.56 500.27,-180.83"/>
<polygon fill="blue" stroke="black" points="501.68,-184.04 509.17,-176.54 498.65,-177.73 501.68,-184.04"/>
</g>
<!-- pandas&#45;&gt;optuna -->
<g id="edge34" class="edge">
<title>pandas&#45;&gt;optuna</title><style>.edge>path:hover{stroke-width:8}</style>
<path fill="none" stroke="black" d="M366.02,-359.52C352.14,-350.68 335.1,-339.84 320.12,-330.3"/>
<polygon fill="blue" stroke="black" points="322.22,-327.49 311.9,-325.07 318.46,-333.39 322.22,-327.49"/>
</g>
<!-- pandas&#45;&gt;pandas_market_calendars -->
<g id="edge35" class="edge">
<title>pandas&#45;&gt;pandas_market_calendars</title><style>.edge>path:hover{stroke-width:8}</style>
<path fill="none" stroke="black" d="M448.5,-305C457.25,-286.75 499.71,-268.98 539.36,-255.9"/>
<polygon fill="blue" stroke="black" points="540.28,-259.29 548.72,-252.89 538.13,-252.62 540.28,-259.29"/>
</g>
<!-- pandas&#45;&gt;pyarrow -->
<g id="edge36" class="edge">
<title>pandas&#45;&gt;pyarrow</title><style>.edge>path:hover{stroke-width:8}</style>
<path fill="none" stroke="black" d="M355.93,-361.18C354.78,-360.77 353.63,-360.38 352.5,-360 290.71,-339.48 272.29,-344.52 210.5,-324 209.37,-323.62 208.22,-323.23 207.07,-322.82"/>
<polygon fill="blue" stroke="black" points="354.35,-364.32 364.94,-364.57 356.82,-357.77 354.35,-364.32"/>
<polygon fill="blue" stroke="black" points="208.65,-319.68 198.05,-319.43 206.18,-326.23 208.65,-319.68"/>
</g>
<!-- pandas&#45;&gt;sklearn -->
<g id="edge37" class="edge">
<title>pandas&#45;&gt;sklearn</title><style>.edge>path:hover{stroke-width:8}</style>
<path fill="none" stroke="black" d="M448.5,-305C455.11,-291.23 421.48,-269.31 392.83,-253.67"/>
<polygon fill="blue" stroke="black" points="394.79,-250.75 384.32,-249.14 391.5,-256.93 394.79,-250.75"/>
<path fill="none" stroke="black" d="M410.6,-359.77C422.9,-346.43 438.94,-326.93 448.5,-307"/>
</g>
<!-- pandas&#45;&gt;src -->
<g id="edge38" class="edge">
<title>pandas&#45;&gt;src</title><style>.edge>path:hover{stroke-width:8}</style>
<path fill="none" stroke="black" d="M448.5,-305C461.96,-276.95 422.61,-252.25 448.5,-235"/>
</g>
<!-- talib -->
<g id="node24" class="node">
<title>talib</title><style>.edge>path:hover{stroke-width:8}</style>
<polygon fill="blue" stroke="black" points="530.5,-252 527.5,-256 506.5,-256 503.5,-252 476.5,-252 476.5,-216 530.5,-216 530.5,-252"/>
<text xml:space="preserve" text-anchor="middle" x="503.5" y="-230.12" font-family="Helvetica,sans-Serif" font-size="10.00" fill="white">talib</text>
</g>
<!-- pandas&#45;&gt;talib -->
<g id="edge39" class="edge">
<title>pandas&#45;&gt;talib</title><style>.edge>path:hover{stroke-width:8}</style>
<path fill="none" stroke="black" d="M448.5,-305C456.19,-288.97 468.08,-273.2 478.84,-260.71"/>
<polygon fill="blue" stroke="black" points="481.35,-263.15 485.39,-253.36 476.12,-258.49 481.35,-263.15"/>
</g>
<!-- pandas&#45;&gt;vectorbt -->
<g id="edge40" class="edge">
<title>pandas&#45;&gt;vectorbt</title><style>.edge>path:hover{stroke-width:8}</style>
<path fill="none" stroke="black" d="M744.5,-233C750.24,-219.39 755.84,-203.95 760.29,-191.05"/>
<polygon fill="blue" stroke="black" points="763.49,-192.49 763.38,-181.9 756.86,-190.25 763.49,-192.49"/>
<path fill="none" stroke="black" d="M670.5,-305C708.21,-279.95 726.91,-276.72 744.5,-235"/>
</g>
<!-- pandas&#45;&gt;yfinance -->
<g id="edge41" class="edge">
<title>pandas&#45;&gt;yfinance</title><style>.edge>path:hover{stroke-width:8}</style>
<path fill="none" stroke="black" d="M420.9,-372.3C491.74,-360.14 681.11,-327.65 762.95,-313.61"/>
<polygon fill="blue" stroke="black" points="763.46,-317.08 772.72,-311.94 762.27,-310.18 763.46,-317.08"/>
</g>
<!-- pandas_market_calendars&#45;&gt;apex -->
<g id="edge42" class="edge">
<title>pandas_market_calendars&#45;&gt;apex</title><style>.edge>path:hover{stroke-width:8}</style>
<path fill="none" stroke="black" d="M611.99,-215.76C611.57,-198.28 614.3,-172.5 632.5,-163"/>
</g>
<!-- pandas_market_calendars&#45;&gt;backtrader -->
<g id="edge43" class="edge">
<title>pandas_market_calendars&#45;&gt;backtrader</title><style>.edge>path:hover{stroke-width:8}</style>
<path fill="none" stroke="black" d="M633.27,-215.7C642.89,-207.28 654.62,-197.02 665.17,-187.79"/>
<polygon fill="blue" stroke="black" points="667.31,-190.56 672.53,-181.34 662.7,-185.29 667.31,-190.56"/>
</g>
<!-- pandas_market_calendars&#45;&gt;src -->
<g id="edge44" class="edge">
<title>pandas_market_calendars&#45;&gt;src</title><style>.edge>path:hover{stroke-width:8}</style>
<path fill="none" stroke="black" d="M601.9,-215.73C593.57,-201.01 585.31,-179.65 594.5,-163"/>
</g>
<!-- prometheus_client -->
<g id="node15" class="node">
<title>prometheus_client</title><style>.edge>path:hover{stroke-width:8}</style>
<polygon fill="#33cccc" stroke="black" points="344.25,-180 341.25,-184 320.25,-184 317.25,-180 248.75,-180 248.75,-144 344.25,-144 344.25,-180"/>
<text xml:space="preserve" text-anchor="middle" x="296.5" y="-158.12" font-family="Helvetica,sans-Serif" font-size="10.00" fill="#000000">prometheus_client</text>
</g>
<!-- prometheus_client&#45;&gt;apex -->
<g id="edge45" class="edge">
<title>prometheus_client&#45;&gt;apex</title><style>.edge>path:hover{stroke-width:8}</style>
<path fill="none" stroke="black" d="M248.3,-146.31C183.34,-126.41 75.81,-93.13 76.5,-91"/>
</g>
<!-- prometheus_client&#45;&gt;src -->
<g id="edge46" class="edge">
<title>prometheus_client&#45;&gt;src</title><style>.edge>path:hover{stroke-width:8}</style>
<path fill="none" stroke="black" d="M344.5,-147.6C349.23,-146.35 353.95,-145.13 358.5,-144 427.8,-126.73 509.19,-109.01 556.02,-99.06"/>
<polygon fill="#33cccc" stroke="black" points="556.61,-102.52 565.67,-97.02 555.16,-95.67 556.61,-102.52"/>
</g>
<!-- pyarrow&#45;&gt;apex -->
<g id="edge47" class="edge">
<title>pyarrow&#45;&gt;apex</title><style>.edge>path:hover{stroke-width:8}</style>
<path fill="none" stroke="black" d="M156.89,-287.81C142.34,-268.74 116.98,-237.79 90.5,-216 54.65,-186.5 0.5,-209.42 0.5,-163"/>
</g>
<!-- pyarrow&#45;&gt;sklearn -->
<g id="edge49" class="edge">
<title>pyarrow&#45;&gt;sklearn</title><style>.edge>path:hover{stroke-width:8}</style>
<path fill="none" stroke="black" d="M196.76,-293.43C201.33,-291.57 206.03,-289.7 210.5,-288 256.22,-270.62 268.78,-269.38 314.5,-252 315.62,-251.58 316.75,-251.14 317.89,-250.7"/>
<polygon fill="blue" stroke="black" points="318.84,-254.08 326.84,-247.13 316.25,-247.58 318.84,-254.08"/>
</g>
<!-- pyarrow&#45;&gt;src -->
<g id="edge50" class="edge">
<title>pyarrow&#45;&gt;src</title><style>.edge>path:hover{stroke-width:8}</style>
<path fill="none" stroke="black" d="M196.8,-288.07C233.44,-264.99 300.09,-221.73 353.5,-180 362.43,-173.02 361.72,-166.5 372.5,-163"/>
</g>
<!-- pydantic -->
<g id="node17" class="node">
<title>pydantic</title><style>.edge>path:hover{stroke-width:8}</style>
<polygon fill="#3185c4" stroke="black" points="906.5,-180 903.5,-184 882.5,-184 879.5,-180 852.5,-180 852.5,-144 906.5,-144 906.5,-180"/>
<text xml:space="preserve" text-anchor="middle" x="879.5" y="-158.12" font-family="Helvetica,sans-Serif" font-size="10.00" fill="#ffffff">pydantic</text>
</g>
<!-- pydantic&#45;&gt;apex -->
<g id="edge51" class="edge">
<title>pydantic&#45;&gt;apex</title><style>.edge>path:hover{stroke-width:8}</style>
<path fill="none" stroke="black" d="M906.89,-147.58C944.73,-128.81 1008.22,-96.4 1006.5,-91"/>
</g>
<!-- pydantic&#45;&gt;src -->
<g id="edge52" class="edge">
<title>pydantic&#45;&gt;src</title><style>.edge>path:hover{stroke-width:8}</style>
<path fill="none" stroke="black" d="M852.4,-148.97C847.81,-147.16 843.06,-145.43 838.5,-144 767.42,-121.74 681.83,-105.48 633.23,-97.2"/>
<polygon fill="#3185c4" stroke="black" points="633.93,-93.77 623.49,-95.57 632.77,-100.67 633.93,-93.77"/>
</g>
<!-- pytest -->
<g id="node18" class="node">
<title>pytest</title><style>.edge>path:hover{stroke-width:8}</style>
<polygon fill="#2269e7" stroke="black" points="507.5,-612 504.5,-616 483.5,-616 480.5,-612 453.5,-612 453.5,-576 507.5,-576 507.5,-612"/>
<text xml:space="preserve" text-anchor="middle" x="480.5" y="-590.12" font-family="Helvetica,sans-Serif" font-size="10.00" fill="#ffffff">pytest</text>
</g>
<!-- pytest&#45;&gt;apex -->
<g id="edge53" class="edge">
<title>pytest&#45;&gt;apex</title><style>.edge>path:hover{stroke-width:8}</style>
<path fill="none" stroke="black" d="M148.5,-449C158.55,-414.66 -3.49,-198.56 0.5,-163"/>
<path fill="none" stroke="black" d="M76.5,-89C94.31,-32.6 287.48,-21.6 371.66,-19.48"/>
<polygon fill="#2269e7" stroke="black" points="371.58,-22.99 381.51,-19.27 371.43,-15.99 371.58,-22.99"/>
<path fill="none" stroke="black" d="M148.5,-521C141.39,-490.71 135.85,-479.42 148.5,-451"/>
<path fill="none" stroke="black" d="M453.01,-592.86C375.97,-591.7 162.6,-583.07 148.5,-523"/>
<path fill="none" stroke="black" d="M0.5,-161C3.47,-115.17 62.67,-134.79 76.5,-91"/>
</g>
<!-- pytest&#45;&gt;numpy -->
<g id="edge54" class="edge">
<title>pytest&#45;&gt;numpy</title><style>.edge>path:hover{stroke-width:8}</style>
<path fill="none" stroke="black" d="M507.83,-580.16C531.38,-569.09 565.63,-553.01 591.79,-540.72"/>
<polygon fill="#2269e7" stroke="black" points="593.16,-543.94 600.72,-536.52 590.18,-537.6 593.16,-543.94"/>
</g>
<!-- pytest&#45;&gt;pandas -->
<g id="edge55" class="edge">
<title>pytest&#45;&gt;pandas</title><style>.edge>path:hover{stroke-width:8}</style>
<path fill="none" stroke="black" d="M148.5,-449C171.19,-358.11 263.6,-425.53 352.5,-396 353.63,-395.62 354.78,-395.23 355.93,-394.82"/>
<polygon fill="#2269e7" stroke="black" points="356.82,-398.23 364.94,-391.43 354.35,-391.68 356.82,-398.23"/>
</g>
<!-- pytest&#45;&gt;scipy -->
<g id="edge56" class="edge">
<title>pytest&#45;&gt;scipy</title><style>.edge>path:hover{stroke-width:8}</style>
<path fill="none" stroke="black" d="M148.5,-521C141.54,-491.36 235.02,-468.55 289.95,-457.79"/>
<polygon fill="#2269e7" stroke="black" points="290.38,-461.27 299.55,-455.97 289.07,-454.4 290.38,-461.27"/>
</g>
<!-- pytest&#45;&gt;sklearn -->
<g id="edge57" class="edge">
<title>pytest&#45;&gt;sklearn</title><style>.edge>path:hover{stroke-width:8}</style>
<path fill="none" stroke="black" d="M224.5,-305C250.71,-278.34 289.25,-259.43 317.74,-248.04"/>
<polygon fill="#2269e7" stroke="black" points="318.64,-251.44 326.71,-244.58 316.12,-244.91 318.64,-251.44"/>
<path fill="none" stroke="black" d="M148.5,-449C165.83,-379.55 174.31,-358.04 224.5,-307"/>
</g>
<!-- pytz -->
<g id="node19" class="node">
<title>pytz</title><style>.edge>path:hover{stroke-width:8}</style>
<polygon fill="#0629f9" stroke="black" points="923.5,-468 920.5,-472 899.5,-472 896.5,-468 869.5,-468 869.5,-432 923.5,-432 923.5,-468"/>
<text xml:space="preserve" text-anchor="middle" x="896.5" y="-446.12" font-family="Helvetica,sans-Serif" font-size="10.00" fill="#ffffff">pytz</text>
</g>
<!-- pytz&#45;&gt;apex -->
<g id="edge58" class="edge">
<title>pytz&#45;&gt;apex</title><style>.edge>path:hover{stroke-width:8}</style>
<path fill="none" stroke="black" d="M1082.5,-233C1095.03,-204.53 1089.04,-193.41 1082.5,-163"/>
<path fill="none" stroke="black" d="M896.5,-305C918.66,-219.5 1046.91,-315.84 1082.5,-235"/>
</g>
<!-- pytz&#45;&gt;backtrader -->
<g id="edge59" class="edge">
<title>pytz&#45;&gt;backtrader</title><style>.edge>path:hover{stroke-width:8}</style>
<path fill="none" stroke="black" d="M896.5,-305C902.82,-266.07 795.91,-210.04 734.75,-181.4"/>
<polygon fill="#0629f9" stroke="black" points="736.55,-178.37 726,-177.34 733.6,-184.72 736.55,-178.37"/>
<path fill="none" stroke="black" d="M896.5,-377C887.56,-347.2 888.69,-337.12 896.5,-307"/>
</g>
<!-- pytz&#45;&gt;hypothesis -->
<g id="edge60" class="edge">
<title>pytz&#45;&gt;hypothesis</title><style>.edge>path:hover{stroke-width:8}</style>
<path fill="none" stroke="black" d="M911.33,-431.7C918.31,-423.56 926.77,-413.69 934.47,-404.7"/>
<polygon fill="#0629f9" stroke="black" points="937,-407.12 940.85,-397.25 931.69,-402.57 937,-407.12"/>
</g>
<!-- pytz&#45;&gt;pandas -->
<g id="edge61" class="edge">
<title>pytz&#45;&gt;pandas</title><style>.edge>path:hover{stroke-width:8}</style>
<path fill="none" stroke="black" d="M869.1,-445.19C784.97,-433.48 530.15,-398.02 432.32,-384.4"/>
<polygon fill="#0629f9" stroke="black" points="432.81,-380.94 422.42,-383.03 431.85,-387.87 432.81,-380.94"/>
</g>
<!-- pytz&#45;&gt;src -->
<g id="edge62" class="edge">
<title>pytz&#45;&gt;src</title><style>.edge>path:hover{stroke-width:8}</style>
<path fill="none" stroke="black" d="M896.5,-233C891.42,-223.06 832.91,-170.33 824.5,-163"/>
</g>
<!-- pytz&#45;&gt;vectorbt -->
<g id="edge63" class="edge">
<title>pytz&#45;&gt;vectorbt</title><style>.edge>path:hover{stroke-width:8}</style>
<path fill="none" stroke="black" d="M896.5,-233C891.89,-223.97 842.79,-198.58 807.02,-181"/>
<polygon fill="#0629f9" stroke="black" points="808.75,-177.96 798.23,-176.71 805.68,-184.25 808.75,-177.96"/>
<path fill="none" stroke="black" d="M896.5,-305C901.48,-274.29 910.65,-262.71 896.5,-235"/>
</g>
<!-- pytz&#45;&gt;yfinance -->
<g id="edge64" class="edge">
<title>pytz&#45;&gt;yfinance</title><style>.edge>path:hover{stroke-width:8}</style>
<path fill="none" stroke="black" d="M899.23,-431.63C900.85,-417.21 901.7,-396.34 896.5,-379"/>
<path fill="none" stroke="black" d="M896.5,-377C888.48,-350.28 862.12,-332.19 839.2,-321.1"/>
<polygon fill="#0629f9" stroke="black" points="840.92,-318.03 830.36,-317.11 838.04,-324.41 840.92,-318.03"/>
</g>
<!-- rich -->
<g id="node20" class="node">
<title>rich</title><style>.edge>path:hover{stroke-width:8}</style>
<polygon fill="#3326d9" stroke="black" points="978.5,-252 975.5,-256 954.5,-256 951.5,-252 924.5,-252 924.5,-216 978.5,-216 978.5,-252"/>
<text xml:space="preserve" text-anchor="middle" x="951.5" y="-230.12" font-family="Helvetica,sans-Serif" font-size="10.00" fill="#ffffff">rich</text>
</g>
<!-- rich&#45;&gt;apex -->
<g id="edge65" class="edge">
<title>rich&#45;&gt;apex</title><style>.edge>path:hover{stroke-width:8}</style>
<path fill="none" stroke="black" d="M966.29,-215.76C987.15,-189.27 1021.12,-136.84 1006.5,-91"/>
</g>
<!-- rich&#45;&gt;pydantic -->
<g id="edge66" class="edge">
<title>rich&#45;&gt;pydantic</title><style>.edge>path:hover{stroke-width:8}</style>
<path fill="none" stroke="black" d="M933.7,-215.7C925.22,-207.45 914.91,-197.43 905.57,-188.35"/>
<polygon fill="#3326d9" stroke="black" points="908.04,-185.86 898.43,-181.4 903.16,-190.88 908.04,-185.86"/>
</g>
<!-- textual -->
<g id="node25" class="node">
<title>textual</title><style>.edge>path:hover{stroke-width:8}</style>
<polygon fill="#c431af" stroke="black" points="978.5,-180 975.5,-184 954.5,-184 951.5,-180 924.5,-180 924.5,-144 978.5,-144 978.5,-180"/>
<text xml:space="preserve" text-anchor="middle" x="951.5" y="-158.12" font-family="Helvetica,sans-Serif" font-size="10.00" fill="#ffffff">textual</text>
</g>
<!-- rich&#45;&gt;textual -->
<g id="edge67" class="edge">
<title>rich&#45;&gt;textual</title><style>.edge>path:hover{stroke-width:8}</style>
<path fill="none" stroke="black" d="M951.5,-215.7C951.5,-208.41 951.5,-199.73 951.5,-191.54"/>
<polygon fill="#3326d9" stroke="black" points="955,-191.62 951.5,-181.62 948,-191.62 955,-191.62"/>
</g>
<!-- scipy&#45;&gt;apex -->
<g id="edge68" class="edge">
<title>scipy&#45;&gt;apex</title><style>.edge>path:hover{stroke-width:8}</style>
<path fill="none" stroke="black" d="M301.09,-434.13C282.2,-423.75 256.62,-409.39 234.5,-396 184.2,-365.55 166.65,-363.95 123.5,-324 90.46,-293.41 -1.93,-207.96 0.5,-163"/>
</g>
<!-- scipy&#45;&gt;optuna -->
<g id="edge69" class="edge">
<title>scipy&#45;&gt;optuna</title><style>.edge>path:hover{stroke-width:8}</style>
<path fill="none" stroke="black" d="M333.43,-431.77C336.89,-417.63 340.56,-397.05 338.5,-379"/>
<path fill="none" stroke="black" d="M338.5,-377C336.54,-359.78 325.74,-344.22 314.23,-332.16"/>
<polygon fill="#4205db" stroke="black" points="316.94,-329.92 307.33,-325.45 312.06,-334.93 316.94,-329.92"/>
</g>
<!-- scipy&#45;&gt;pandas -->
<g id="edge70" class="edge">
<title>scipy&#45;&gt;pandas</title><style>.edge>path:hover{stroke-width:8}</style>
<path fill="none" stroke="black" d="M344.57,-431.7C352.2,-423.47 361.48,-413.48 369.89,-404.42"/>
<polygon fill="#4205db" stroke="black" points="372.35,-406.92 376.59,-397.21 367.22,-402.16 372.35,-406.92"/>
</g>
<!-- scipy&#45;&gt;sklearn -->
<g id="edge71" class="edge">
<title>scipy&#45;&gt;sklearn</title><style>.edge>path:hover{stroke-width:8}</style>
<path fill="none" stroke="black" d="M338.5,-377C334.02,-337.71 341.69,-292.36 348.13,-263.68"/>
<polygon fill="#4205db" stroke="black" points="351.54,-264.49 350.43,-253.95 344.72,-262.88 351.54,-264.49"/>
</g>
<!-- scipy&#45;&gt;src -->
<g id="edge72" class="edge">
<title>scipy&#45;&gt;src</title><style>.edge>path:hover{stroke-width:8}</style>
<path fill="none" stroke="black" d="M315.03,-431.58C298.83,-411.7 269.87,-379.46 238.5,-360 196.57,-334 162.17,-364.14 133.5,-324 124.2,-310.98 125.67,-301.95 133.5,-288 186.81,-193.02 259.77,-235.5 353.5,-180 363.25,-174.23 361.71,-166.45 372.5,-163"/>
</g>
<!-- scipy&#45;&gt;vectorbt -->
<g id="edge73" class="edge">
<title>scipy&#45;&gt;vectorbt</title><style>.edge>path:hover{stroke-width:8}</style>
<path fill="none" stroke="black" d="M355.64,-435.01C358.58,-433.85 361.57,-432.81 364.5,-432 529.66,-386.17 614.11,-487.88 746.5,-379"/>
<path fill="none" stroke="black" d="M746.5,-377C795.25,-336.91 719.98,-293.16 744.5,-235"/>
</g>
<!-- scipy&#45;&gt;yfinance -->
<g id="edge74" class="edge">
<title>scipy&#45;&gt;yfinance</title><style>.edge>path:hover{stroke-width:8}</style>
<path fill="none" stroke="black" d="M746.5,-377C761.43,-364.72 774.91,-347.72 784.78,-333.55"/>
<polygon fill="#4205db" stroke="black" points="787.49,-335.79 790.17,-325.54 781.69,-331.88 787.49,-335.79"/>
</g>
<!-- sklearn&#45;&gt;apex -->
<g id="edge75" class="edge">
<title>sklearn&#45;&gt;apex</title><style>.edge>path:hover{stroke-width:8}</style>
<path fill="none" stroke="black" d="M328.32,-231.16C268.51,-226.53 128.22,-212.42 95.5,-180 66.77,-151.53 64.11,-129.5 76.5,-91"/>
</g>
<!-- sklearn&#45;&gt;src -->
<g id="edge76" class="edge">
<title>sklearn&#45;&gt;src</title><style>.edge>path:hover{stroke-width:8}</style>
<path fill="none" stroke="black" d="M594.5,-161C601.4,-148.49 601.96,-132.71 600.55,-119.3"/>
<polygon fill="blue" stroke="black" points="604.07,-119.14 599.14,-109.76 597.15,-120.17 604.07,-119.14"/>
<path fill="none" stroke="black" d="M382.58,-220.91C387.17,-219.11 391.93,-217.39 396.5,-216 483.64,-189.45 550.49,-242.76 594.5,-163"/>
</g>
<!-- sklearn&#45;&gt;vectorbt -->
<g id="edge77" class="edge">
<title>sklearn&#45;&gt;vectorbt</title><style>.edge>path:hover{stroke-width:8}</style>
<path fill="none" stroke="black" d="M382.92,-220.37C387.39,-218.68 392.02,-217.14 396.5,-216 538.89,-179.68 586.17,-218.73 731.27,-180.03"/>
<polygon fill="blue" stroke="black" points="732.18,-183.41 740.89,-177.38 730.32,-176.66 732.18,-183.41"/>
</g>
<!-- src&#45;&gt;apex -->
<g id="edge78" class="edge">
<title>src&#45;&gt;apex</title><style>.edge>path:hover{stroke-width:8}</style>
<path fill="none" stroke="black" d="M567.35,-78.67C535.82,-66.68 483.62,-46.82 448.18,-33.34"/>
<polygon fill="blue" stroke="black" points="449.77,-30.19 439.17,-29.91 447.28,-36.74 449.77,-30.19"/>
</g>
<!-- talib&#45;&gt;apex -->
<g id="edge79" class="edge">
<title>talib&#45;&gt;apex</title><style>.edge>path:hover{stroke-width:8}</style>
<path fill="none" stroke="black" d="M1006.5,-89C989.44,-35.52 578.68,-22.47 449.21,-19.69"/>
<polygon fill="blue" stroke="black" points="449.51,-16.19 439.44,-19.48 449.37,-23.19 449.51,-16.19"/>
<path fill="none" stroke="black" d="M530.82,-219.78C556.99,-207.02 594.5,-188.43 608.5,-180 619.7,-173.26 620.91,-169.05 632.5,-163"/>
<path fill="none" stroke="black" d="M632.5,-161C643.14,-155.44 642.51,-148.84 653.5,-144 726.1,-112.03 1030.6,-166.57 1006.5,-91"/>
</g>
<!-- talib&#45;&gt;backtrader -->
<g id="edge80" class="edge">
<title>talib&#45;&gt;backtrader</title><style>.edge>path:hover{stroke-width:8}</style>
<path fill="none" stroke="black" d="M530.87,-219.67C533.76,-218.38 536.68,-217.14 539.5,-216 586.04,-197.26 599.13,-196.53 646.5,-180 648.24,-179.39 650.03,-178.76 651.82,-178.13"/>
<polygon fill="blue" stroke="black" points="652.51,-181.6 660.76,-174.95 650.16,-175.01 652.51,-181.6"/>
</g>
<!-- talib&#45;&gt;src -->
<g id="edge81" class="edge">
<title>talib&#45;&gt;src</title><style>.edge>path:hover{stroke-width:8}</style>
<path fill="none" stroke="black" d="M530.81,-219.93C552.06,-208.19 580.25,-188.83 594.5,-163"/>
</g>
<!-- talib&#45;&gt;vectorbt -->
<g id="edge82" class="edge">
<title>talib&#45;&gt;vectorbt</title><style>.edge>path:hover{stroke-width:8}</style>
<path fill="none" stroke="black" d="M530.72,-219.26C533.64,-218.05 536.6,-216.93 539.5,-216 619.61,-190.13 647.79,-205.59 731.5,-180.15"/>
<polygon fill="blue" stroke="black" points="732.35,-183.55 740.83,-177.2 730.24,-176.87 732.35,-183.55"/>
</g>
<!-- textual&#45;&gt;apex -->
<g id="edge83" class="edge">
<title>textual&#45;&gt;apex</title><style>.edge>path:hover{stroke-width:8}</style>
<path fill="none" stroke="black" d="M978.83,-143.88C995.76,-130.89 1013.12,-111.76 1006.5,-91"/>
</g>
<!-- textual&#45;&gt;src -->
<g id="edge84" class="edge">
<title>textual&#45;&gt;src</title><style>.edge>path:hover{stroke-width:8}</style>
<path fill="none" stroke="black" d="M924.3,-147.2C921.37,-146 918.4,-144.91 915.5,-144 816.42,-113.09 694.19,-99.25 633.1,-93.9"/>
<polygon fill="#c431af" stroke="black" points="633.48,-90.42 623.22,-93.06 632.89,-97.39 633.48,-90.42"/>
</g>
<!-- vectorbt&#45;&gt;apex -->
<g id="edge85" class="edge">
<title>vectorbt&#45;&gt;apex</title><style>.edge>path:hover{stroke-width:8}</style>
<path fill="none" stroke="black" d="M796.66,-154.46C859.59,-139.12 1009.8,-101.35 1006.5,-91"/>
</g>
<!-- vectorbt&#45;&gt;src -->
<g id="edge86" class="edge">
<title>vectorbt&#45;&gt;src</title><style>.edge>path:hover{stroke-width:8}</style>
<path fill="none" stroke="black" d="M742.08,-147.79C739.2,-146.48 736.3,-145.19 733.5,-144 699.73,-129.61 660.61,-114.86 632.49,-104.59"/>
<polygon fill="blue" stroke="black" points="633.93,-101.39 623.34,-101.26 631.54,-107.97 633.93,-101.39"/>
</g>
<!-- yaml -->
<g id="node27" class="node">
<title>yaml</title><style>.edge>path:hover{stroke-width:8}</style>
<polygon fill="#f30c6f" stroke="black" points="656.5,-612 653.5,-616 632.5,-616 629.5,-612 602.5,-612 602.5,-576 656.5,-576 656.5,-612"/>
<text xml:space="preserve" text-anchor="middle" x="629.5" y="-590.12" font-family="Helvetica,sans-Serif" font-size="10.00" fill="#ffffff">yaml</text>
</g>
<!-- yaml&#45;&gt;apex -->
<g id="edge87" class="edge">
<title>yaml&#45;&gt;apex</title><style>.edge>path:hover{stroke-width:8}</style>
<path fill="none" stroke="black" d="M1192.5,-233C1186.68,-192.97 1200.68,-173.95 1173.5,-144 1121.17,-86.33 1029.93,-165.26 1006.5,-91"/>
</g>
<!-- yaml&#45;&gt;config -->
<g id="edge88" class="edge">
<title>yaml&#45;&gt;config</title><style>.edge>path:hover{stroke-width:8}</style>
<path fill="none" stroke="black" d="M1082.5,-521C1170.92,-417.42 1185.77,-371.02 1192.5,-235"/>
<path fill="none" stroke="black" d="M1192.5,-233C1190,-215.85 1179.14,-200.3 1167.73,-188.23"/>
<polygon fill="#f30c6f" stroke="black" points="1170.49,-186.04 1160.9,-181.52 1165.58,-191.02 1170.49,-186.04"/>
</g>
<!-- yaml&#45;&gt;numpy -->
<g id="edge89" class="edge">
<title>yaml&#45;&gt;numpy</title><style>.edge>path:hover{stroke-width:8}</style>
<path fill="none" stroke="black" d="M629.5,-575.7C629.5,-568.41 629.5,-559.73 629.5,-551.54"/>
<polygon fill="#f30c6f" stroke="black" points="633,-551.62 629.5,-541.62 626,-551.62 633,-551.62"/>
</g>
<!-- yaml&#45;&gt;scipy -->
<g id="edge90" class="edge">
<title>yaml&#45;&gt;scipy</title><style>.edge>path:hover{stroke-width:8}</style>
<path fill="none" stroke="black" d="M602.03,-580.05C555.64,-558.17 458.56,-512.39 366.01,-468.71"/>
<polygon fill="#f30c6f" stroke="black" points="367.53,-465.56 356.99,-464.46 364.54,-471.89 367.53,-465.56"/>
</g>
<!-- yaml&#45;&gt;src -->
<g id="edge91" class="edge">
<title>yaml&#45;&gt;src</title><style>.edge>path:hover{stroke-width:8}</style>
<path fill="none" stroke="black" d="M656.71,-592.95C745.38,-592.18 1023.64,-584.81 1082.5,-523"/>
<path fill="none" stroke="black" d="M1082.5,-521C1127.55,-473.69 1044.5,-444.33 1044.5,-379 1044.5,-379 1044.5,-379 1044.5,-233 1044.5,-186.03 1027.11,-169.25 987.5,-144 929.21,-106.84 720.56,-95.37 633.3,-92.15"/>
<polygon fill="#f30c6f" stroke="black" points="633.45,-88.65 623.33,-91.8 633.2,-95.65 633.45,-88.65"/>
</g>
<!-- yfinance&#45;&gt;apex -->
<g id="edge92" class="edge">
<title>yfinance&#45;&gt;apex</title><style>.edge>path:hover{stroke-width:8}</style>
<path fill="none" stroke="black" d="M828.8,-298.9C873.53,-288.62 960.18,-267.47 987.5,-252 1037.85,-223.49 1091.91,-220.09 1082.5,-163"/>
<path fill="none" stroke="black" d="M1082.5,-161C1072.84,-116.11 1020.32,-134.79 1006.5,-91"/>
</g>
<!-- yfinance&#45;&gt;src -->
<g id="edge93" class="edge">
<title>yfinance&#45;&gt;src</title><style>.edge>path:hover{stroke-width:8}</style>
<path fill="none" stroke="black" d="M824.5,-161C815.95,-153.56 815.51,-149.31 805.5,-144 749.88,-114.48 677.22,-100.93 633.3,-95.07"/>
<polygon fill="blue" stroke="black" points="633.84,-91.61 623.48,-93.84 632.96,-98.56 633.84,-91.61"/>
<path fill="none" stroke="black" d="M820.5,-233C819.6,-201.85 848,-183.47 824.5,-163"/>
</g>
<!-- yfinance&#45;&gt;vectorbt -->
<g id="edge94" class="edge">
<title>yfinance&#45;&gt;vectorbt</title><style>.edge>path:hover{stroke-width:8}</style>
<path fill="none" stroke="black" d="M809.3,-287.51C814.77,-273.56 821.03,-253.38 820.5,-235"/>
<path fill="none" stroke="black" d="M820.5,-233C820.02,-216.19 810.22,-200.7 799.34,-188.6"/>
<polygon fill="blue" stroke="black" points="801.89,-186.2 792.4,-181.49 796.88,-191.09 801.89,-186.2"/>
</g>
</g>
</svg>
