<?xml version="1.0" encoding="UTF-8" standalone="no"?>
<!DOCTYPE svg PUBLIC "-//W3C//DTD SVG 1.1//EN"
 "http://www.w3.org/Graphics/SVG/1.1/DTD/svg11.dtd">
<!-- Generated by graphviz version 14.1.1 (20251213.1925)
 -->
<!-- Title: G Pages: 1 -->
<svg width="1360pt" height="2944pt"
 viewBox="0.00 0.00 1360.00 2944.00" xmlns="http://www.w3.org/2000/svg" xmlns:xlink="http://www.w3.org/1999/xlink">
<g id="graph0" class="graph" transform="scale(1 1) rotate(0) translate(4 2940.25)">
<title>G</title>
<polygon fill="white" stroke="none" points="-4,4 -4,-2940.25 1355.5,-2940.25 1355.5,4 -4,4"/>
<g id="clust2" class="cluster">
<title>cluster_65f47b63</title>
<polygon fill="none" stroke="black" stroke-dasharray="1,5" points="84,-124.25 84,-201.25 182,-201.25 182,-124.25 84,-124.25"/>
<text xml:space="preserve" text-anchor="middle" x="133" y="-183.95" font-family="Times,serif" font-size="14.00">File: __init__</text>
</g>
<g id="clust3" class="cluster">
<title>cluster_66b813bd</title>
<polygon fill="none" stroke="black" stroke-dasharray="1,5" points="84,-209.25 84,-286.25 182,-286.25 182,-209.25 84,-209.25"/>
<text xml:space="preserve" text-anchor="middle" x="133" y="-268.95" font-family="Times,serif" font-size="14.00">File: __init__</text>
</g>
<g id="clust4" class="cluster">
<title>cluster_2789f0d5</title>
<polygon fill="none" stroke="black" stroke-dasharray="1,5" points="1105.38,-1130.25 1105.38,-1454.25 1294.38,-1454.25 1294.38,-1130.25 1105.38,-1130.25"/>
<text xml:space="preserve" text-anchor="middle" x="1199.88" y="-1436.95" font-family="Times,serif" font-size="14.00">File: bar_preloader</text>
</g>
<g id="clust5" class="cluster">
<title>cluster_990853b1</title>
<polygon fill="none" stroke="black" stroke-dasharray="1,5" points="1113.38,-1138.25 1113.38,-1377.25 1286.38,-1377.25 1286.38,-1138.25 1113.38,-1138.25"/>
<text xml:space="preserve" text-anchor="middle" x="1199.88" y="-1359.95" font-family="Times,serif" font-size="14.00">Class: BarPreloader</text>
</g>
<g id="clust6" class="cluster">
<title>cluster_23d2ea00</title>
<polygon fill="none" stroke="black" stroke-dasharray="1,5" points="563.75,-744.25 563.75,-1122.25 1343.5,-1122.25 1343.5,-744.25 563.75,-744.25"/>
<text xml:space="preserve" text-anchor="middle" x="953.62" y="-1104.95" font-family="Times,serif" font-size="14.00">File: data_coordinator</text>
</g>
<g id="clust7" class="cluster">
<title>cluster_2acf8408</title>
<polygon fill="none" stroke="black" stroke-dasharray="1,5" points="571.75,-752.25 571.75,-1045.25 1335.5,-1045.25 1335.5,-752.25 571.75,-752.25"/>
<text xml:space="preserve" text-anchor="middle" x="953.62" y="-1027.95" font-family="Times,serif" font-size="14.00">Class: DataCoordinator</text>
</g>
<g id="clust8" class="cluster">
<title>cluster_4eaaba60</title>
<polygon fill="none" stroke="black" stroke-dasharray="1,5" points="13,-1130.25 13,-2156.25 782.75,-2156.25 782.75,-1130.25 13,-1130.25"/>
<text xml:space="preserve" text-anchor="middle" x="397.88" y="-2138.95" font-family="Times,serif" font-size="14.00">File: orchestrator</text>
</g>
<g id="clust9" class="cluster">
<title>cluster_d345115e</title>
<polygon fill="none" stroke="black" stroke-dasharray="1,5" points="21,-1138.25 21,-2079.25 774.75,-2079.25 774.75,-1138.25 21,-1138.25"/>
<text xml:space="preserve" text-anchor="middle" x="397.88" y="-2061.95" font-family="Times,serif" font-size="14.00">Class: Orchestrator</text>
</g>
<g id="clust10" class="cluster">
<title>cluster_67964c97</title>
<polygon fill="none" stroke="black" stroke-dasharray="1,5" points="29.25,-294.25 29.25,-736.25 794.38,-736.25 794.38,-294.25 29.25,-294.25"/>
<text xml:space="preserve" text-anchor="middle" x="411.81" y="-718.95" font-family="Times,serif" font-size="14.00">File: shutdown</text>
</g>
<g id="clust11" class="cluster">
<title>cluster_ea9a16dd</title>
<polygon fill="none" stroke="black" stroke-dasharray="1,5" points="319.12,-302.25 319.12,-703.25 786.38,-703.25 786.38,-302.25 319.12,-302.25"/>
<text xml:space="preserve" text-anchor="middle" x="552.75" y="-685.95" font-family="Times,serif" font-size="14.00">Class: ShutdownCoordinator</text>
</g>
<g id="clust12" class="cluster">
<title>cluster_615107a8</title>
<polygon fill="none" stroke="black" stroke-dasharray="1,5" points="823.5,-1462.25 823.5,-2416.25 1297,-2416.25 1297,-1462.25 823.5,-1462.25"/>
<text xml:space="preserve" text-anchor="middle" x="1060.25" y="-2398.95" font-family="Times,serif" font-size="14.00">File: signal_coordinator</text>
</g>
<g id="clust13" class="cluster">
<title>cluster_6fb70ebb</title>
<polygon fill="none" stroke="black" stroke-dasharray="1,5" points="831.5,-1470.25 831.5,-2339.25 1289,-2339.25 1289,-1470.25 831.5,-1470.25"/>
<text xml:space="preserve" text-anchor="middle" x="1060.25" y="-2321.95" font-family="Times,serif" font-size="14.00">Class: SignalCoordinator</text>
</g>
<g id="clust14" class="cluster">
<title>cluster_61e6be98</title>
<polygon fill="none" stroke="black" stroke-dasharray="1,5" points="319,-2424.25 319,-2928.25 1316.88,-2928.25 1316.88,-2424.25 319,-2424.25"/>
<text xml:space="preserve" text-anchor="middle" x="817.94" y="-2910.95" font-family="Times,serif" font-size="14.00">File: snapshot_coordinator</text>
</g>
<g id="clust15" class="cluster">
<title>cluster_f7876a4b</title>
<polygon fill="none" stroke="black" stroke-dasharray="1,5" points="327,-2432.25 327,-2851.25 1308.88,-2851.25 1308.88,-2432.25 327,-2432.25"/>
<text xml:space="preserve" text-anchor="middle" x="817.94" y="-2833.95" font-family="Times,serif" font-size="14.00">Class: SnapshotCoordinator</text>
</g>
<!-- Legend -->
<g id="node1" class="node">
<title>Legend</title>
<polygon fill="none" stroke="black" points="1,-95 1,-113.5 265,-113.5 265,-95 1,-95"/>
<text xml:space="preserve" text-anchor="start" x="80.88" y="-99.2" font-family="Times,serif" font-size="14.00">Code2flow Legend</text>
<polygon fill="none" stroke="black" points="1,-1 1,-95 265,-95 265,-1 1,-1"/>
<polygon fill="none" stroke="black" points="3,-70.5 3,-93 213,-93 213,-70.5 3,-70.5"/>
<text xml:space="preserve" text-anchor="start" x="62.25" y="-76.7" font-family="Times,serif" font-size="14.00">Regular function</text>
<polygon fill="#cccccc" stroke="none" points="213,-70.5 213,-93 263,-93 263,-70.5 213,-70.5"/>
<polygon fill="none" stroke="black" points="213,-70.5 213,-93 263,-93 263,-70.5 213,-70.5"/>
<polygon fill="none" stroke="black" points="3,-48 3,-70.5 213,-70.5 213,-48 3,-48"/>
<text xml:space="preserve" text-anchor="start" x="14.25" y="-54.2" font-family="Times,serif" font-size="14.00">Trunk function (nothing calls this)</text>
<polygon fill="#966f33" stroke="none" points="213,-48 213,-70.5 263,-70.5 263,-48 213,-48"/>
<polygon fill="none" stroke="black" points="213,-48 213,-70.5 263,-70.5 263,-48 213,-48"/>
<polygon fill="none" stroke="black" points="3,-25.5 3,-48 213,-48 213,-25.5 3,-25.5"/>
<text xml:space="preserve" text-anchor="start" x="6" y="-31.7" font-family="Times,serif" font-size="14.00">Leaf function (this calls nothing else)</text>
<polygon fill="#6db33f" stroke="none" points="213,-25.5 213,-48 263,-48 263,-25.5 213,-25.5"/>
<polygon fill="none" stroke="black" points="213,-25.5 213,-48 263,-48 263,-25.5 213,-25.5"/>
<polygon fill="none" stroke="black" points="3,-3 3,-25.5 213,-25.5 213,-3 3,-3"/>
<text xml:space="preserve" text-anchor="start" x="72.38" y="-9.2" font-family="Times,serif" font-size="14.00">Function call</text>
<polygon fill="none" stroke="black" points="213,-3 213,-25.5 263,-25.5 263,-3 213,-3"/>
<text xml:space="preserve" text-anchor="start" x="230.88" y="-9.2" font-family="Times,serif" font-size="14.00">→</text>
<polygon fill="none" stroke="black" points="2,-2 2,-94 264,-94 264,-2 2,-2"/>
<polygon fill="none" stroke="black" points="0,0 0,-114.5 266,-114.5 266,0 0,0"/>
</g>
<!-- node_6a96375f -->
<g id="node2" class="node">
<title>node_6a96375f</title>
<path fill="#966f33" stroke="black" d="M162,-168.25C162,-168.25 104,-168.25 104,-168.25 98,-168.25 92,-162.25 92,-156.25 92,-156.25 92,-144.25 92,-144.25 92,-138.25 98,-132.25 104,-132.25 104,-132.25 162,-132.25 162,-132.25 168,-132.25 174,-138.25 174,-144.25 174,-144.25 174,-156.25 174,-156.25 174,-162.25 168,-168.25 162,-168.25"/>
<text xml:space="preserve" text-anchor="middle" x="133" y="-145.2" font-family="Times,serif" font-size="14.00">0: (global)()</text>
</g>
<!-- node_21867a53 -->
<g id="node3" class="node">
<title>node_21867a53</title>
<path fill="#966f33" stroke="black" d="M162,-253.25C162,-253.25 104,-253.25 104,-253.25 98,-253.25 92,-247.25 92,-241.25 92,-241.25 92,-229.25 92,-229.25 92,-223.25 98,-217.25 104,-217.25 104,-217.25 162,-217.25 162,-217.25 168,-217.25 174,-223.25 174,-229.25 174,-229.25 174,-241.25 174,-241.25 174,-247.25 168,-253.25 162,-253.25"/>
<text xml:space="preserve" text-anchor="middle" x="133" y="-230.2" font-family="Times,serif" font-size="14.00">0: (global)()</text>
</g>
<!-- node_528bf151 -->
<g id="node4" class="node">
<title>node_528bf151</title>
<path fill="#966f33" stroke="black" d="M1228.88,-1421.25C1228.88,-1421.25 1170.88,-1421.25 1170.88,-1421.25 1164.88,-1421.25 1158.88,-1415.25 1158.88,-1409.25 1158.88,-1409.25 1158.88,-1397.25 1158.88,-1397.25 1158.88,-1391.25 1164.88,-1385.25 1170.88,-1385.25 1170.88,-1385.25 1228.88,-1385.25 1228.88,-1385.25 1234.88,-1385.25 1240.88,-1391.25 1240.88,-1397.25 1240.88,-1397.25 1240.88,-1409.25 1240.88,-1409.25 1240.88,-1415.25 1234.88,-1421.25 1228.88,-1421.25"/>
<text xml:space="preserve" text-anchor="middle" x="1199.88" y="-1398.2" font-family="Times,serif" font-size="14.00">0: (global)()</text>
</g>
<!-- node_c7a11452 -->
<g id="node5" class="node">
<title>node_c7a11452</title>
<path fill="#6db33f" stroke="black" d="M1233.38,-1182.25C1233.38,-1182.25 1166.38,-1182.25 1166.38,-1182.25 1160.38,-1182.25 1154.38,-1176.25 1154.38,-1170.25 1154.38,-1170.25 1154.38,-1158.25 1154.38,-1158.25 1154.38,-1152.25 1160.38,-1146.25 1166.38,-1146.25 1166.38,-1146.25 1233.38,-1146.25 1233.38,-1146.25 1239.38,-1146.25 1245.38,-1152.25 1245.38,-1158.25 1245.38,-1158.25 1245.38,-1170.25 1245.38,-1170.25 1245.38,-1176.25 1239.38,-1182.25 1233.38,-1182.25"/>
<text xml:space="preserve" text-anchor="middle" x="1199.88" y="-1159.2" font-family="Times,serif" font-size="14.00">50: __init__()</text>
</g>
<!-- node_7467de29 -->
<g id="node6" class="node">
<title>node_7467de29</title>
<path fill="#966f33" stroke="black" d="M1261.12,-1236.25C1261.12,-1236.25 1138.62,-1236.25 1138.62,-1236.25 1132.62,-1236.25 1126.62,-1230.25 1126.62,-1224.25 1126.62,-1224.25 1126.62,-1212.25 1126.62,-1212.25 1126.62,-1206.25 1132.62,-1200.25 1138.62,-1200.25 1138.62,-1200.25 1261.12,-1200.25 1261.12,-1200.25 1267.12,-1200.25 1273.12,-1206.25 1273.12,-1212.25 1273.12,-1212.25 1273.12,-1224.25 1273.12,-1224.25 1273.12,-1230.25 1267.12,-1236.25 1261.12,-1236.25"/>
<text xml:space="preserve" text-anchor="middle" x="1199.88" y="-1213.2" font-family="Times,serif" font-size="14.00">80: last_cache_refresh()</text>
</g>
<!-- node_b31261e0 -->
<g id="node7" class="node">
<title>node_b31261e0</title>
<path fill="#6db33f" stroke="black" d="M1252.88,-1290.25C1252.88,-1290.25 1146.88,-1290.25 1146.88,-1290.25 1140.88,-1290.25 1134.88,-1284.25 1134.88,-1278.25 1134.88,-1278.25 1134.88,-1266.25 1134.88,-1266.25 1134.88,-1260.25 1140.88,-1254.25 1146.88,-1254.25 1146.88,-1254.25 1252.88,-1254.25 1252.88,-1254.25 1258.88,-1254.25 1264.88,-1260.25 1264.88,-1266.25 1264.88,-1266.25 1264.88,-1278.25 1264.88,-1278.25 1264.88,-1284.25 1258.88,-1290.25 1252.88,-1290.25"/>
<text xml:space="preserve" text-anchor="middle" x="1199.88" y="-1267.2" font-family="Times,serif" font-size="14.00">84: preload_startup()</text>
</g>
<!-- node_0526acb4 -->
<g id="node8" class="node">
<title>node_0526acb4</title>
<path fill="#966f33" stroke="black" d="M1266.38,-1344.25C1266.38,-1344.25 1133.38,-1344.25 1133.38,-1344.25 1127.38,-1344.25 1121.38,-1338.25 1121.38,-1332.25 1121.38,-1332.25 1121.38,-1320.25 1121.38,-1320.25 1121.38,-1314.25 1127.38,-1308.25 1133.38,-1308.25 1133.38,-1308.25 1266.38,-1308.25 1266.38,-1308.25 1272.38,-1308.25 1278.38,-1314.25 1278.38,-1320.25 1278.38,-1320.25 1278.38,-1332.25 1278.38,-1332.25 1278.38,-1338.25 1272.38,-1344.25 1266.38,-1344.25"/>
<text xml:space="preserve" text-anchor="middle" x="1199.88" y="-1321.2" font-family="Times,serif" font-size="14.00">222: refresh_disk_cache()</text>
</g>
<!-- node_f1cb3db5 -->
<g id="node9" class="node">
<title>node_f1cb3db5</title>
<path fill="#966f33" stroke="black" d="M709.38,-1089.25C709.38,-1089.25 651.38,-1089.25 651.38,-1089.25 645.38,-1089.25 639.38,-1083.25 639.38,-1077.25 639.38,-1077.25 639.38,-1065.25 639.38,-1065.25 639.38,-1059.25 645.38,-1053.25 651.38,-1053.25 651.38,-1053.25 709.38,-1053.25 709.38,-1053.25 715.38,-1053.25 721.38,-1059.25 721.38,-1065.25 721.38,-1065.25 721.38,-1077.25 721.38,-1077.25 721.38,-1083.25 715.38,-1089.25 709.38,-1089.25"/>
<text xml:space="preserve" text-anchor="middle" x="680.38" y="-1066.2" font-family="Times,serif" font-size="14.00">0: (global)()</text>
</g>
<!-- node_c5a7047c -->
<g id="node10" class="node">
<title>node_c5a7047c</title>
<path fill="#6db33f" stroke="black" d="M713.88,-796.25C713.88,-796.25 646.88,-796.25 646.88,-796.25 640.88,-796.25 634.88,-790.25 634.88,-784.25 634.88,-784.25 634.88,-772.25 634.88,-772.25 634.88,-766.25 640.88,-760.25 646.88,-760.25 646.88,-760.25 713.88,-760.25 713.88,-760.25 719.88,-760.25 725.88,-766.25 725.88,-772.25 725.88,-772.25 725.88,-784.25 725.88,-784.25 725.88,-790.25 719.88,-796.25 713.88,-796.25"/>
<text xml:space="preserve" text-anchor="middle" x="680.38" y="-773.2" font-family="Times,serif" font-size="14.00">49: __init__()</text>
</g>
<!-- node_f75deace -->
<g id="node11" class="node">
<title>node_f75deace</title>
<path fill="#6db33f" stroke="black" d="M1009.25,-904.25C1009.25,-904.25 844,-904.25 844,-904.25 838,-904.25 832,-898.25 832,-892.25 832,-892.25 832,-880.25 832,-880.25 832,-874.25 838,-868.25 844,-868.25 844,-868.25 1009.25,-868.25 1009.25,-868.25 1015.25,-868.25 1021.25,-874.25 1021.25,-880.25 1021.25,-880.25 1021.25,-892.25 1021.25,-892.25 1021.25,-898.25 1015.25,-904.25 1009.25,-904.25"/>
<text xml:space="preserve" text-anchor="middle" x="926.62" y="-881.2" font-family="Times,serif" font-size="14.00">173: _aggregate_account_info()</text>
</g>
<!-- node_1dadf939 -->
<g id="node12" class="node">
<title>node_1dadf939</title>
<path fill="#966f33" stroke="black" d="M765.25,-850.25C765.25,-850.25 595.5,-850.25 595.5,-850.25 589.5,-850.25 583.5,-844.25 583.5,-838.25 583.5,-838.25 583.5,-826.25 583.5,-826.25 583.5,-820.25 589.5,-814.25 595.5,-814.25 595.5,-814.25 765.25,-814.25 765.25,-814.25 771.25,-814.25 777.25,-820.25 777.25,-826.25 777.25,-826.25 777.25,-838.25 777.25,-838.25 777.25,-844.25 771.25,-850.25 765.25,-850.25"/>
<text xml:space="preserve" text-anchor="middle" x="680.38" y="-827.2" font-family="Times,serif" font-size="14.00">329: _handle_mdqc_validation()</text>
</g>
<!-- node_fc3be3f1 -->
<g id="node13" class="node">
<title>node_fc3be3f1</title>
<path fill="#6db33f" stroke="black" d="M996.88,-958.25C996.88,-958.25 856.38,-958.25 856.38,-958.25 850.38,-958.25 844.38,-952.25 844.38,-946.25 844.38,-946.25 844.38,-934.25 844.38,-934.25 844.38,-928.25 850.38,-922.25 856.38,-922.25 856.38,-922.25 996.88,-922.25 996.88,-922.25 1002.88,-922.25 1008.88,-928.25 1008.88,-934.25 1008.88,-934.25 1008.88,-946.25 1008.88,-946.25 1008.88,-952.25 1002.88,-958.25 996.88,-958.25"/>
<text xml:space="preserve" text-anchor="middle" x="926.62" y="-935.2" font-family="Times,serif" font-size="14.00">152: _reconcile_positions()</text>
</g>
<!-- node_e95ca9a2 -->
<g id="node14" class="node">
<title>node_e95ca9a2</title>
<path fill="#cccccc" stroke="black" d="M1007,-1012.25C1007,-1012.25 846.25,-1012.25 846.25,-1012.25 840.25,-1012.25 834.25,-1006.25 834.25,-1000.25 834.25,-1000.25 834.25,-988.25 834.25,-988.25 834.25,-982.25 840.25,-976.25 846.25,-976.25 846.25,-976.25 1007,-976.25 1007,-976.25 1013,-976.25 1019,-982.25 1019,-988.25 1019,-988.25 1019,-1000.25 1019,-1000.25 1019,-1006.25 1013,-1012.25 1007,-1012.25"/>
<text xml:space="preserve" text-anchor="middle" x="926.62" y="-989.2" font-family="Times,serif" font-size="14.00">225: _subscribe_market_data()</text>
</g>
<!-- node_f474b6a8 -->
<g id="node15" class="node">
<title>node_f474b6a8</title>
<path fill="#6db33f" stroke="black" d="M1315.5,-1012.25C1315.5,-1012.25 1084.25,-1012.25 1084.25,-1012.25 1078.25,-1012.25 1072.25,-1006.25 1072.25,-1000.25 1072.25,-1000.25 1072.25,-988.25 1072.25,-988.25 1072.25,-982.25 1078.25,-976.25 1084.25,-976.25 1084.25,-976.25 1315.5,-976.25 1315.5,-976.25 1321.5,-976.25 1327.5,-982.25 1327.5,-988.25 1327.5,-988.25 1327.5,-1000.25 1327.5,-1000.25 1327.5,-1006.25 1321.5,-1012.25 1315.5,-1012.25"/>
<text xml:space="preserve" text-anchor="middle" x="1199.88" y="-989.2" font-family="Times,serif" font-size="14.00">244: _subscribe_market_data_background()</text>
</g>
<!-- node_e95ca9a2&#45;&gt;node_f474b6a8 -->
<g id="edge1" class="edge">
<title>node_e95ca9a2&#45;&gt;node_f474b6a8</title>
<path fill="none" stroke="#56b4e9" stroke-width="2" d="M1019.13,-994.25C1019.13,-994.25 1059.05,-994.25 1059.05,-994.25"/>
<polygon fill="#56b4e9" stroke="#56b4e9" stroke-width="2" points="1059.05,-997.75 1069.05,-994.25 1059.05,-990.75 1059.05,-997.75"/>
</g>
<!-- node_d14a31d3 -->
<g id="node16" class="node">
<title>node_d14a31d3</title>
<path fill="#6db33f" stroke="black" d="M715.75,-904.25C715.75,-904.25 645,-904.25 645,-904.25 639,-904.25 633,-898.25 633,-892.25 633,-892.25 633,-880.25 633,-880.25 633,-874.25 639,-868.25 645,-868.25 645,-868.25 715.75,-868.25 715.75,-868.25 721.75,-868.25 727.75,-874.25 727.75,-880.25 727.75,-880.25 727.75,-892.25 727.75,-892.25 727.75,-898.25 721.75,-904.25 715.75,-904.25"/>
<text xml:space="preserve" text-anchor="middle" x="680.38" y="-881.2" font-family="Times,serif" font-size="14.00">321: cleanup()</text>
</g>
<!-- node_c00e18f2 -->
<g id="node17" class="node">
<title>node_c00e18f2</title>
<path fill="#966f33" stroke="black" d="M769,-958.25C769,-958.25 591.75,-958.25 591.75,-958.25 585.75,-958.25 579.75,-952.25 579.75,-946.25 579.75,-946.25 579.75,-934.25 579.75,-934.25 579.75,-928.25 585.75,-922.25 591.75,-922.25 591.75,-922.25 769,-922.25 769,-922.25 775,-922.25 781,-928.25 781,-934.25 781,-934.25 781,-946.25 781,-946.25 781,-952.25 775,-958.25 769,-958.25"/>
<text xml:space="preserve" text-anchor="middle" x="680.38" y="-935.2" font-family="Times,serif" font-size="14.00">298: fetch_account_info_cached()</text>
</g>
<!-- node_c00e18f2&#45;&gt;node_f75deace -->
<g id="edge2" class="edge">
<title>node_c00e18f2&#45;&gt;node_f75deace</title>
<path fill="none" stroke="#56b4e9" stroke-width="2" d="M781.15,-934.25C812.73,-934.25 839.5,-934.25 839.5,-934.25 839.5,-934.25 839.5,-917.7 839.5,-917.7"/>
<polygon fill="#56b4e9" stroke="#56b4e9" stroke-width="2" points="843,-917.7 839.5,-907.7 836,-917.7 843,-917.7"/>
</g>
<!-- node_686c289c -->
<g id="node18" class="node">
<title>node_686c289c</title>
<path fill="#cccccc" stroke="black" d="M746.12,-1012.25C746.12,-1012.25 614.62,-1012.25 614.62,-1012.25 608.62,-1012.25 602.62,-1006.25 602.62,-1000.25 602.62,-1000.25 602.62,-988.25 602.62,-988.25 602.62,-982.25 608.62,-976.25 614.62,-976.25 614.62,-976.25 746.12,-976.25 746.12,-976.25 752.12,-976.25 758.12,-982.25 758.12,-988.25 758.12,-988.25 758.12,-1000.25 758.12,-1000.25 758.12,-1006.25 752.12,-1012.25 746.12,-1012.25"/>
<text xml:space="preserve" text-anchor="middle" x="680.38" y="-989.2" font-family="Times,serif" font-size="14.00">89: fetch_and_reconcile()</text>
</g>
<!-- node_686c289c&#45;&gt;node_f75deace -->
<g id="edge3" class="edge">
<title>node_686c289c&#45;&gt;node_f75deace</title>
<path fill="none" stroke="#f0e442" stroke-width="2" d="M758.34,-985.25C792.3,-985.25 824.5,-985.25 824.5,-985.25 824.5,-985.25 824.5,-886.25 824.5,-886.25 824.5,-886.25 825.2,-886.25 825.2,-886.25"/>
<polygon fill="#f0e442" stroke="#f0e442" stroke-width="2" points="818.49,-889.75 828.49,-886.25 818.49,-882.75 818.49,-889.75"/>
</g>
<!-- node_686c289c&#45;&gt;node_fc3be3f1 -->
<g id="edge4" class="edge">
<title>node_686c289c&#45;&gt;node_fc3be3f1</title>
<path fill="none" stroke="#f0e442" stroke-width="2" d="M758.34,-994.25C794.03,-994.25 828.5,-994.25 828.5,-994.25 828.5,-994.25 828.5,-946.25 828.5,-946.25 828.5,-946.25 831.24,-946.25 831.24,-946.25"/>
<polygon fill="#f0e442" stroke="#f0e442" stroke-width="2" points="831.24,-949.75 841.24,-946.25 831.24,-942.75 831.24,-949.75"/>
</g>
<!-- node_686c289c&#45;&gt;node_e95ca9a2 -->
<g id="edge5" class="edge">
<title>node_686c289c&#45;&gt;node_e95ca9a2</title>
<path fill="none" stroke="#f0e442" stroke-width="2" d="M758.29,-1003.25C758.29,-1003.25 821.12,-1003.25 821.12,-1003.25"/>
<polygon fill="#f0e442" stroke="#f0e442" stroke-width="2" points="821.12,-1006.75 831.12,-1003.25 821.12,-999.75 821.12,-1006.75"/>
</g>
<!-- node_9e9deb07 -->
<g id="node19" class="node">
<title>node_9e9deb07</title>
<path fill="#966f33" stroke="black" d="M162,-2123.25C162,-2123.25 104,-2123.25 104,-2123.25 98,-2123.25 92,-2117.25 92,-2111.25 92,-2111.25 92,-2099.25 92,-2099.25 92,-2093.25 98,-2087.25 104,-2087.25 104,-2087.25 162,-2087.25 162,-2087.25 168,-2087.25 174,-2093.25 174,-2099.25 174,-2099.25 174,-2111.25 174,-2111.25 174,-2117.25 168,-2123.25 162,-2123.25"/>
<text xml:space="preserve" text-anchor="middle" x="133" y="-2100.2" font-family="Times,serif" font-size="14.00">0: (global)()</text>
</g>
<!-- node_6dea468b -->
<g id="node20" class="node">
<title>node_6dea468b</title>
<path fill="#966f33" stroke="black" d="M166.5,-1974.25C166.5,-1974.25 99.5,-1974.25 99.5,-1974.25 93.5,-1974.25 87.5,-1968.25 87.5,-1962.25 87.5,-1962.25 87.5,-1950.25 87.5,-1950.25 87.5,-1944.25 93.5,-1938.25 99.5,-1938.25 99.5,-1938.25 166.5,-1938.25 166.5,-1938.25 172.5,-1938.25 178.5,-1944.25 178.5,-1950.25 178.5,-1950.25 178.5,-1962.25 178.5,-1962.25 178.5,-1968.25 172.5,-1974.25 166.5,-1974.25"/>
<text xml:space="preserve" text-anchor="middle" x="133" y="-1951.2" font-family="Times,serif" font-size="14.00">58: __init__()</text>
</g>
<!-- node_6dea468b&#45;&gt;node_c5a7047c -->
<g id="edge6" class="edge">
<title>node_6dea468b&#45;&gt;node_c5a7047c</title>
<path fill="none" stroke="#009e73" stroke-width="2" d="M178.82,-1951.25C212.16,-1951.25 251.5,-1951.25 251.5,-1951.25 251.5,-1951.25 251.5,-778.25 251.5,-778.25 251.5,-778.25 621.45,-778.25 621.45,-778.25"/>
<polygon fill="#009e73" stroke="#009e73" stroke-width="2" points="621.45,-781.75 631.45,-778.25 621.45,-774.75 621.45,-781.75"/>
</g>
<!-- node_7bca12bc -->
<g id="node53" class="node">
<title>node_7bca12bc</title>
<path fill="#6db33f" stroke="black" d="M960.12,-2018.25C960.12,-2018.25 893.12,-2018.25 893.12,-2018.25 887.12,-2018.25 881.12,-2012.25 881.12,-2006.25 881.12,-2006.25 881.12,-1994.25 881.12,-1994.25 881.12,-1988.25 887.12,-1982.25 893.12,-1982.25 893.12,-1982.25 960.12,-1982.25 960.12,-1982.25 966.12,-1982.25 972.12,-1988.25 972.12,-1994.25 972.12,-1994.25 972.12,-2006.25 972.12,-2006.25 972.12,-2012.25 966.12,-2018.25 960.12,-2018.25"/>
<text xml:space="preserve" text-anchor="middle" x="926.62" y="-1995.2" font-family="Times,serif" font-size="14.00">57: __init__()</text>
</g>
<!-- node_6dea468b&#45;&gt;node_7bca12bc -->
<g id="edge7" class="edge">
<title>node_6dea468b&#45;&gt;node_7bca12bc</title>
<path fill="none" stroke="#009e73" stroke-width="2" d="M178.8,-1967.58C347.78,-1967.58 926.5,-1967.58 926.5,-1967.58 926.5,-1967.58 926.5,-1969.03 926.5,-1969.03"/>
<polygon fill="#009e73" stroke="#009e73" stroke-width="2" points="923,-1968.98 926.5,-1978.98 930,-1968.98 923,-1968.98"/>
</g>
<!-- node_3c3fcb79 -->
<g id="node70" class="node">
<title>node_3c3fcb79</title>
<path fill="#6db33f" stroke="black" d="M456.38,-2476.25C456.38,-2476.25 389.38,-2476.25 389.38,-2476.25 383.38,-2476.25 377.38,-2470.25 377.38,-2464.25 377.38,-2464.25 377.38,-2452.25 377.38,-2452.25 377.38,-2446.25 383.38,-2440.25 389.38,-2440.25 389.38,-2440.25 456.38,-2440.25 456.38,-2440.25 462.38,-2440.25 468.38,-2446.25 468.38,-2452.25 468.38,-2452.25 468.38,-2464.25 468.38,-2464.25 468.38,-2470.25 462.38,-2476.25 456.38,-2476.25"/>
<text xml:space="preserve" text-anchor="middle" x="422.88" y="-2453.2" font-family="Times,serif" font-size="14.00">46: __init__()</text>
</g>
<!-- node_6dea468b&#45;&gt;node_3c3fcb79 -->
<g id="edge8" class="edge">
<title>node_6dea468b&#45;&gt;node_3c3fcb79</title>
<path fill="none" stroke="#009e73" stroke-width="2" d="M178.87,-1970.92C260.5,-1970.92 422.5,-1970.92 422.5,-1970.92 422.5,-1970.92 422.5,-2427.01 422.5,-2427.01"/>
<polygon fill="#009e73" stroke="#009e73" stroke-width="2" points="419,-2427.01 422.5,-2437.01 426,-2427.01 419,-2427.01"/>
</g>
<!-- node_116e1d20 -->
<g id="node21" class="node">
<title>node_116e1d20</title>
<path fill="#6db33f" stroke="black" d="M490.5,-1690.25C490.5,-1690.25 355.25,-1690.25 355.25,-1690.25 349.25,-1690.25 343.25,-1684.25 343.25,-1678.25 343.25,-1678.25 343.25,-1666.25 343.25,-1666.25 343.25,-1660.25 349.25,-1654.25 355.25,-1654.25 355.25,-1654.25 490.5,-1654.25 490.5,-1654.25 496.5,-1654.25 502.5,-1660.25 502.5,-1666.25 502.5,-1666.25 502.5,-1678.25 502.5,-1678.25 502.5,-1684.25 496.5,-1690.25 490.5,-1690.25"/>
<text xml:space="preserve" text-anchor="middle" x="422.88" y="-1667.2" font-family="Times,serif" font-size="14.00">262: _connect_providers()</text>
</g>
<!-- node_8a452ee1 -->
<g id="node22" class="node">
<title>node_8a452ee1</title>
<path fill="#6db33f" stroke="black" d="M754.75,-1784.25C754.75,-1784.25 606,-1784.25 606,-1784.25 600,-1784.25 594,-1778.25 594,-1772.25 594,-1772.25 594,-1760.25 594,-1760.25 594,-1754.25 600,-1748.25 606,-1748.25 606,-1748.25 754.75,-1748.25 754.75,-1748.25 760.75,-1748.25 766.75,-1754.25 766.75,-1760.25 766.75,-1760.25 766.75,-1772.25 766.75,-1772.25 766.75,-1778.25 760.75,-1784.25 754.75,-1784.25"/>
<text xml:space="preserve" text-anchor="middle" x="680.38" y="-1761.2" font-family="Times,serif" font-size="14.00">338: _detect_market_alerts()</text>
</g>
<!-- node_532d4097 -->
<g id="node23" class="node">
<title>node_532d4097</title>
<path fill="#966f33" stroke="black" d="M225,-1344.25C225,-1344.25 41,-1344.25 41,-1344.25 35,-1344.25 29,-1338.25 29,-1332.25 29,-1332.25 29,-1320.25 29,-1320.25 29,-1314.25 35,-1308.25 41,-1308.25 41,-1308.25 225,-1308.25 225,-1308.25 231,-1308.25 237,-1314.25 237,-1320.25 237,-1320.25 237,-1332.25 237,-1332.25 237,-1338.25 231,-1344.25 225,-1344.25"/>
<text xml:space="preserve" text-anchor="middle" x="133" y="-1321.2" font-family="Times,serif" font-size="14.00">333: _on_broker_position_update()</text>
</g>
<!-- node_a9056e30 -->
<g id="node24" class="node">
<title>node_a9056e30</title>
<path fill="#6db33f" stroke="black" d="M496.88,-1744.25C496.88,-1744.25 348.88,-1744.25 348.88,-1744.25 342.88,-1744.25 336.88,-1738.25 336.88,-1732.25 336.88,-1732.25 336.88,-1720.25 336.88,-1720.25 336.88,-1714.25 342.88,-1708.25 348.88,-1708.25 348.88,-1708.25 496.88,-1708.25 496.88,-1708.25 502.88,-1708.25 508.88,-1714.25 508.88,-1720.25 508.88,-1720.25 508.88,-1732.25 508.88,-1732.25 508.88,-1738.25 502.88,-1744.25 496.88,-1744.25"/>
<text xml:space="preserve" text-anchor="middle" x="422.88" y="-1721.2" font-family="Times,serif" font-size="14.00">391: _perform_warm_start()</text>
</g>
<!-- node_3bf3fb9c -->
<g id="node25" class="node">
<title>node_3bf3fb9c</title>
<path fill="#cccccc" stroke="black" d="M744.62,-1892.25C744.62,-1892.25 616.12,-1892.25 616.12,-1892.25 610.12,-1892.25 604.12,-1886.25 604.12,-1880.25 604.12,-1880.25 604.12,-1868.25 604.12,-1868.25 604.12,-1862.25 610.12,-1856.25 616.12,-1856.25 616.12,-1856.25 744.62,-1856.25 744.62,-1856.25 750.62,-1856.25 756.62,-1862.25 756.62,-1868.25 756.62,-1868.25 756.62,-1880.25 756.62,-1880.25 756.62,-1886.25 750.62,-1892.25 744.62,-1892.25"/>
<text xml:space="preserve" text-anchor="middle" x="680.38" y="-1869.2" font-family="Times,serif" font-size="14.00">372: _periodic_cleanup()</text>
</g>
<!-- node_5dd0387e -->
<g id="node61" class="node">
<title>node_5dd0387e</title>
<path fill="#cccccc" stroke="black" d="M986.75,-1892.25C986.75,-1892.25 866.5,-1892.25 866.5,-1892.25 860.5,-1892.25 854.5,-1886.25 854.5,-1880.25 854.5,-1880.25 854.5,-1868.25 854.5,-1868.25 854.5,-1862.25 860.5,-1856.25 866.5,-1856.25 866.5,-1856.25 986.75,-1856.25 986.75,-1856.25 992.75,-1856.25 998.75,-1862.25 998.75,-1868.25 998.75,-1868.25 998.75,-1880.25 998.75,-1880.25 998.75,-1886.25 992.75,-1892.25 986.75,-1892.25"/>
<text xml:space="preserve" text-anchor="middle" x="926.62" y="-1869.2" font-family="Times,serif" font-size="14.00">370: clear_cooldowns()</text>
</g>
<!-- node_3bf3fb9c&#45;&gt;node_5dd0387e -->
<g id="edge9" class="edge">
<title>node_3bf3fb9c&#45;&gt;node_5dd0387e</title>
<path fill="none" stroke="#f0e442" stroke-width="2" d="M756.94,-1880.25C756.94,-1880.25 841.29,-1880.25 841.29,-1880.25"/>
<polygon fill="#f0e442" stroke="#f0e442" stroke-width="2" points="841.29,-1883.75 851.29,-1880.25 841.29,-1876.75 841.29,-1883.75"/>
</g>
<!-- node_b3cc239f -->
<g id="node26" class="node">
<title>node_b3cc239f</title>
<path fill="#cccccc" stroke="black" d="M752.5,-1838.25C752.5,-1838.25 608.25,-1838.25 608.25,-1838.25 602.25,-1838.25 596.25,-1832.25 596.25,-1826.25 596.25,-1826.25 596.25,-1814.25 596.25,-1814.25 596.25,-1808.25 602.25,-1802.25 608.25,-1802.25 608.25,-1802.25 752.5,-1802.25 752.5,-1802.25 758.5,-1802.25 764.5,-1808.25 764.5,-1814.25 764.5,-1814.25 764.5,-1826.25 764.5,-1826.25 764.5,-1832.25 758.5,-1838.25 752.5,-1838.25"/>
<text xml:space="preserve" text-anchor="middle" x="680.38" y="-1815.2" font-family="Times,serif" font-size="14.00">401: _preload_signal_bars()</text>
</g>
<!-- node_9041862a -->
<g id="node64" class="node">
<title>node_9041862a</title>
<path fill="#cccccc" stroke="black" d="M995.38,-1676.25C995.38,-1676.25 857.88,-1676.25 857.88,-1676.25 851.88,-1676.25 845.88,-1670.25 845.88,-1664.25 845.88,-1664.25 845.88,-1652.25 845.88,-1652.25 845.88,-1646.25 851.88,-1640.25 857.88,-1640.25 857.88,-1640.25 995.38,-1640.25 995.38,-1640.25 1001.38,-1640.25 1007.38,-1646.25 1007.38,-1652.25 1007.38,-1652.25 1007.38,-1664.25 1007.38,-1664.25 1007.38,-1670.25 1001.38,-1676.25 995.38,-1676.25"/>
<text xml:space="preserve" text-anchor="middle" x="926.62" y="-1653.2" font-family="Times,serif" font-size="14.00">387: preload_bar_history()</text>
</g>
<!-- node_b3cc239f&#45;&gt;node_9041862a -->
<g id="edge10" class="edge">
<title>node_b3cc239f&#45;&gt;node_9041862a</title>
<path fill="none" stroke="#cc79a7" stroke-width="2" d="M764.72,-1820.25C794.39,-1820.25 820.5,-1820.25 820.5,-1820.25 820.5,-1820.25 820.5,-1665.25 820.5,-1665.25 820.5,-1665.25 832.35,-1665.25 832.35,-1665.25"/>
<polygon fill="#cc79a7" stroke="#cc79a7" stroke-width="2" points="832.35,-1668.75 842.35,-1665.25 832.35,-1661.75 832.35,-1668.75"/>
</g>
<!-- node_2197774a -->
<g id="node27" class="node">
<title>node_2197774a</title>
<path fill="#6db33f" stroke="black" d="M531.75,-1798.25C531.75,-1798.25 314,-1798.25 314,-1798.25 308,-1798.25 302,-1792.25 302,-1786.25 302,-1786.25 302,-1774.25 302,-1774.25 302,-1768.25 308,-1762.25 314,-1762.25 314,-1762.25 531.75,-1762.25 531.75,-1762.25 537.75,-1762.25 543.75,-1768.25 543.75,-1774.25 543.75,-1774.25 543.75,-1786.25 543.75,-1786.25 543.75,-1792.25 537.75,-1798.25 531.75,-1798.25"/>
<text xml:space="preserve" text-anchor="middle" x="422.88" y="-1775.2" font-family="Times,serif" font-size="14.00">277: _subscribe_components_to_events()</text>
</g>
<!-- node_484e17e2 -->
<g id="node28" class="node">
<title>node_484e17e2</title>
<path fill="#cccccc" stroke="black" d="M470.62,-1852.25C470.62,-1852.25 375.12,-1852.25 375.12,-1852.25 369.12,-1852.25 363.12,-1846.25 363.12,-1840.25 363.12,-1840.25 363.12,-1828.25 363.12,-1828.25 363.12,-1822.25 369.12,-1816.25 375.12,-1816.25 375.12,-1816.25 470.62,-1816.25 470.62,-1816.25 476.62,-1816.25 482.62,-1822.25 482.62,-1828.25 482.62,-1828.25 482.62,-1840.25 482.62,-1840.25 482.62,-1846.25 476.62,-1852.25 470.62,-1852.25"/>
<text xml:space="preserve" text-anchor="middle" x="422.88" y="-1829.2" font-family="Times,serif" font-size="14.00">282: _timer_loop()</text>
</g>
<!-- node_484e17e2&#45;&gt;node_686c289c -->
<g id="edge11" class="edge">
<title>node_484e17e2&#45;&gt;node_686c289c</title>
<path fill="none" stroke="#56b4e9" stroke-width="2" d="M482.98,-1821.75C518.07,-1821.75 555.5,-1821.75 555.5,-1821.75 555.5,-1821.75 555.5,-1000.25 555.5,-1000.25 555.5,-1000.25 589.33,-1000.25 589.33,-1000.25"/>
<polygon fill="#56b4e9" stroke="#56b4e9" stroke-width="2" points="589.33,-1003.75 599.33,-1000.25 589.33,-996.75 589.33,-1003.75"/>
</g>
<!-- node_484e17e2&#45;&gt;node_8a452ee1 -->
<g id="edge12" class="edge">
<title>node_484e17e2&#45;&gt;node_8a452ee1</title>
<path fill="none" stroke="#56b4e9" stroke-width="2" d="M482.95,-1827.25C522.69,-1827.25 567.5,-1827.25 567.5,-1827.25 567.5,-1827.25 567.5,-1773.25 567.5,-1773.25 567.5,-1773.25 580.65,-1773.25 580.65,-1773.25"/>
<polygon fill="#56b4e9" stroke="#56b4e9" stroke-width="2" points="580.65,-1776.75 590.65,-1773.25 580.65,-1769.75 580.65,-1776.75"/>
</g>
<!-- node_484e17e2&#45;&gt;node_3bf3fb9c -->
<g id="edge13" class="edge">
<title>node_484e17e2&#45;&gt;node_3bf3fb9c</title>
<path fill="none" stroke="#56b4e9" stroke-width="2" d="M475.5,-1852.38C475.5,-1862.96 475.5,-1874.25 475.5,-1874.25 475.5,-1874.25 590.77,-1874.25 590.77,-1874.25"/>
<polygon fill="#56b4e9" stroke="#56b4e9" stroke-width="2" points="590.77,-1877.75 600.77,-1874.25 590.77,-1870.75 590.77,-1877.75"/>
</g>
<!-- node_484e17e2&#45;&gt;node_b3cc239f -->
<g id="edge14" class="edge">
<title>node_484e17e2&#45;&gt;node_b3cc239f</title>
<path fill="none" stroke="#56b4e9" stroke-width="2" d="M482.92,-1832.75C482.92,-1832.75 582.79,-1832.75 582.79,-1832.75"/>
<polygon fill="#56b4e9" stroke="#56b4e9" stroke-width="2" points="582.79,-1836.25 592.79,-1832.75 582.79,-1829.25 582.79,-1836.25"/>
</g>
<!-- node_0798f9c9 -->
<g id="node29" class="node">
<title>node_0798f9c9</title>
<path fill="#966f33" stroke="black" d="M201.75,-1398.25C201.75,-1398.25 64.25,-1398.25 64.25,-1398.25 58.25,-1398.25 52.25,-1392.25 52.25,-1386.25 52.25,-1386.25 52.25,-1374.25 52.25,-1374.25 52.25,-1368.25 58.25,-1362.25 64.25,-1362.25 64.25,-1362.25 201.75,-1362.25 201.75,-1362.25 207.75,-1362.25 213.75,-1368.25 213.75,-1374.25 213.75,-1374.25 213.75,-1386.25 213.75,-1386.25 213.75,-1392.25 207.75,-1398.25 201.75,-1398.25"/>
<text xml:space="preserve" text-anchor="middle" x="133" y="-1375.2" font-family="Times,serif" font-size="14.00">470: get_event_bus_stats()</text>
</g>
<!-- node_61186f63 -->
<g id="node62" class="node">
<title>node_61186f63</title>
<path fill="#6db33f" stroke="black" d="M964.62,-1514.25C964.62,-1514.25 888.62,-1514.25 888.62,-1514.25 882.62,-1514.25 876.62,-1508.25 876.62,-1502.25 876.62,-1502.25 876.62,-1490.25 876.62,-1490.25 876.62,-1484.25 882.62,-1478.25 888.62,-1478.25 888.62,-1478.25 964.62,-1478.25 964.62,-1478.25 970.62,-1478.25 976.62,-1484.25 976.62,-1490.25 976.62,-1490.25 976.62,-1502.25 976.62,-1502.25 976.62,-1508.25 970.62,-1514.25 964.62,-1514.25"/>
<text xml:space="preserve" text-anchor="middle" x="926.62" y="-1491.2" font-family="Times,serif" font-size="14.00">344: get_stats()</text>
</g>
<!-- node_0798f9c9&#45;&gt;node_61186f63 -->
<g id="edge15" class="edge">
<title>node_0798f9c9&#45;&gt;node_61186f63</title>
<path fill="none" stroke="#e69f00" stroke-width="2" d="M214.19,-1391.75C416.43,-1391.75 926.5,-1391.75 926.5,-1391.75 926.5,-1391.75 926.5,-1465.02 926.5,-1465.02"/>
<polygon fill="#e69f00" stroke="#e69f00" stroke-width="2" points="923,-1465.02 926.5,-1475.02 930,-1465.02 923,-1465.02"/>
</g>
<!-- node_21cdbaaa -->
<g id="node30" class="node">
<title>node_21cdbaaa</title>
<path fill="#966f33" stroke="black" d="M213.75,-1452.25C213.75,-1452.25 52.25,-1452.25 52.25,-1452.25 46.25,-1452.25 40.25,-1446.25 40.25,-1440.25 40.25,-1440.25 40.25,-1428.25 40.25,-1428.25 40.25,-1422.25 46.25,-1416.25 52.25,-1416.25 52.25,-1416.25 213.75,-1416.25 213.75,-1416.25 219.75,-1416.25 225.75,-1422.25 225.75,-1428.25 225.75,-1428.25 225.75,-1440.25 225.75,-1440.25 225.75,-1446.25 219.75,-1452.25 213.75,-1452.25"/>
<text xml:space="preserve" text-anchor="middle" x="133" y="-1429.2" font-family="Times,serif" font-size="14.00">462: get_latest_market_alerts()</text>
</g>
<!-- node_2ffc03cf -->
<g id="node31" class="node">
<title>node_2ffc03cf</title>
<path fill="#cccccc" stroke="black" d="M208.88,-1506.25C208.88,-1506.25 57.13,-1506.25 57.13,-1506.25 51.13,-1506.25 45.12,-1500.25 45.12,-1494.25 45.12,-1494.25 45.12,-1482.25 45.12,-1482.25 45.12,-1476.25 51.12,-1470.25 57.12,-1470.25 57.12,-1470.25 208.88,-1470.25 208.88,-1470.25 214.88,-1470.25 220.88,-1476.25 220.88,-1482.25 220.88,-1482.25 220.88,-1494.25 220.88,-1494.25 220.88,-1500.25 214.88,-1506.25 208.88,-1506.25"/>
<text xml:space="preserve" text-anchor="middle" x="133" y="-1483.2" font-family="Times,serif" font-size="14.00">466: get_latest_risk_signals()</text>
</g>
<!-- node_2ffc03cf&#45;&gt;node_2ffc03cf -->
<g id="edge16" class="edge">
<title>node_2ffc03cf&#45;&gt;node_2ffc03cf</title>
<path fill="none" stroke="#cc79a7" stroke-width="2" d="M44.67,-1488.25C38.41,-1488.25 34.5,-1488.25 34.5,-1488.25 34.5,-1488.25 34.5,-1510.25 34.5,-1510.25 34.5,-1510.25 233.5,-1510.25 233.5,-1510.25 233.5,-1510.25 233.5,-1492.25 233.5,-1492.25 233.5,-1492.25 232.27,-1492.25 232.27,-1492.25"/>
<polygon fill="#cc79a7" stroke="#cc79a7" stroke-width="2" points="234.2,-1488.75 224.2,-1492.25 234.2,-1495.75 234.2,-1488.75"/>
</g>
<!-- node_ced06822 -->
<g id="node32" class="node">
<title>node_ced06822</title>
<path fill="#cccccc" stroke="black" d="M200.25,-1578.25C200.25,-1578.25 65.75,-1578.25 65.75,-1578.25 59.75,-1578.25 53.75,-1572.25 53.75,-1566.25 53.75,-1566.25 53.75,-1554.25 53.75,-1554.25 53.75,-1548.25 59.75,-1542.25 65.75,-1542.25 65.75,-1542.25 200.25,-1542.25 200.25,-1542.25 206.25,-1542.25 212.25,-1548.25 212.25,-1554.25 212.25,-1554.25 212.25,-1566.25 212.25,-1566.25 212.25,-1572.25 206.25,-1578.25 200.25,-1578.25"/>
<text xml:space="preserve" text-anchor="middle" x="133" y="-1555.2" font-family="Times,serif" font-size="14.00">454: get_latest_snapshot()</text>
</g>
<!-- node_ced06822&#45;&gt;node_ced06822 -->
<g id="edge17" class="edge">
<title>node_ced06822&#45;&gt;node_ced06822</title>
<path fill="none" stroke="#56b4e9" stroke-width="2" d="M53.53,-1560.25C50.97,-1560.25 49.5,-1560.25 49.5,-1560.25 49.5,-1560.25 49.5,-1538.92 49.5,-1538.92 49.5,-1538.92 216.5,-1538.92 216.5,-1538.92 216.5,-1538.92 216.5,-1555.25 216.5,-1555.25 216.5,-1555.25 216.1,-1555.25 216.1,-1555.25"/>
<polygon fill="#56b4e9" stroke="#56b4e9" stroke-width="2" points="225.5,-1551.75 215.5,-1555.25 225.5,-1558.75 225.5,-1551.75"/>
</g>
<!-- node_85326107 -->
<g id="node33" class="node">
<title>node_85326107</title>
<path fill="#966f33" stroke="black" d="M208.5,-1650.25C208.5,-1650.25 57.5,-1650.25 57.5,-1650.25 51.5,-1650.25 45.5,-1644.25 45.5,-1638.25 45.5,-1638.25 45.5,-1626.25 45.5,-1626.25 45.5,-1620.25 51.5,-1614.25 57.5,-1614.25 57.5,-1614.25 208.5,-1614.25 208.5,-1614.25 214.5,-1614.25 220.5,-1620.25 220.5,-1626.25 220.5,-1626.25 220.5,-1638.25 220.5,-1638.25 220.5,-1644.25 214.5,-1650.25 208.5,-1650.25"/>
<text xml:space="preserve" text-anchor="middle" x="133" y="-1627.2" font-family="Times,serif" font-size="14.00">482: get_positions_preview()</text>
</g>
<!-- node_8eec8ceb -->
<g id="node34" class="node">
<title>node_8eec8ceb</title>
<path fill="#966f33" stroke="black" d="M211.12,-1704.25C211.12,-1704.25 54.87,-1704.25 54.87,-1704.25 48.88,-1704.25 42.88,-1698.25 42.88,-1692.25 42.88,-1692.25 42.88,-1680.25 42.88,-1680.25 42.88,-1674.25 48.88,-1668.25 54.88,-1668.25 54.88,-1668.25 211.12,-1668.25 211.12,-1668.25 217.12,-1668.25 223.12,-1674.25 223.12,-1680.25 223.12,-1680.25 223.12,-1692.25 223.12,-1692.25 223.12,-1698.25 217.12,-1704.25 211.12,-1704.25"/>
<text xml:space="preserve" text-anchor="middle" x="133" y="-1681.2" font-family="Times,serif" font-size="14.00">476: get_readiness_snapshot()</text>
</g>
<!-- node_9eca5c04 -->
<g id="node35" class="node">
<title>node_9eca5c04</title>
<path fill="#966f33" stroke="black" d="M198,-1758.25C198,-1758.25 68,-1758.25 68,-1758.25 62,-1758.25 56,-1752.25 56,-1746.25 56,-1746.25 56,-1734.25 56,-1734.25 56,-1728.25 62,-1722.25 68,-1722.25 68,-1722.25 198,-1722.25 198,-1722.25 204,-1722.25 210,-1728.25 210,-1734.25 210,-1734.25 210,-1746.25 210,-1746.25 210,-1752.25 204,-1758.25 198,-1758.25"/>
<text xml:space="preserve" text-anchor="middle" x="133" y="-1735.2" font-family="Times,serif" font-size="14.00">504: signal_coordinator()</text>
</g>
<!-- node_30d0c7b0 -->
<g id="node36" class="node">
<title>node_30d0c7b0</title>
<path fill="#cccccc" stroke="black" d="M159,-1812.25C159,-1812.25 107,-1812.25 107,-1812.25 101,-1812.25 95,-1806.25 95,-1800.25 95,-1800.25 95,-1788.25 95,-1788.25 95,-1782.25 101,-1776.25 107,-1776.25 107,-1776.25 159,-1776.25 159,-1776.25 165,-1776.25 171,-1782.25 171,-1788.25 171,-1788.25 171,-1800.25 171,-1800.25 171,-1806.25 165,-1812.25 159,-1812.25"/>
<text xml:space="preserve" text-anchor="middle" x="133" y="-1789.2" font-family="Times,serif" font-size="14.00">164: start()</text>
</g>
<!-- node_30d0c7b0&#45;&gt;node_686c289c -->
<g id="edge18" class="edge">
<title>node_30d0c7b0&#45;&gt;node_686c289c</title>
<path fill="none" stroke="#000000" stroke-width="2" d="M171.34,-1787.25C208.24,-1787.25 258.5,-1787.25 258.5,-1787.25 258.5,-1787.25 258.5,-988.25 258.5,-988.25 258.5,-988.25 589.48,-988.25 589.48,-988.25"/>
<polygon fill="#000000" stroke="#000000" stroke-width="2" points="589.48,-991.75 599.48,-988.25 589.48,-984.75 589.48,-991.75"/>
</g>
<!-- node_30d0c7b0&#45;&gt;node_116e1d20 -->
<g id="edge19" class="edge">
<title>node_30d0c7b0&#45;&gt;node_116e1d20</title>
<path fill="none" stroke="#000000" stroke-width="2" d="M171.42,-1783.58C198.33,-1783.58 229.5,-1783.58 229.5,-1783.58 229.5,-1783.58 229.5,-1679.25 229.5,-1679.25 229.5,-1679.25 329.8,-1679.25 329.8,-1679.25"/>
<polygon fill="#000000" stroke="#000000" stroke-width="2" points="329.8,-1682.75 339.8,-1679.25 329.8,-1675.75 329.8,-1682.75"/>
</g>
<!-- node_30d0c7b0&#45;&gt;node_a9056e30 -->
<g id="edge20" class="edge">
<title>node_30d0c7b0&#45;&gt;node_a9056e30</title>
<path fill="none" stroke="#000000" stroke-width="2" d="M171.36,-1779.92C192.5,-1779.92 214.5,-1779.92 214.5,-1779.92 214.5,-1779.92 214.5,-1733.25 214.5,-1733.25 214.5,-1733.25 323.59,-1733.25 323.59,-1733.25"/>
<polygon fill="#000000" stroke="#000000" stroke-width="2" points="323.59,-1736.75 333.59,-1733.25 323.59,-1729.75 323.59,-1736.75"/>
</g>
<!-- node_30d0c7b0&#45;&gt;node_2197774a -->
<g id="edge21" class="edge">
<title>node_30d0c7b0&#45;&gt;node_2197774a</title>
<path fill="none" stroke="#000000" stroke-width="2" d="M171.49,-1790.92C171.49,-1790.92 288.62,-1790.92 288.62,-1790.92"/>
<polygon fill="#000000" stroke="#000000" stroke-width="2" points="288.62,-1794.42 298.62,-1790.92 288.62,-1787.42 288.62,-1794.42"/>
</g>
<!-- node_30d0c7b0&#45;&gt;node_484e17e2 -->
<g id="edge22" class="edge">
<title>node_30d0c7b0&#45;&gt;node_484e17e2</title>
<path fill="none" stroke="#000000" stroke-width="2" d="M132.5,-1812.38C132.5,-1822.96 132.5,-1834.25 132.5,-1834.25 132.5,-1834.25 349.68,-1834.25 349.68,-1834.25"/>
<polygon fill="#000000" stroke="#000000" stroke-width="2" points="349.68,-1837.75 359.68,-1834.25 349.68,-1830.75 349.68,-1837.75"/>
</g>
<!-- node_30d0c7b0&#45;&gt;node_30d0c7b0 -->
<g id="edge23" class="edge">
<title>node_30d0c7b0&#45;&gt;node_30d0c7b0</title>
<path fill="none" stroke="#000000" stroke-width="2" d="M94.76,-1794.25C92.73,-1794.25 91.5,-1794.25 91.5,-1794.25 91.5,-1794.25 91.5,-1769.25 91.5,-1769.25 91.5,-1769.25 174.5,-1769.25 174.5,-1769.25 174.5,-1769.25 174.5,-1794.58 174.5,-1794.58 174.5,-1794.58 174.17,-1794.58 174.17,-1794.58"/>
<polygon fill="#000000" stroke="#000000" stroke-width="2" points="184.27,-1791.08 174.27,-1794.58 184.27,-1798.08 184.27,-1791.08"/>
</g>
<!-- node_9df999af -->
<g id="node37" class="node">
<title>node_9df999af</title>
<path fill="#cccccc" stroke="black" d="M158.62,-1182.25C158.62,-1182.25 107.38,-1182.25 107.38,-1182.25 101.38,-1182.25 95.38,-1176.25 95.38,-1170.25 95.38,-1170.25 95.38,-1158.25 95.38,-1158.25 95.38,-1152.25 101.38,-1146.25 107.38,-1146.25 107.38,-1146.25 158.62,-1146.25 158.62,-1146.25 164.62,-1146.25 170.62,-1152.25 170.62,-1158.25 170.62,-1158.25 170.62,-1170.25 170.62,-1170.25 170.62,-1176.25 164.62,-1182.25 158.62,-1182.25"/>
<text xml:space="preserve" text-anchor="middle" x="133" y="-1159.2" font-family="Times,serif" font-size="14.00">220: stop()</text>
</g>
<!-- node_9df999af&#45;&gt;node_d14a31d3 -->
<g id="edge29" class="edge">
<title>node_9df999af&#45;&gt;node_d14a31d3</title>
<path fill="none" stroke="#cc79a7" stroke-width="2" d="M132.5,-1146.01C132.5,-1084.16 132.5,-886.25 132.5,-886.25 132.5,-886.25 619.69,-886.25 619.69,-886.25"/>
<polygon fill="#cc79a7" stroke="#cc79a7" stroke-width="2" points="619.69,-889.75 629.69,-886.25 619.69,-882.75 619.69,-889.75"/>
</g>
<!-- node_9df999af&#45;&gt;node_9df999af -->
<g id="edge30" class="edge">
<title>node_9df999af&#45;&gt;node_9df999af</title>
<path fill="none" stroke="#cc79a7" stroke-width="2" d="M95.09,-1164.25C80.15,-1164.25 66.5,-1164.25 66.5,-1164.25 66.5,-1164.25 66.5,-1191.25 66.5,-1191.25 66.5,-1191.25 199.5,-1191.25 199.5,-1191.25 199.5,-1191.25 199.5,-1173.25 199.5,-1173.25 199.5,-1173.25 183.94,-1173.25 183.94,-1173.25"/>
<polygon fill="#cc79a7" stroke="#cc79a7" stroke-width="2" points="183.94,-1169.75 173.94,-1173.25 183.94,-1176.75 183.94,-1169.75"/>
</g>
<!-- node_dc7601f0 -->
<g id="node48" class="node">
<title>node_dc7601f0</title>
<path fill="#cccccc" stroke="black" d="M460.12,-562.25C460.12,-562.25 385.62,-562.25 385.62,-562.25 379.62,-562.25 373.62,-556.25 373.62,-550.25 373.62,-550.25 373.62,-538.25 373.62,-538.25 373.62,-532.25 379.62,-526.25 385.62,-526.25 385.62,-526.25 460.12,-526.25 460.12,-526.25 466.12,-526.25 472.12,-532.25 472.12,-538.25 472.12,-538.25 472.12,-550.25 472.12,-550.25 472.12,-556.25 466.12,-562.25 460.12,-562.25"/>
<text xml:space="preserve" text-anchor="middle" x="422.88" y="-539.2" font-family="Times,serif" font-size="14.00">90: shutdown()</text>
</g>
<!-- node_9df999af&#45;&gt;node_dc7601f0 -->
<g id="edge36" class="edge">
<title>node_9df999af&#45;&gt;node_dc7601f0</title>
<path fill="none" stroke="#cc79a7" stroke-width="2" d="M171.06,-1155.25C203.36,-1155.25 244.5,-1155.25 244.5,-1155.25 244.5,-1155.25 244.5,-550.25 244.5,-550.25 244.5,-550.25 360.16,-550.25 360.16,-550.25"/>
<polygon fill="#cc79a7" stroke="#cc79a7" stroke-width="2" points="360.16,-553.75 370.16,-550.25 360.16,-546.75 360.16,-553.75"/>
</g>
<!-- node_1d12a9f1 -->
<g id="node38" class="node">
<title>node_1d12a9f1</title>
<path fill="#cccccc" stroke="black" d="M197.25,-2028.25C197.25,-2028.25 68.75,-2028.25 68.75,-2028.25 62.75,-2028.25 56.75,-2022.25 56.75,-2016.25 56.75,-2016.25 56.75,-2004.25 56.75,-2004.25 56.75,-1998.25 62.75,-1992.25 68.75,-1992.25 68.75,-1992.25 197.25,-1992.25 197.25,-1992.25 203.25,-1992.25 209.25,-1998.25 209.25,-2004.25 209.25,-2004.25 209.25,-2016.25 209.25,-2016.25 209.25,-2022.25 203.25,-2028.25 197.25,-2028.25"/>
<text xml:space="preserve" text-anchor="middle" x="133" y="-2005.2" font-family="Times,serif" font-size="14.00">458: wait_for_snapshot()</text>
</g>
<!-- node_1d12a9f1&#45;&gt;node_1d12a9f1 -->
<g id="edge37" class="edge">
<title>node_1d12a9f1&#45;&gt;node_1d12a9f1</title>
<path fill="none" stroke="#e69f00" stroke-width="2" d="M56.33,-2010.25C52.08,-2010.25 49.5,-2010.25 49.5,-2010.25 49.5,-2010.25 49.5,-2030.92 49.5,-2030.92 49.5,-2030.92 218.5,-2030.92 218.5,-2030.92 218.5,-2030.92 218.5,-2023.25 218.5,-2023.25 218.5,-2023.25 217.62,-2023.25 217.62,-2023.25"/>
<polygon fill="#e69f00" stroke="#e69f00" stroke-width="2" points="222.7,-2019.75 212.7,-2023.25 222.7,-2026.75 222.7,-2019.75"/>
</g>
<!-- node_232a2d52 -->
<g id="node39" class="node">
<title>node_232a2d52</title>
<path fill="#966f33" stroke="black" d="M162,-423.25C162,-423.25 104,-423.25 104,-423.25 98,-423.25 92,-417.25 92,-411.25 92,-411.25 92,-399.25 92,-399.25 92,-393.25 98,-387.25 104,-387.25 104,-387.25 162,-387.25 162,-387.25 168,-387.25 174,-393.25 174,-399.25 174,-399.25 174,-411.25 174,-411.25 174,-417.25 168,-423.25 162,-423.25"/>
<text xml:space="preserve" text-anchor="middle" x="133" y="-400.2" font-family="Times,serif" font-size="14.00">0: (global)()</text>
</g>
<!-- node_db154df1 -->
<g id="node40" class="node">
<title>node_db154df1</title>
<path fill="#966f33" stroke="black" d="M456.38,-346.25C456.38,-346.25 389.38,-346.25 389.38,-346.25 383.38,-346.25 377.38,-340.25 377.38,-334.25 377.38,-334.25 377.38,-322.25 377.38,-322.25 377.38,-316.25 383.38,-310.25 389.38,-310.25 389.38,-310.25 456.38,-310.25 456.38,-310.25 462.38,-310.25 468.38,-316.25 468.38,-322.25 468.38,-322.25 468.38,-334.25 468.38,-334.25 468.38,-340.25 462.38,-346.25 456.38,-346.25"/>
<text xml:space="preserve" text-anchor="middle" x="422.88" y="-323.2" font-family="Times,serif" font-size="14.00">48: __init__()</text>
</g>
<!-- node_28b835b4 -->
<g id="node41" class="node">
<title>node_28b835b4</title>
<path fill="#6db33f" stroke="black" d="M751,-481.25C751,-481.25 609.75,-481.25 609.75,-481.25 603.75,-481.25 597.75,-475.25 597.75,-469.25 597.75,-469.25 597.75,-457.25 597.75,-457.25 597.75,-451.25 603.75,-445.25 609.75,-445.25 609.75,-445.25 751,-445.25 751,-445.25 757,-445.25 763,-451.25 763,-457.25 763,-457.25 763,-469.25 763,-469.25 763,-475.25 757,-481.25 751,-481.25"/>
<text xml:space="preserve" text-anchor="middle" x="680.38" y="-458.2" font-family="Times,serif" font-size="14.00">165: _phase_cancel_tasks()</text>
</g>
<!-- node_77475b05 -->
<g id="node42" class="node">
<title>node_77475b05</title>
<path fill="#6db33f" stroke="black" d="M766.38,-535.25C766.38,-535.25 594.38,-535.25 594.38,-535.25 588.38,-535.25 582.38,-529.25 582.38,-523.25 582.38,-523.25 582.38,-511.25 582.38,-511.25 582.38,-505.25 588.38,-499.25 594.38,-499.25 594.38,-499.25 766.38,-499.25 766.38,-499.25 772.38,-499.25 778.38,-505.25 778.38,-511.25 778.38,-511.25 778.38,-523.25 778.38,-523.25 778.38,-529.25 772.38,-535.25 766.38,-535.25"/>
<text xml:space="preserve" text-anchor="middle" x="680.38" y="-512.2" font-family="Times,serif" font-size="14.00">185: _phase_close_connections()</text>
</g>
<!-- node_035002d7 -->
<g id="node43" class="node">
<title>node_035002d7</title>
<path fill="#6db33f" stroke="black" d="M750.25,-589.25C750.25,-589.25 610.5,-589.25 610.5,-589.25 604.5,-589.25 598.5,-583.25 598.5,-577.25 598.5,-577.25 598.5,-565.25 598.5,-565.25 598.5,-559.25 604.5,-553.25 610.5,-553.25 610.5,-553.25 750.25,-553.25 750.25,-553.25 756.25,-553.25 762.25,-559.25 762.25,-565.25 762.25,-565.25 762.25,-577.25 762.25,-577.25 762.25,-583.25 756.25,-589.25 750.25,-589.25"/>
<text xml:space="preserve" text-anchor="middle" x="680.38" y="-566.2" font-family="Times,serif" font-size="14.00">201: _phase_run_cleanup()</text>
</g>
<!-- node_64ee7f66 -->
<g id="node44" class="node">
<title>node_64ee7f66</title>
<path fill="#6db33f" stroke="black" d="M758.88,-643.25C758.88,-643.25 601.88,-643.25 601.88,-643.25 595.88,-643.25 589.88,-637.25 589.88,-631.25 589.88,-631.25 589.88,-619.25 589.88,-619.25 589.88,-613.25 595.88,-607.25 601.88,-607.25 601.88,-607.25 758.88,-607.25 758.88,-607.25 764.88,-607.25 770.88,-613.25 770.88,-619.25 770.88,-619.25 770.88,-631.25 770.88,-631.25 770.88,-637.25 764.88,-643.25 758.88,-643.25"/>
<text xml:space="preserve" text-anchor="middle" x="680.38" y="-620.2" font-family="Times,serif" font-size="14.00">151: _phase_stop_event_bus()</text>
</g>
<!-- node_4f04eac9 -->
<g id="node45" class="node">
<title>node_4f04eac9</title>
<path fill="#966f33" stroke="black" d="M478.5,-400.25C478.5,-400.25 367.25,-400.25 367.25,-400.25 361.25,-400.25 355.25,-394.25 355.25,-388.25 355.25,-388.25 355.25,-376.25 355.25,-376.25 355.25,-370.25 361.25,-364.25 367.25,-364.25 367.25,-364.25 478.5,-364.25 478.5,-364.25 484.5,-364.25 490.5,-370.25 490.5,-376.25 490.5,-376.25 490.5,-388.25 490.5,-388.25 490.5,-394.25 484.5,-400.25 478.5,-400.25"/>
<text xml:space="preserve" text-anchor="middle" x="422.88" y="-377.2" font-family="Times,serif" font-size="14.00">86: register_cleanup()</text>
</g>
<!-- node_17e3cf12 -->
<g id="node46" class="node">
<title>node_17e3cf12</title>
<path fill="#966f33" stroke="black" d="M506.62,-454.25C506.62,-454.25 339.12,-454.25 339.12,-454.25 333.12,-454.25 327.12,-448.25 327.12,-442.25 327.12,-442.25 327.12,-430.25 327.12,-430.25 327.12,-424.25 333.12,-418.25 339.12,-418.25 339.12,-418.25 506.62,-418.25 506.62,-418.25 512.62,-418.25 518.62,-424.25 518.62,-430.25 518.62,-430.25 518.62,-442.25 518.62,-442.25 518.62,-448.25 512.62,-454.25 506.62,-454.25"/>
<text xml:space="preserve" text-anchor="middle" x="422.88" y="-431.2" font-family="Times,serif" font-size="14.00">82: register_connection_closer()</text>
</g>
<!-- node_499efc75 -->
<g id="node47" class="node">
<title>node_499efc75</title>
<path fill="#966f33" stroke="black" d="M468.38,-508.25C468.38,-508.25 377.38,-508.25 377.38,-508.25 371.38,-508.25 365.38,-502.25 365.38,-496.25 365.38,-496.25 365.38,-484.25 365.38,-484.25 365.38,-478.25 371.38,-472.25 377.38,-472.25 377.38,-472.25 468.38,-472.25 468.38,-472.25 474.38,-472.25 480.38,-478.25 480.38,-484.25 480.38,-484.25 480.38,-496.25 480.38,-496.25 480.38,-502.25 474.38,-508.25 468.38,-508.25"/>
<text xml:space="preserve" text-anchor="middle" x="422.88" y="-485.2" font-family="Times,serif" font-size="14.00">78: register_task()</text>
</g>
<!-- node_dc7601f0&#45;&gt;node_28b835b4 -->
<g id="edge38" class="edge">
<title>node_dc7601f0&#45;&gt;node_28b835b4</title>
<path fill="none" stroke="#000000" stroke-width="2" d="M472.38,-529.25C482.69,-529.25 490.5,-529.25 490.5,-529.25 490.5,-529.25 490.5,-476.75 490.5,-476.75 490.5,-476.75 584.34,-476.75 584.34,-476.75"/>
<polygon fill="#000000" stroke="#000000" stroke-width="2" points="584.34,-480.25 594.34,-476.75 584.34,-473.25 584.34,-480.25"/>
</g>
<!-- node_dc7601f0&#45;&gt;node_77475b05 -->
<g id="edge39" class="edge">
<title>node_dc7601f0&#45;&gt;node_77475b05</title>
<path fill="none" stroke="#000000" stroke-width="2" d="M472.52,-532.25C472.52,-532.25 569.07,-532.25 569.07,-532.25"/>
<polygon fill="#000000" stroke="#000000" stroke-width="2" points="569.07,-535.75 579.07,-532.25 569.07,-528.75 569.07,-535.75"/>
</g>
<!-- node_dc7601f0&#45;&gt;node_035002d7 -->
<g id="edge40" class="edge">
<title>node_dc7601f0&#45;&gt;node_035002d7</title>
<path fill="none" stroke="#000000" stroke-width="2" d="M472.52,-556.25C472.52,-556.25 585.18,-556.25 585.18,-556.25"/>
<polygon fill="#000000" stroke="#000000" stroke-width="2" points="585.18,-559.75 595.18,-556.25 585.18,-552.75 585.18,-559.75"/>
</g>
<!-- node_dc7601f0&#45;&gt;node_64ee7f66 -->
<g id="edge41" class="edge">
<title>node_dc7601f0&#45;&gt;node_64ee7f66</title>
<path fill="none" stroke="#000000" stroke-width="2" d="M472.52,-559.25C523.2,-559.25 594.5,-559.25 594.5,-559.25 594.5,-559.25 594.5,-593.84 594.5,-593.84"/>
<polygon fill="#000000" stroke="#000000" stroke-width="2" points="591,-593.84 594.5,-603.84 598,-593.84 591,-593.84"/>
</g>
<!-- node_47ffac72 -->
<g id="node49" class="node">
<title>node_47ffac72</title>
<path fill="#966f33" stroke="black" d="M488.62,-616.25C488.62,-616.25 357.12,-616.25 357.12,-616.25 351.12,-616.25 345.12,-610.25 345.12,-604.25 345.12,-604.25 345.12,-592.25 345.12,-592.25 345.12,-586.25 351.12,-580.25 357.12,-580.25 357.12,-580.25 488.62,-580.25 488.62,-580.25 494.62,-580.25 500.62,-586.25 500.62,-592.25 500.62,-592.25 500.62,-604.25 500.62,-604.25 500.62,-610.25 494.62,-616.25 488.62,-616.25"/>
<text xml:space="preserve" text-anchor="middle" x="422.88" y="-593.2" font-family="Times,serif" font-size="14.00">74: shutdown_complete()</text>
</g>
<!-- node_27685e20 -->
<g id="node50" class="node">
<title>node_27685e20</title>
<path fill="#966f33" stroke="black" d="M489.38,-670.25C489.38,-670.25 356.38,-670.25 356.38,-670.25 350.38,-670.25 344.38,-664.25 344.38,-658.25 344.38,-658.25 344.38,-646.25 344.38,-646.25 344.38,-640.25 350.38,-634.25 356.38,-634.25 356.38,-634.25 489.38,-634.25 489.38,-634.25 495.38,-634.25 501.38,-640.25 501.38,-646.25 501.38,-646.25 501.38,-658.25 501.38,-658.25 501.38,-664.25 495.38,-670.25 489.38,-670.25"/>
<text xml:space="preserve" text-anchor="middle" x="422.88" y="-647.2" font-family="Times,serif" font-size="14.00">69: shutdown_requested()</text>
</g>
<!-- node_cb839fec -->
<g id="node51" class="node">
<title>node_cb839fec</title>
<path fill="#966f33" stroke="black" d="M216.75,-562.25C216.75,-562.25 49.25,-562.25 49.25,-562.25 43.25,-562.25 37.25,-556.25 37.25,-550.25 37.25,-550.25 37.25,-538.25 37.25,-538.25 37.25,-532.25 43.25,-526.25 49.25,-526.25 49.25,-526.25 216.75,-526.25 216.75,-526.25 222.75,-526.25 228.75,-532.25 228.75,-538.25 228.75,-538.25 228.75,-550.25 228.75,-550.25 228.75,-556.25 222.75,-562.25 216.75,-562.25"/>
<text xml:space="preserve" text-anchor="middle" x="133" y="-539.2" font-family="Times,serif" font-size="14.00">219: create_shutdown_handler()</text>
</g>
<!-- node_cb839fec&#45;&gt;node_dc7601f0 -->
<g id="edge42" class="edge">
<title>node_cb839fec&#45;&gt;node_dc7601f0</title>
<path fill="none" stroke="#f0e442" stroke-width="2" d="M229.12,-538.25C229.12,-538.25 360.33,-538.25 360.33,-538.25"/>
<polygon fill="#f0e442" stroke="#f0e442" stroke-width="2" points="360.33,-541.75 370.33,-538.25 360.33,-534.75 360.33,-541.75"/>
</g>
<!-- node_793c4148 -->
<g id="node52" class="node">
<title>node_793c4148</title>
<path fill="#966f33" stroke="black" d="M955.62,-2383.25C955.62,-2383.25 897.62,-2383.25 897.62,-2383.25 891.62,-2383.25 885.62,-2377.25 885.62,-2371.25 885.62,-2371.25 885.62,-2359.25 885.62,-2359.25 885.62,-2353.25 891.62,-2347.25 897.62,-2347.25 897.62,-2347.25 955.62,-2347.25 955.62,-2347.25 961.62,-2347.25 967.62,-2353.25 967.62,-2359.25 967.62,-2359.25 967.62,-2371.25 967.62,-2371.25 967.62,-2377.25 961.62,-2383.25 955.62,-2383.25"/>
<text xml:space="preserve" text-anchor="middle" x="926.62" y="-2360.2" font-family="Times,serif" font-size="14.00">0: (global)()</text>
</g>
<!-- node_42e15f0a -->
<g id="node54" class="node">
<title>node_42e15f0a</title>
<path fill="#6db33f" stroke="black" d="M1269,-1838.25C1269,-1838.25 1130.75,-1838.25 1130.75,-1838.25 1124.75,-1838.25 1118.75,-1832.25 1118.75,-1826.25 1118.75,-1826.25 1118.75,-1814.25 1118.75,-1814.25 1118.75,-1808.25 1124.75,-1802.25 1130.75,-1802.25 1130.75,-1802.25 1269,-1802.25 1269,-1802.25 1275,-1802.25 1281,-1808.25 1281,-1814.25 1281,-1814.25 1281,-1826.25 1281,-1826.25 1281,-1832.25 1275,-1838.25 1269,-1838.25"/>
<text xml:space="preserve" text-anchor="middle" x="1199.88" y="-1815.2" font-family="Times,serif" font-size="14.00">274: _is_options_symbol()</text>
</g>
<!-- node_2a5b55e3 -->
<g id="node55" class="node">
<title>node_2a5b55e3</title>
<path fill="#966f33" stroke="black" d="M999.88,-1730.25C999.88,-1730.25 853.38,-1730.25 853.38,-1730.25 847.38,-1730.25 841.38,-1724.25 841.38,-1718.25 841.38,-1718.25 841.38,-1706.25 841.38,-1706.25 841.38,-1700.25 847.38,-1694.25 853.38,-1694.25 853.38,-1694.25 999.88,-1694.25 999.88,-1694.25 1005.88,-1694.25 1011.88,-1700.25 1011.88,-1706.25 1011.88,-1706.25 1011.88,-1718.25 1011.88,-1718.25 1011.88,-1724.25 1005.88,-1730.25 999.88,-1730.25"/>
<text xml:space="preserve" text-anchor="middle" x="926.62" y="-1707.2" font-family="Times,serif" font-size="14.00">432: _on_indicator_update()</text>
</g>
<!-- node_6654ef3f -->
<g id="node59" class="node">
<title>node_6654ef3f</title>
<path fill="#6db33f" stroke="black" d="M1262.62,-1730.25C1262.62,-1730.25 1137.12,-1730.25 1137.12,-1730.25 1131.12,-1730.25 1125.12,-1724.25 1125.12,-1718.25 1125.12,-1718.25 1125.12,-1706.25 1125.12,-1706.25 1125.12,-1700.25 1131.12,-1694.25 1137.12,-1694.25 1137.12,-1694.25 1262.62,-1694.25 1262.62,-1694.25 1268.62,-1694.25 1274.62,-1700.25 1274.62,-1706.25 1274.62,-1706.25 1274.62,-1718.25 1274.62,-1718.25 1274.62,-1724.25 1268.62,-1730.25 1262.62,-1730.25"/>
<text xml:space="preserve" text-anchor="middle" x="1199.88" y="-1707.2" font-family="Times,serif" font-size="14.00">507: _persist_indicator()</text>
</g>
<!-- node_2a5b55e3&#45;&gt;node_6654ef3f -->
<g id="edge43" class="edge">
<title>node_2a5b55e3&#45;&gt;node_6654ef3f</title>
<path fill="none" stroke="#009e73" stroke-width="2" d="M1012.33,-1712.25C1012.33,-1712.25 1111.6,-1712.25 1111.6,-1712.25"/>
<polygon fill="#009e73" stroke="#009e73" stroke-width="2" points="1111.6,-1715.75 1121.6,-1712.25 1111.6,-1708.75 1111.6,-1715.75"/>
</g>
<!-- node_d70b484e -->
<g id="node56" class="node">
<title>node_d70b484e</title>
<path fill="#966f33" stroke="black" d="M1001.75,-1838.25C1001.75,-1838.25 851.5,-1838.25 851.5,-1838.25 845.5,-1838.25 839.5,-1832.25 839.5,-1826.25 839.5,-1826.25 839.5,-1814.25 839.5,-1814.25 839.5,-1808.25 845.5,-1802.25 851.5,-1802.25 851.5,-1802.25 1001.75,-1802.25 1001.75,-1802.25 1007.75,-1802.25 1013.75,-1808.25 1013.75,-1814.25 1013.75,-1814.25 1013.75,-1826.25 1013.75,-1826.25 1013.75,-1832.25 1007.75,-1838.25 1001.75,-1838.25"/>
<text xml:space="preserve" text-anchor="middle" x="926.62" y="-1815.2" font-family="Times,serif" font-size="14.00">320: _on_market_data_tick()</text>
</g>
<!-- node_d70b484e&#45;&gt;node_42e15f0a -->
<g id="edge44" class="edge">
<title>node_d70b484e&#45;&gt;node_42e15f0a</title>
<path fill="none" stroke="#d55e00" stroke-width="2" d="M1014.21,-1820.25C1014.21,-1820.25 1105.33,-1820.25 1105.33,-1820.25"/>
<polygon fill="#d55e00" stroke="#d55e00" stroke-width="2" points="1105.33,-1823.75 1115.33,-1820.25 1105.33,-1816.75 1105.33,-1823.75"/>
</g>
<!-- node_9e551aea -->
<g id="node57" class="node">
<title>node_9e551aea</title>
<path fill="#966f33" stroke="black" d="M993.12,-2144.25C993.12,-2144.25 860.12,-2144.25 860.12,-2144.25 854.12,-2144.25 848.12,-2138.25 848.12,-2132.25 848.12,-2132.25 848.12,-2120.25 848.12,-2120.25 848.12,-2114.25 854.12,-2108.25 860.12,-2108.25 860.12,-2108.25 993.12,-2108.25 993.12,-2108.25 999.12,-2108.25 1005.12,-2114.25 1005.12,-2120.25 1005.12,-2120.25 1005.12,-2132.25 1005.12,-2132.25 1005.12,-2138.25 999.12,-2144.25 993.12,-2144.25"/>
<text xml:space="preserve" text-anchor="middle" x="926.62" y="-2121.2" font-family="Times,serif" font-size="14.00">481: _on_trading_signal()</text>
</g>
<!-- node_ea44f75b -->
<g id="node60" class="node">
<title>node_ea44f75b</title>
<path fill="#6db33f" stroke="black" d="M1254.75,-2144.25C1254.75,-2144.25 1145,-2144.25 1145,-2144.25 1139,-2144.25 1133,-2138.25 1133,-2132.25 1133,-2132.25 1133,-2120.25 1133,-2120.25 1133,-2114.25 1139,-2108.25 1145,-2108.25 1145,-2108.25 1254.75,-2108.25 1254.75,-2108.25 1260.75,-2108.25 1266.75,-2114.25 1266.75,-2120.25 1266.75,-2120.25 1266.75,-2132.25 1266.75,-2132.25 1266.75,-2138.25 1260.75,-2144.25 1254.75,-2144.25"/>
<text xml:space="preserve" text-anchor="middle" x="1199.88" y="-2121.2" font-family="Times,serif" font-size="14.00">496: _persist_signal()</text>
</g>
<!-- node_9e551aea&#45;&gt;node_ea44f75b -->
<g id="edge45" class="edge">
<title>node_9e551aea&#45;&gt;node_ea44f75b</title>
<path fill="none" stroke="#56b4e9" stroke-width="2" d="M1005.29,-2126.25C1005.29,-2126.25 1119.83,-2126.25 1119.83,-2126.25"/>
<polygon fill="#56b4e9" stroke="#56b4e9" stroke-width="2" points="1119.83,-2129.75 1129.83,-2126.25 1119.83,-2122.75 1119.83,-2129.75"/>
</g>
<!-- node_732cebeb -->
<g id="node58" class="node">
<title>node_732cebeb</title>
<path fill="#966f33" stroke="black" d="M995,-1784.25C995,-1784.25 858.25,-1784.25 858.25,-1784.25 852.25,-1784.25 846.25,-1778.25 846.25,-1772.25 846.25,-1772.25 846.25,-1760.25 846.25,-1760.25 846.25,-1754.25 852.25,-1748.25 858.25,-1748.25 858.25,-1748.25 995,-1748.25 995,-1748.25 1001,-1748.25 1007,-1754.25 1007,-1760.25 1007,-1760.25 1007,-1772.25 1007,-1772.25 1007,-1778.25 1001,-1784.25 995,-1784.25"/>
<text xml:space="preserve" text-anchor="middle" x="926.62" y="-1761.2" font-family="Times,serif" font-size="14.00">530: _persist_confluence()</text>
</g>
<!-- node_5dd0387e&#45;&gt;node_5dd0387e -->
<g id="edge46" class="edge">
<title>node_5dd0387e&#45;&gt;node_5dd0387e</title>
<path fill="none" stroke="#d55e00" stroke-width="2" d="M854.18,-1868.25C848.85,-1868.25 845.5,-1868.25 845.5,-1868.25 845.5,-1868.25 845.5,-1845.25 845.5,-1845.25 845.5,-1845.25 1010.5,-1845.25 1010.5,-1845.25 1010.5,-1845.25 1010.5,-1874.25 1010.5,-1874.25 1010.5,-1874.25 1009.37,-1874.25 1009.37,-1874.25"/>
<polygon fill="#d55e00" stroke="#d55e00" stroke-width="2" points="1012.22,-1870.75 1002.22,-1874.25 1012.22,-1877.75 1012.22,-1870.75"/>
</g>
<!-- node_7e0c9dbe -->
<g id="node63" class="node">
<title>node_7e0c9dbe</title>
<path fill="#966f33" stroke="black" d="M966.88,-1964.25C966.88,-1964.25 886.38,-1964.25 886.38,-1964.25 880.38,-1964.25 874.38,-1958.25 874.38,-1952.25 874.38,-1952.25 874.38,-1940.25 874.38,-1940.25 874.38,-1934.25 880.38,-1928.25 886.38,-1928.25 886.38,-1928.25 966.88,-1928.25 966.88,-1928.25 972.88,-1928.25 978.88,-1934.25 978.88,-1940.25 978.88,-1940.25 978.88,-1952.25 978.88,-1952.25 978.88,-1958.25 972.88,-1964.25 966.88,-1964.25"/>
<text xml:space="preserve" text-anchor="middle" x="926.62" y="-1941.2" font-family="Times,serif" font-size="14.00">120: is_started()</text>
</g>
<!-- node_9041862a&#45;&gt;node_b31261e0 -->
<g id="edge47" class="edge">
<title>node_9041862a&#45;&gt;node_b31261e0</title>
<path fill="none" stroke="#56b4e9" stroke-width="2" d="M991.5,-1639.89C991.5,-1563.18 991.5,-1272.25 991.5,-1272.25 991.5,-1272.25 1121.49,-1272.25 1121.49,-1272.25"/>
<polygon fill="#56b4e9" stroke="#56b4e9" stroke-width="2" points="1121.49,-1275.75 1131.49,-1272.25 1121.49,-1268.75 1121.49,-1275.75"/>
</g>
<!-- node_7c3d6f78 -->
<g id="node65" class="node">
<title>node_7c3d6f78</title>
<path fill="#cccccc" stroke="black" d="M993.12,-2072.25C993.12,-2072.25 860.12,-2072.25 860.12,-2072.25 854.12,-2072.25 848.12,-2066.25 848.12,-2060.25 848.12,-2060.25 848.12,-2048.25 848.12,-2048.25 848.12,-2042.25 854.12,-2036.25 860.12,-2036.25 860.12,-2036.25 993.12,-2036.25 993.12,-2036.25 999.12,-2036.25 1005.12,-2042.25 1005.12,-2048.25 1005.12,-2048.25 1005.12,-2060.25 1005.12,-2060.25 1005.12,-2066.25 999.12,-2072.25 993.12,-2072.25"/>
<text xml:space="preserve" text-anchor="middle" x="926.62" y="-2049.2" font-family="Times,serif" font-size="14.00">408: refresh_disk_cache()</text>
</g>
<!-- node_7c3d6f78&#45;&gt;node_7c3d6f78 -->
<g id="edge48" class="edge">
<title>node_7c3d6f78&#45;&gt;node_7c3d6f78</title>
<path fill="none" stroke="#000000" stroke-width="2" d="M848.02,-2054.25C844.55,-2054.25 842.5,-2054.25 842.5,-2054.25 842.5,-2054.25 842.5,-2033.58 842.5,-2033.58 842.5,-2033.58 1007.5,-2033.58 1007.5,-2033.58 1007.5,-2033.58 1007.5,-2054.25 1007.5,-2054.25 1007.5,-2054.25 1007.3,-2054.25 1007.3,-2054.25"/>
<polygon fill="#000000" stroke="#000000" stroke-width="2" points="1018.53,-2050.75 1008.53,-2054.25 1018.53,-2057.75 1018.53,-2050.75"/>
</g>
<!-- node_69e72c01 -->
<g id="node66" class="node">
<title>node_69e72c01</title>
<path fill="#cccccc" stroke="black" d="M952.62,-1568.25C952.62,-1568.25 900.62,-1568.25 900.62,-1568.25 894.62,-1568.25 888.62,-1562.25 888.62,-1556.25 888.62,-1556.25 888.62,-1544.25 888.62,-1544.25 888.62,-1538.25 894.62,-1532.25 900.62,-1532.25 900.62,-1532.25 952.62,-1532.25 952.62,-1532.25 958.62,-1532.25 964.62,-1538.25 964.62,-1544.25 964.62,-1544.25 964.62,-1556.25 964.62,-1556.25 964.62,-1562.25 958.62,-1568.25 952.62,-1568.25"/>
<text xml:space="preserve" text-anchor="middle" x="926.62" y="-1545.2" font-family="Times,serif" font-size="14.00">129: start()</text>
</g>
<!-- node_69e72c01&#45;&gt;node_c7a11452 -->
<g id="edge49" class="edge">
<title>node_69e72c01&#45;&gt;node_c7a11452</title>
<path fill="none" stroke="#e69f00" stroke-width="2" d="M964.85,-1544.25C993.76,-1544.25 1028.5,-1544.25 1028.5,-1544.25 1028.5,-1544.25 1028.5,-1164.25 1028.5,-1164.25 1028.5,-1164.25 1140.92,-1164.25 1140.92,-1164.25"/>
<polygon fill="#e69f00" stroke="#e69f00" stroke-width="2" points="1140.92,-1167.75 1150.92,-1164.25 1140.92,-1160.75 1140.92,-1167.75"/>
</g>
<!-- node_69e72c01&#45;&gt;node_69e72c01 -->
<g id="edge50" class="edge">
<title>node_69e72c01&#45;&gt;node_69e72c01</title>
<path fill="none" stroke="#e69f00" stroke-width="2" d="M888.27,-1535.58C884.76,-1535.58 882.5,-1535.58 882.5,-1535.58 882.5,-1535.58 882.5,-1523.25 882.5,-1523.25 882.5,-1523.25 970.5,-1523.25 970.5,-1523.25 970.5,-1523.25 970.5,-1556.25 970.5,-1556.25 970.5,-1556.25 969.96,-1556.25 969.96,-1556.25"/>
<polygon fill="#e69f00" stroke="#e69f00" stroke-width="2" points="978.15,-1552.75 968.15,-1556.25 978.15,-1559.75 978.15,-1552.75"/>
</g>
<!-- node_105e2984 -->
<g id="node67" class="node">
<title>node_105e2984</title>
<path fill="#cccccc" stroke="black" d="M952.25,-2198.25C952.25,-2198.25 901,-2198.25 901,-2198.25 895,-2198.25 889,-2192.25 889,-2186.25 889,-2186.25 889,-2174.25 889,-2174.25 889,-2168.25 895,-2162.25 901,-2162.25 901,-2162.25 952.25,-2162.25 952.25,-2162.25 958.25,-2162.25 964.25,-2168.25 964.25,-2174.25 964.25,-2174.25 964.25,-2186.25 964.25,-2186.25 964.25,-2192.25 958.25,-2198.25 952.25,-2198.25"/>
<text xml:space="preserve" text-anchor="middle" x="926.62" y="-2175.2" font-family="Times,serif" font-size="14.00">214: stop()</text>
</g>
<!-- node_105e2984&#45;&gt;node_105e2984 -->
<g id="edge53" class="edge">
<title>node_105e2984&#45;&gt;node_105e2984</title>
<path fill="none" stroke="#f0e442" stroke-width="2" d="M888.59,-2180.25C883.23,-2180.25 879.5,-2180.25 879.5,-2180.25 879.5,-2180.25 879.5,-2153.25 879.5,-2153.25 879.5,-2153.25 974.5,-2153.25 974.5,-2153.25 974.5,-2153.25 974.5,-2180.25 974.5,-2180.25 974.5,-2180.25 973.48,-2180.25 973.48,-2180.25"/>
<polygon fill="#f0e442" stroke="#f0e442" stroke-width="2" points="977.37,-2176.75 967.37,-2180.25 977.37,-2183.75 977.37,-2176.75"/>
</g>
<!-- node_94799221 -->
<g id="node68" class="node">
<title>node_94799221</title>
<path fill="#966f33" stroke="black" d="M972.12,-2306.25C972.12,-2306.25 881.12,-2306.25 881.12,-2306.25 875.12,-2306.25 869.12,-2300.25 869.12,-2294.25 869.12,-2294.25 869.12,-2282.25 869.12,-2282.25 869.12,-2276.25 875.12,-2270.25 881.12,-2270.25 881.12,-2270.25 972.12,-2270.25 972.12,-2270.25 978.12,-2270.25 984.12,-2276.25 984.12,-2282.25 984.12,-2282.25 984.12,-2294.25 984.12,-2294.25 984.12,-2300.25 978.12,-2306.25 972.12,-2306.25"/>
<text xml:space="preserve" text-anchor="middle" x="926.62" y="-2283.2" font-family="Times,serif" font-size="14.00">125: timeframes()</text>
</g>
<!-- node_d7c906de -->
<g id="node69" class="node">
<title>node_d7c906de</title>
<path fill="#966f33" stroke="black" d="M451.88,-2895.25C451.88,-2895.25 393.88,-2895.25 393.88,-2895.25 387.88,-2895.25 381.88,-2889.25 381.88,-2883.25 381.88,-2883.25 381.88,-2871.25 381.88,-2871.25 381.88,-2865.25 387.88,-2859.25 393.88,-2859.25 393.88,-2859.25 451.88,-2859.25 451.88,-2859.25 457.88,-2859.25 463.88,-2865.25 463.88,-2871.25 463.88,-2871.25 463.88,-2883.25 463.88,-2883.25 463.88,-2889.25 457.88,-2895.25 451.88,-2895.25"/>
<text xml:space="preserve" text-anchor="middle" x="422.88" y="-2872.2" font-family="Times,serif" font-size="14.00">0: (global)()</text>
</g>
<!-- node_07ec5bdc -->
<g id="node71" class="node">
<title>node_07ec5bdc</title>
<path fill="#cccccc" stroke="black" d="M1024.25,-2692.25C1024.25,-2692.25 829,-2692.25 829,-2692.25 823,-2692.25 817,-2686.25 817,-2680.25 817,-2680.25 817,-2668.25 817,-2668.25 817,-2662.25 823,-2656.25 829,-2656.25 829,-2656.25 1024.25,-2656.25 1024.25,-2656.25 1030.25,-2656.25 1036.25,-2662.25 1036.25,-2668.25 1036.25,-2668.25 1036.25,-2680.25 1036.25,-2680.25 1036.25,-2686.25 1030.25,-2692.25 1024.25,-2692.25"/>
<text xml:space="preserve" text-anchor="middle" x="926.62" y="-2669.2" font-family="Times,serif" font-size="14.00">126: _build_and_dispatch_snapshot()</text>
</g>
<!-- node_ba36ddc9 -->
<g id="node72" class="node">
<title>node_ba36ddc9</title>
<path fill="#6db33f" stroke="black" d="M1288.88,-2665.25C1288.88,-2665.25 1110.88,-2665.25 1110.88,-2665.25 1104.88,-2665.25 1098.88,-2659.25 1098.88,-2653.25 1098.88,-2653.25 1098.88,-2641.25 1098.88,-2641.25 1098.88,-2635.25 1104.88,-2629.25 1110.88,-2629.25 1110.88,-2629.25 1288.88,-2629.25 1288.88,-2629.25 1294.88,-2629.25 1300.88,-2635.25 1300.88,-2641.25 1300.88,-2641.25 1300.88,-2653.25 1300.88,-2653.25 1300.88,-2659.25 1294.88,-2665.25 1288.88,-2665.25"/>
<text xml:space="preserve" text-anchor="middle" x="1199.88" y="-2642.2" font-family="Times,serif" font-size="14.00">200: _check_snapshot_readiness()</text>
</g>
<!-- node_07ec5bdc&#45;&gt;node_ba36ddc9 -->
<g id="edge56" class="edge">
<title>node_07ec5bdc&#45;&gt;node_ba36ddc9</title>
<path fill="none" stroke="#f0e442" stroke-width="2" d="M1036.59,-2660.75C1036.59,-2660.75 1085.51,-2660.75 1085.51,-2660.75"/>
<polygon fill="#f0e442" stroke="#f0e442" stroke-width="2" points="1085.51,-2664.25 1095.51,-2660.75 1085.51,-2657.25 1085.51,-2664.25"/>
</g>
<!-- node_e54d912d -->
<g id="node74" class="node">
<title>node_e54d912d</title>
<path fill="#6db33f" stroke="black" d="M1257.75,-2719.25C1257.75,-2719.25 1142,-2719.25 1142,-2719.25 1136,-2719.25 1130,-2713.25 1130,-2707.25 1130,-2707.25 1130,-2695.25 1130,-2695.25 1130,-2689.25 1136,-2683.25 1142,-2683.25 1142,-2683.25 1257.75,-2683.25 1257.75,-2683.25 1263.75,-2683.25 1269.75,-2689.25 1269.75,-2695.25 1269.75,-2695.25 1269.75,-2707.25 1269.75,-2707.25 1269.75,-2713.25 1263.75,-2719.25 1257.75,-2719.25"/>
<text xml:space="preserve" text-anchor="middle" x="1199.88" y="-2696.2" font-family="Times,serif" font-size="14.00">186: _log_risk_alerts()</text>
</g>
<!-- node_07ec5bdc&#45;&gt;node_e54d912d -->
<g id="edge57" class="edge">
<title>node_07ec5bdc&#45;&gt;node_e54d912d</title>
<path fill="none" stroke="#f0e442" stroke-width="2" d="M1036.59,-2687.75C1036.59,-2687.75 1116.74,-2687.75 1116.74,-2687.75"/>
<polygon fill="#f0e442" stroke="#f0e442" stroke-width="2" points="1116.74,-2691.25 1126.74,-2687.75 1116.74,-2684.25 1116.74,-2691.25"/>
</g>
<!-- node_2a2fd9f4 -->
<g id="node73" class="node">
<title>node_2a2fd9f4</title>
<path fill="#cccccc" stroke="black" d="M736,-2692.25C736,-2692.25 624.75,-2692.25 624.75,-2692.25 618.75,-2692.25 612.75,-2686.25 612.75,-2680.25 612.75,-2680.25 612.75,-2668.25 612.75,-2668.25 612.75,-2662.25 618.75,-2656.25 624.75,-2656.25 624.75,-2656.25 736,-2656.25 736,-2656.25 742,-2656.25 748,-2662.25 748,-2668.25 748,-2668.25 748,-2680.25 748,-2680.25 748,-2686.25 742,-2692.25 736,-2692.25"/>
<text xml:space="preserve" text-anchor="middle" x="680.38" y="-2669.2" font-family="Times,serif" font-size="14.00">107: _dispatch_loop()</text>
</g>
<!-- node_2a2fd9f4&#45;&gt;node_07ec5bdc -->
<g id="edge58" class="edge">
<title>node_2a2fd9f4&#45;&gt;node_07ec5bdc</title>
<path fill="none" stroke="#f0e442" stroke-width="2" d="M748.32,-2674.25C748.32,-2674.25 803.79,-2674.25 803.79,-2674.25"/>
<polygon fill="#f0e442" stroke="#f0e442" stroke-width="2" points="803.79,-2677.75 813.79,-2674.25 803.79,-2670.75 803.79,-2677.75"/>
</g>
<!-- node_43cab87b -->
<g id="node75" class="node">
<title>node_43cab87b</title>
<path fill="#966f33" stroke="black" d="M498.75,-2530.25C498.75,-2530.25 347,-2530.25 347,-2530.25 341,-2530.25 335,-2524.25 335,-2518.25 335,-2518.25 335,-2506.25 335,-2506.25 335,-2500.25 341,-2494.25 347,-2494.25 347,-2494.25 498.75,-2494.25 498.75,-2494.25 504.75,-2494.25 510.75,-2500.25 510.75,-2506.25 510.75,-2506.25 510.75,-2518.25 510.75,-2518.25 510.75,-2524.25 504.75,-2530.25 498.75,-2530.25"/>
<text xml:space="preserve" text-anchor="middle" x="422.88" y="-2507.2" font-family="Times,serif" font-size="14.00">233: get_latest_risk_signals()</text>
</g>
<!-- node_07ada6e9 -->
<g id="node76" class="node">
<title>node_07ada6e9</title>
<path fill="#966f33" stroke="black" d="M490.12,-2584.25C490.12,-2584.25 355.62,-2584.25 355.62,-2584.25 349.62,-2584.25 343.62,-2578.25 343.62,-2572.25 343.62,-2572.25 343.62,-2560.25 343.62,-2560.25 343.62,-2554.25 349.62,-2548.25 355.62,-2548.25 355.62,-2548.25 490.12,-2548.25 490.12,-2548.25 496.12,-2548.25 502.12,-2554.25 502.12,-2560.25 502.12,-2560.25 502.12,-2572.25 502.12,-2572.25 502.12,-2578.25 496.12,-2584.25 490.12,-2584.25"/>
<text xml:space="preserve" text-anchor="middle" x="422.88" y="-2561.2" font-family="Times,serif" font-size="14.00">229: get_latest_snapshot()</text>
</g>
<!-- node_e2e45b90 -->
<g id="node77" class="node">
<title>node_e2e45b90</title>
<path fill="#966f33" stroke="black" d="M460.12,-2638.25C460.12,-2638.25 385.62,-2638.25 385.62,-2638.25 379.62,-2638.25 373.62,-2632.25 373.62,-2626.25 373.62,-2626.25 373.62,-2614.25 373.62,-2614.25 373.62,-2608.25 379.62,-2602.25 385.62,-2602.25 385.62,-2602.25 460.12,-2602.25 460.12,-2602.25 466.12,-2602.25 472.12,-2608.25 472.12,-2614.25 472.12,-2614.25 472.12,-2626.25 472.12,-2626.25 472.12,-2632.25 466.12,-2638.25 460.12,-2638.25"/>
<text xml:space="preserve" text-anchor="middle" x="422.88" y="-2615.2" font-family="Times,serif" font-size="14.00">246: is_ready()</text>
</g>
<!-- node_9ee913bd -->
<g id="node78" class="node">
<title>node_9ee913bd</title>
<path fill="#966f33" stroke="black" d="M445.5,-2692.25C445.5,-2692.25 400.25,-2692.25 400.25,-2692.25 394.25,-2692.25 388.25,-2686.25 388.25,-2680.25 388.25,-2680.25 388.25,-2668.25 388.25,-2668.25 388.25,-2662.25 394.25,-2656.25 400.25,-2656.25 400.25,-2656.25 445.5,-2656.25 445.5,-2656.25 451.5,-2656.25 457.5,-2662.25 457.5,-2668.25 457.5,-2668.25 457.5,-2680.25 457.5,-2680.25 457.5,-2686.25 451.5,-2692.25 445.5,-2692.25"/>
<text xml:space="preserve" text-anchor="middle" x="422.88" y="-2669.2" font-family="Times,serif" font-size="14.00">84: start()</text>
</g>
<!-- node_9ee913bd&#45;&gt;node_2a2fd9f4 -->
<g id="edge59" class="edge">
<title>node_9ee913bd&#45;&gt;node_2a2fd9f4</title>
<path fill="none" stroke="#0072b2" stroke-width="2" d="M457.87,-2674.25C457.87,-2674.25 599.33,-2674.25 599.33,-2674.25"/>
<polygon fill="#0072b2" stroke="#0072b2" stroke-width="2" points="599.33,-2677.75 609.33,-2674.25 599.33,-2670.75 599.33,-2677.75"/>
</g>
<!-- node_37033b38 -->
<g id="node79" class="node">
<title>node_37033b38</title>
<path fill="#cccccc" stroke="black" d="M445.12,-2746.25C445.12,-2746.25 400.62,-2746.25 400.62,-2746.25 394.62,-2746.25 388.62,-2740.25 388.62,-2734.25 388.62,-2734.25 388.62,-2722.25 388.62,-2722.25 388.62,-2716.25 394.62,-2710.25 400.62,-2710.25 400.62,-2710.25 445.12,-2710.25 445.12,-2710.25 451.12,-2710.25 457.12,-2716.25 457.12,-2722.25 457.12,-2722.25 457.12,-2734.25 457.12,-2734.25 457.12,-2740.25 451.12,-2746.25 445.12,-2746.25"/>
<text xml:space="preserve" text-anchor="middle" x="422.88" y="-2723.2" font-family="Times,serif" font-size="14.00">91: stop()</text>
</g>
<!-- node_37033b38&#45;&gt;node_37033b38 -->
<g id="edge60" class="edge">
<title>node_37033b38&#45;&gt;node_37033b38</title>
<path fill="none" stroke="#000000" stroke-width="2" d="M388.27,-2728.25C383.67,-2728.25 380.5,-2728.25 380.5,-2728.25 380.5,-2728.25 380.5,-2701.25 380.5,-2701.25 380.5,-2701.25 464.5,-2701.25 464.5,-2701.25 464.5,-2701.25 464.5,-2714.75 464.5,-2714.75 464.5,-2714.75 463.77,-2714.75 463.77,-2714.75"/>
<polygon fill="#000000" stroke="#000000" stroke-width="2" points="470.28,-2711.25 460.28,-2714.75 470.28,-2718.25 470.28,-2711.25"/>
</g>
<!-- node_cd6353a9 -->
<g id="node80" class="node">
<title>node_cd6353a9</title>
<path fill="#966f33" stroke="black" d="M487.12,-2818.25C487.12,-2818.25 358.62,-2818.25 358.62,-2818.25 352.62,-2818.25 346.62,-2812.25 346.62,-2806.25 346.62,-2806.25 346.62,-2794.25 346.62,-2794.25 346.62,-2788.25 352.62,-2782.25 358.62,-2782.25 358.62,-2782.25 487.12,-2782.25 487.12,-2782.25 493.12,-2782.25 499.12,-2788.25 499.12,-2794.25 499.12,-2794.25 499.12,-2806.25 499.12,-2806.25 499.12,-2812.25 493.12,-2818.25 487.12,-2818.25"/>
<text xml:space="preserve" text-anchor="middle" x="422.88" y="-2795.2" font-family="Times,serif" font-size="14.00">237: wait_for_snapshot()</text>
</g>
</g>
</svg>
