<?xml version="1.0" encoding="UTF-8" standalone="no"?>
<!DOCTYPE svg PUBLIC "-//W3C//DTD SVG 1.1//EN"
 "http://www.w3.org/Graphics/SVG/1.1/DTD/svg11.dtd">
<!-- Generated by graphviz version 2.43.0 (0)
 -->
<!-- Title: G Pages: 1 -->
<svg width="1665pt" height="2922pt"
 viewBox="0.00 0.00 1665.00 2921.50" xmlns="http://www.w3.org/2000/svg" xmlns:xlink="http://www.w3.org/1999/xlink">
<g id="graph0" class="graph" transform="scale(1 1) rotate(0) translate(4 2917.5)">
<title>G</title>
<polygon fill="white" stroke="transparent" points="-4,4 -4,-2917.5 1661,-2917.5 1661,4 -4,4"/>
<g id="clust2" class="cluster">
<title>cluster_364ccd96</title>
<polygon fill="none" stroke="black" stroke-dasharray="1,5" points="106,-117.5 106,-192.5 221,-192.5 221,-117.5 106,-117.5"/>
<text text-anchor="middle" x="163.5" y="-177.3" font-family="Times,serif" font-size="14.00">File: __init__</text>
</g>
<g id="clust3" class="cluster">
<title>cluster_5c0b6494</title>
<polygon fill="none" stroke="black" stroke-dasharray="1,5" points="106,-200.5 106,-275.5 221,-275.5 221,-200.5 106,-200.5"/>
<text text-anchor="middle" x="163.5" y="-260.3" font-family="Times,serif" font-size="14.00">File: __init__</text>
</g>
<g id="clust4" class="cluster">
<title>cluster_f5813bcd</title>
<polygon fill="none" stroke="black" stroke-dasharray="1,5" points="1355,-1113.5 1355,-1435.5 1585,-1435.5 1585,-1113.5 1355,-1113.5"/>
<text text-anchor="middle" x="1470" y="-1420.3" font-family="Times,serif" font-size="14.00">File: bar_preloader</text>
</g>
<g id="clust5" class="cluster">
<title>cluster_db573e61</title>
<polygon fill="none" stroke="black" stroke-dasharray="1,5" points="1363,-1167.5 1363,-1404.5 1577,-1404.5 1577,-1167.5 1363,-1167.5"/>
<text text-anchor="middle" x="1470" y="-1389.3" font-family="Times,serif" font-size="14.00">Class: BarPreloader</text>
</g>
<g id="clust6" class="cluster">
<title>cluster_e6e358ea</title>
<polygon fill="none" stroke="black" stroke-dasharray="1,5" points="690,-729.5 690,-1105.5 1649,-1105.5 1649,-729.5 690,-729.5"/>
<text text-anchor="middle" x="1169.5" y="-1090.3" font-family="Times,serif" font-size="14.00">File: data_coordinator</text>
</g>
<g id="clust7" class="cluster">
<title>cluster_08c61c78</title>
<polygon fill="none" stroke="black" stroke-dasharray="1,5" points="698,-783.5 698,-1074.5 1641,-1074.5 1641,-783.5 698,-783.5"/>
<text text-anchor="middle" x="1169.5" y="-1059.3" font-family="Times,serif" font-size="14.00">Class: DataCoordinator</text>
</g>
<g id="clust8" class="cluster">
<title>cluster_477990be</title>
<polygon fill="none" stroke="black" stroke-dasharray="1,5" points="17,-1113.5 17,-2137.5 958,-2137.5 958,-1113.5 17,-1113.5"/>
<text text-anchor="middle" x="487.5" y="-2122.3" font-family="Times,serif" font-size="14.00">File: orchestrator</text>
</g>
<g id="clust9" class="cluster">
<title>cluster_6e6586c5</title>
<polygon fill="none" stroke="black" stroke-dasharray="1,5" points="25,-1167.5 25,-2106.5 950,-2106.5 950,-1167.5 25,-1167.5"/>
<text text-anchor="middle" x="487.5" y="-2091.3" font-family="Times,serif" font-size="14.00">Class: Orchestrator</text>
</g>
<g id="clust10" class="cluster">
<title>cluster_ae33ed6b</title>
<polygon fill="none" stroke="black" stroke-dasharray="1,5" points="32.5,-283.5 32.5,-721.5 970.5,-721.5 970.5,-283.5 32.5,-283.5"/>
<text text-anchor="middle" x="501.5" y="-706.3" font-family="Times,serif" font-size="14.00">File: shutdown</text>
</g>
<g id="clust11" class="cluster">
<title>cluster_89cfa086</title>
<polygon fill="none" stroke="black" stroke-dasharray="1,5" points="386,-291.5 386,-690.5 962.5,-690.5 962.5,-291.5 386,-291.5"/>
<text text-anchor="middle" x="674.25" y="-675.3" font-family="Times,serif" font-size="14.00">Class: ShutdownCoordinator</text>
</g>
<g id="clust12" class="cluster">
<title>cluster_6c8fb716</title>
<polygon fill="none" stroke="black" stroke-dasharray="1,5" points="1008,-1443.5 1008,-2395.5 1585.5,-2395.5 1585.5,-1443.5 1008,-1443.5"/>
<text text-anchor="middle" x="1296.75" y="-2380.3" font-family="Times,serif" font-size="14.00">File: signal_coordinator</text>
</g>
<g id="clust13" class="cluster">
<title>cluster_374bf3a4</title>
<polygon fill="none" stroke="black" stroke-dasharray="1,5" points="1016,-1497.5 1016,-2364.5 1577.5,-2364.5 1577.5,-1497.5 1016,-1497.5"/>
<text text-anchor="middle" x="1296.75" y="-2349.3" font-family="Times,serif" font-size="14.00">Class: SignalCoordinator</text>
</g>
<g id="clust14" class="cluster">
<title>cluster_af45e6dc</title>
<polygon fill="none" stroke="black" stroke-dasharray="1,5" points="388.5,-2403.5 388.5,-2905.5 1614.5,-2905.5 1614.5,-2403.5 388.5,-2403.5"/>
<text text-anchor="middle" x="1001.5" y="-2890.3" font-family="Times,serif" font-size="14.00">File: snapshot_coordinator</text>
</g>
<g id="clust15" class="cluster">
<title>cluster_6ab6bce1</title>
<polygon fill="none" stroke="black" stroke-dasharray="1,5" points="396.5,-2457.5 396.5,-2874.5 1606.5,-2874.5 1606.5,-2457.5 396.5,-2457.5"/>
<text text-anchor="middle" x="1001.5" y="-2859.3" font-family="Times,serif" font-size="14.00">Class: SnapshotCoordinator</text>
</g>
<!-- Legend -->
<g id="node1" class="node">
<title>Legend</title>
<polygon fill="none" stroke="black" points="1.5,-88.5 1.5,-105.5 326.5,-105.5 326.5,-88.5 1.5,-88.5"/>
<text text-anchor="start" x="98" y="-93.3" font-family="Times,serif" font-size="14.00">Code2flow Legend</text>
<polygon fill="none" stroke="black" points="1.5,-0.5 1.5,-88.5 326.5,-88.5 326.5,-0.5 1.5,-0.5"/>
<polygon fill="none" stroke="black" points="3.5,-65.5 3.5,-86.5 274.5,-86.5 274.5,-65.5 3.5,-65.5"/>
<text text-anchor="start" x="79" y="-72.3" font-family="Times,serif" font-size="14.00">Regular function</text>
<polygon fill="#cccccc" stroke="transparent" points="274.5,-65.5 274.5,-86.5 324.5,-86.5 324.5,-65.5 274.5,-65.5"/>
<polygon fill="none" stroke="black" points="274.5,-65.5 274.5,-86.5 324.5,-86.5 324.5,-65.5 274.5,-65.5"/>
<polygon fill="none" stroke="black" points="3.5,-44.5 3.5,-65.5 274.5,-65.5 274.5,-44.5 3.5,-44.5"/>
<text text-anchor="start" x="17" y="-51.3" font-family="Times,serif" font-size="14.00">Trunk function (nothing calls this)</text>
<polygon fill="#966f33" stroke="transparent" points="274.5,-44.5 274.5,-65.5 324.5,-65.5 324.5,-44.5 274.5,-44.5"/>
<polygon fill="none" stroke="black" points="274.5,-44.5 274.5,-65.5 324.5,-65.5 324.5,-44.5 274.5,-44.5"/>
<polygon fill="none" stroke="black" points="3.5,-23.5 3.5,-44.5 274.5,-44.5 274.5,-23.5 3.5,-23.5"/>
<text text-anchor="start" x="6.5" y="-30.3" font-family="Times,serif" font-size="14.00">Leaf function (this calls nothing else)</text>
<polygon fill="#6db33f" stroke="transparent" points="274.5,-23.5 274.5,-44.5 324.5,-44.5 324.5,-23.5 274.5,-23.5"/>
<polygon fill="none" stroke="black" points="274.5,-23.5 274.5,-44.5 324.5,-44.5 324.5,-23.5 274.5,-23.5"/>
<polygon fill="none" stroke="black" points="3.5,-2.5 3.5,-23.5 274.5,-23.5 274.5,-2.5 3.5,-2.5"/>
<text text-anchor="start" x="92.5" y="-9.3" font-family="Times,serif" font-size="14.00">Function call</text>
<polygon fill="none" stroke="black" points="274.5,-2.5 274.5,-23.5 324.5,-23.5 324.5,-2.5 274.5,-2.5"/>
<text text-anchor="start" x="293" y="-9.3" font-family="Times,serif" font-size="14.00">→</text>
<polygon fill="none" stroke="black" points="2.5,-1.5 2.5,-87.5 325.5,-87.5 325.5,-1.5 2.5,-1.5"/>
<polygon fill="none" stroke="black" points="0,0 0,-107 327,-107 327,0 0,0"/>
</g>
<!-- node_0fc0f248 -->
<g id="node2" class="node">
<title>node_0fc0f248</title>
<path fill="#966f33" stroke="black" d="M201,-161.5C201,-161.5 126,-161.5 126,-161.5 120,-161.5 114,-155.5 114,-149.5 114,-149.5 114,-137.5 114,-137.5 114,-131.5 120,-125.5 126,-125.5 126,-125.5 201,-125.5 201,-125.5 207,-125.5 213,-131.5 213,-137.5 213,-137.5 213,-149.5 213,-149.5 213,-155.5 207,-161.5 201,-161.5"/>
<text text-anchor="middle" x="163.5" y="-139.8" font-family="Times,serif" font-size="14.00">0: (global)()</text>
</g>
<!-- node_8dd7fd5e -->
<g id="node3" class="node">
<title>node_8dd7fd5e</title>
<path fill="#966f33" stroke="black" d="M201,-244.5C201,-244.5 126,-244.5 126,-244.5 120,-244.5 114,-238.5 114,-232.5 114,-232.5 114,-220.5 114,-220.5 114,-214.5 120,-208.5 126,-208.5 126,-208.5 201,-208.5 201,-208.5 207,-208.5 213,-214.5 213,-220.5 213,-220.5 213,-232.5 213,-232.5 213,-238.5 207,-244.5 201,-244.5"/>
<text text-anchor="middle" x="163.5" y="-222.8" font-family="Times,serif" font-size="14.00">0: (global)()</text>
</g>
<!-- node_a9e99355 -->
<g id="node4" class="node">
<title>node_a9e99355</title>
<path fill="#966f33" stroke="black" d="M1507.5,-1157.5C1507.5,-1157.5 1432.5,-1157.5 1432.5,-1157.5 1426.5,-1157.5 1420.5,-1151.5 1420.5,-1145.5 1420.5,-1145.5 1420.5,-1133.5 1420.5,-1133.5 1420.5,-1127.5 1426.5,-1121.5 1432.5,-1121.5 1432.5,-1121.5 1507.5,-1121.5 1507.5,-1121.5 1513.5,-1121.5 1519.5,-1127.5 1519.5,-1133.5 1519.5,-1133.5 1519.5,-1145.5 1519.5,-1145.5 1519.5,-1151.5 1513.5,-1157.5 1507.5,-1157.5"/>
<text text-anchor="middle" x="1470" y="-1135.8" font-family="Times,serif" font-size="14.00">0: (global)()</text>
</g>
<!-- node_8281937d -->
<g id="node5" class="node">
<title>node_8281937d</title>
<path fill="#6db33f" stroke="black" d="M1510.5,-1373.5C1510.5,-1373.5 1429.5,-1373.5 1429.5,-1373.5 1423.5,-1373.5 1417.5,-1367.5 1417.5,-1361.5 1417.5,-1361.5 1417.5,-1349.5 1417.5,-1349.5 1417.5,-1343.5 1423.5,-1337.5 1429.5,-1337.5 1429.5,-1337.5 1510.5,-1337.5 1510.5,-1337.5 1516.5,-1337.5 1522.5,-1343.5 1522.5,-1349.5 1522.5,-1349.5 1522.5,-1361.5 1522.5,-1361.5 1522.5,-1367.5 1516.5,-1373.5 1510.5,-1373.5"/>
<text text-anchor="middle" x="1470" y="-1351.8" font-family="Times,serif" font-size="14.00">50: __init__()</text>
</g>
<!-- node_81185541 -->
<g id="node6" class="node">
<title>node_81185541</title>
<path fill="#966f33" stroke="black" d="M1551,-1319.5C1551,-1319.5 1389,-1319.5 1389,-1319.5 1383,-1319.5 1377,-1313.5 1377,-1307.5 1377,-1307.5 1377,-1295.5 1377,-1295.5 1377,-1289.5 1383,-1283.5 1389,-1283.5 1389,-1283.5 1551,-1283.5 1551,-1283.5 1557,-1283.5 1563,-1289.5 1563,-1295.5 1563,-1295.5 1563,-1307.5 1563,-1307.5 1563,-1313.5 1557,-1319.5 1551,-1319.5"/>
<text text-anchor="middle" x="1470" y="-1297.8" font-family="Times,serif" font-size="14.00">80: last_cache_refresh()</text>
</g>
<!-- node_6208b400 -->
<g id="node7" class="node">
<title>node_6208b400</title>
<path fill="#6db33f" stroke="black" d="M1541.5,-1265.5C1541.5,-1265.5 1398.5,-1265.5 1398.5,-1265.5 1392.5,-1265.5 1386.5,-1259.5 1386.5,-1253.5 1386.5,-1253.5 1386.5,-1241.5 1386.5,-1241.5 1386.5,-1235.5 1392.5,-1229.5 1398.5,-1229.5 1398.5,-1229.5 1541.5,-1229.5 1541.5,-1229.5 1547.5,-1229.5 1553.5,-1235.5 1553.5,-1241.5 1553.5,-1241.5 1553.5,-1253.5 1553.5,-1253.5 1553.5,-1259.5 1547.5,-1265.5 1541.5,-1265.5"/>
<text text-anchor="middle" x="1470" y="-1243.8" font-family="Times,serif" font-size="14.00">84: preload_startup()</text>
</g>
<!-- node_02ef0110 -->
<g id="node8" class="node">
<title>node_02ef0110</title>
<path fill="#966f33" stroke="black" d="M1557,-1211.5C1557,-1211.5 1383,-1211.5 1383,-1211.5 1377,-1211.5 1371,-1205.5 1371,-1199.5 1371,-1199.5 1371,-1187.5 1371,-1187.5 1371,-1181.5 1377,-1175.5 1383,-1175.5 1383,-1175.5 1557,-1175.5 1557,-1175.5 1563,-1175.5 1569,-1181.5 1569,-1187.5 1569,-1187.5 1569,-1199.5 1569,-1199.5 1569,-1205.5 1563,-1211.5 1557,-1211.5"/>
<text text-anchor="middle" x="1470" y="-1189.8" font-family="Times,serif" font-size="14.00">222: refresh_disk_cache()</text>
</g>
<!-- node_7379536f -->
<g id="node9" class="node">
<title>node_7379536f</title>
<path fill="#966f33" stroke="black" d="M869,-773.5C869,-773.5 794,-773.5 794,-773.5 788,-773.5 782,-767.5 782,-761.5 782,-761.5 782,-749.5 782,-749.5 782,-743.5 788,-737.5 794,-737.5 794,-737.5 869,-737.5 869,-737.5 875,-737.5 881,-743.5 881,-749.5 881,-749.5 881,-761.5 881,-761.5 881,-767.5 875,-773.5 869,-773.5"/>
<text text-anchor="middle" x="831.5" y="-751.8" font-family="Times,serif" font-size="14.00">0: (global)()</text>
</g>
<!-- node_669bd721 -->
<g id="node10" class="node">
<title>node_669bd721</title>
<path fill="#6db33f" stroke="black" d="M872,-827.5C872,-827.5 791,-827.5 791,-827.5 785,-827.5 779,-821.5 779,-815.5 779,-815.5 779,-803.5 779,-803.5 779,-797.5 785,-791.5 791,-791.5 791,-791.5 872,-791.5 872,-791.5 878,-791.5 884,-797.5 884,-803.5 884,-803.5 884,-815.5 884,-815.5 884,-821.5 878,-827.5 872,-827.5"/>
<text text-anchor="middle" x="831.5" y="-805.8" font-family="Times,serif" font-size="14.00">49: __init__()</text>
</g>
<!-- node_eb2a1ad0 -->
<g id="node11" class="node">
<title>node_eb2a1ad0</title>
<path fill="#6db33f" stroke="black" d="M1239.5,-908.5C1239.5,-908.5 1024.5,-908.5 1024.5,-908.5 1018.5,-908.5 1012.5,-902.5 1012.5,-896.5 1012.5,-896.5 1012.5,-884.5 1012.5,-884.5 1012.5,-878.5 1018.5,-872.5 1024.5,-872.5 1024.5,-872.5 1239.5,-872.5 1239.5,-872.5 1245.5,-872.5 1251.5,-878.5 1251.5,-884.5 1251.5,-884.5 1251.5,-896.5 1251.5,-896.5 1251.5,-902.5 1245.5,-908.5 1239.5,-908.5"/>
<text text-anchor="middle" x="1132" y="-886.8" font-family="Times,serif" font-size="14.00">173: _aggregate_account_info()</text>
</g>
<!-- node_3629c648 -->
<g id="node12" class="node">
<title>node_3629c648</title>
<path fill="#966f33" stroke="black" d="M940,-989.5C940,-989.5 723,-989.5 723,-989.5 717,-989.5 711,-983.5 711,-977.5 711,-977.5 711,-965.5 711,-965.5 711,-959.5 717,-953.5 723,-953.5 723,-953.5 940,-953.5 940,-953.5 946,-953.5 952,-959.5 952,-965.5 952,-965.5 952,-977.5 952,-977.5 952,-983.5 946,-989.5 940,-989.5"/>
<text text-anchor="middle" x="831.5" y="-967.8" font-family="Times,serif" font-size="14.00">329: _handle_mdqc_validation()</text>
</g>
<!-- node_c2419048 -->
<g id="node13" class="node">
<title>node_c2419048</title>
<path fill="#6db33f" stroke="black" d="M1223,-1043.5C1223,-1043.5 1041,-1043.5 1041,-1043.5 1035,-1043.5 1029,-1037.5 1029,-1031.5 1029,-1031.5 1029,-1019.5 1029,-1019.5 1029,-1013.5 1035,-1007.5 1041,-1007.5 1041,-1007.5 1223,-1007.5 1223,-1007.5 1229,-1007.5 1235,-1013.5 1235,-1019.5 1235,-1019.5 1235,-1031.5 1235,-1031.5 1235,-1037.5 1229,-1043.5 1223,-1043.5"/>
<text text-anchor="middle" x="1132" y="-1021.8" font-family="Times,serif" font-size="14.00">152: _reconcile_positions()</text>
</g>
<!-- node_0f03ca0e -->
<g id="node14" class="node">
<title>node_0f03ca0e</title>
<path fill="#cccccc" stroke="black" d="M1237.5,-989.5C1237.5,-989.5 1026.5,-989.5 1026.5,-989.5 1020.5,-989.5 1014.5,-983.5 1014.5,-977.5 1014.5,-977.5 1014.5,-965.5 1014.5,-965.5 1014.5,-959.5 1020.5,-953.5 1026.5,-953.5 1026.5,-953.5 1237.5,-953.5 1237.5,-953.5 1243.5,-953.5 1249.5,-959.5 1249.5,-965.5 1249.5,-965.5 1249.5,-977.5 1249.5,-977.5 1249.5,-983.5 1243.5,-989.5 1237.5,-989.5"/>
<text text-anchor="middle" x="1132" y="-967.8" font-family="Times,serif" font-size="14.00">225: _subscribe_market_data()</text>
</g>
<!-- node_a13b3f92 -->
<g id="node15" class="node">
<title>node_a13b3f92</title>
<path fill="#6db33f" stroke="black" d="M1621,-989.5C1621,-989.5 1319,-989.5 1319,-989.5 1313,-989.5 1307,-983.5 1307,-977.5 1307,-977.5 1307,-965.5 1307,-965.5 1307,-959.5 1313,-953.5 1319,-953.5 1319,-953.5 1621,-953.5 1621,-953.5 1627,-953.5 1633,-959.5 1633,-965.5 1633,-965.5 1633,-977.5 1633,-977.5 1633,-983.5 1627,-989.5 1621,-989.5"/>
<text text-anchor="middle" x="1470" y="-967.8" font-family="Times,serif" font-size="14.00">244: _subscribe_market_data_background()</text>
</g>
<!-- node_0f03ca0e&#45;&gt;node_a13b3f92 -->
<g id="edge1" class="edge">
<title>node_0f03ca0e&#45;&gt;node_a13b3f92</title>
<path fill="none" stroke="#d55e00" stroke-width="2" d="M1249.74,-971.5C1249.74,-971.5 1296.89,-971.5 1296.89,-971.5"/>
<polygon fill="#d55e00" stroke="#d55e00" stroke-width="2" points="1296.89,-975 1306.89,-971.5 1296.89,-968 1296.89,-975"/>
</g>
<!-- node_e8d199ff -->
<g id="node16" class="node">
<title>node_e8d199ff</title>
<path fill="#6db33f" stroke="black" d="M879,-935.5C879,-935.5 784,-935.5 784,-935.5 778,-935.5 772,-929.5 772,-923.5 772,-923.5 772,-911.5 772,-911.5 772,-905.5 778,-899.5 784,-899.5 784,-899.5 879,-899.5 879,-899.5 885,-899.5 891,-905.5 891,-911.5 891,-911.5 891,-923.5 891,-923.5 891,-929.5 885,-935.5 879,-935.5"/>
<text text-anchor="middle" x="831.5" y="-913.8" font-family="Times,serif" font-size="14.00">321: cleanup()</text>
</g>
<!-- node_42dabc6c -->
<g id="node17" class="node">
<title>node_42dabc6c</title>
<path fill="#966f33" stroke="black" d="M945,-881.5C945,-881.5 718,-881.5 718,-881.5 712,-881.5 706,-875.5 706,-869.5 706,-869.5 706,-857.5 706,-857.5 706,-851.5 712,-845.5 718,-845.5 718,-845.5 945,-845.5 945,-845.5 951,-845.5 957,-851.5 957,-857.5 957,-857.5 957,-869.5 957,-869.5 957,-875.5 951,-881.5 945,-881.5"/>
<text text-anchor="middle" x="831.5" y="-859.8" font-family="Times,serif" font-size="14.00">298: fetch_account_info_cached()</text>
</g>
<!-- node_42dabc6c&#45;&gt;node_eb2a1ad0 -->
<g id="edge2" class="edge">
<title>node_42dabc6c&#45;&gt;node_eb2a1ad0</title>
<path fill="none" stroke="#f0e442" stroke-width="2" d="M957.2,-877C957.2,-877 1002.09,-877 1002.09,-877"/>
<polygon fill="#f0e442" stroke="#f0e442" stroke-width="2" points="1002.09,-880.5 1012.09,-877 1002.09,-873.5 1002.09,-880.5"/>
</g>
<!-- node_384a2a80 -->
<g id="node18" class="node">
<title>node_384a2a80</title>
<path fill="#cccccc" stroke="black" d="M916.5,-1043.5C916.5,-1043.5 746.5,-1043.5 746.5,-1043.5 740.5,-1043.5 734.5,-1037.5 734.5,-1031.5 734.5,-1031.5 734.5,-1019.5 734.5,-1019.5 734.5,-1013.5 740.5,-1007.5 746.5,-1007.5 746.5,-1007.5 916.5,-1007.5 916.5,-1007.5 922.5,-1007.5 928.5,-1013.5 928.5,-1019.5 928.5,-1019.5 928.5,-1031.5 928.5,-1031.5 928.5,-1037.5 922.5,-1043.5 916.5,-1043.5"/>
<text text-anchor="middle" x="831.5" y="-1021.8" font-family="Times,serif" font-size="14.00">89: fetch_and_reconcile()</text>
</g>
<!-- node_384a2a80&#45;&gt;node_eb2a1ad0 -->
<g id="edge3" class="edge">
<title>node_384a2a80&#45;&gt;node_eb2a1ad0</title>
<path fill="none" stroke="#000000" stroke-width="2" d="M928.81,-1016.5C954.4,-1016.5 975,-1016.5 975,-1016.5 975,-1016.5 975,-904 975,-904 975,-904 1002.21,-904 1002.21,-904"/>
<polygon fill="#000000" stroke="#000000" stroke-width="2" points="1002.21,-907.5 1012.21,-904 1002.21,-900.5 1002.21,-907.5"/>
</g>
<!-- node_384a2a80&#45;&gt;node_c2419048 -->
<g id="edge4" class="edge">
<title>node_384a2a80&#45;&gt;node_c2419048</title>
<path fill="none" stroke="#000000" stroke-width="2" d="M928.65,-1034.5C928.65,-1034.5 1018.97,-1034.5 1018.97,-1034.5"/>
<polygon fill="#000000" stroke="#000000" stroke-width="2" points="1018.97,-1038 1028.97,-1034.5 1018.97,-1031 1018.97,-1038"/>
</g>
<!-- node_384a2a80&#45;&gt;node_0f03ca0e -->
<g id="edge5" class="edge">
<title>node_384a2a80&#45;&gt;node_0f03ca0e</title>
<path fill="none" stroke="#000000" stroke-width="2" d="M928.57,-1025.5C973.89,-1025.5 1018,-1025.5 1018,-1025.5 1018,-1025.5 1018,-999.78 1018,-999.78"/>
<polygon fill="#000000" stroke="#000000" stroke-width="2" points="1021.5,-999.78 1018,-989.78 1014.5,-999.78 1021.5,-999.78"/>
</g>
<!-- node_f155a948 -->
<g id="node19" class="node">
<title>node_f155a948</title>
<path fill="#966f33" stroke="black" d="M201,-1157.5C201,-1157.5 126,-1157.5 126,-1157.5 120,-1157.5 114,-1151.5 114,-1145.5 114,-1145.5 114,-1133.5 114,-1133.5 114,-1127.5 120,-1121.5 126,-1121.5 126,-1121.5 201,-1121.5 201,-1121.5 207,-1121.5 213,-1127.5 213,-1133.5 213,-1133.5 213,-1145.5 213,-1145.5 213,-1151.5 207,-1157.5 201,-1157.5"/>
<text text-anchor="middle" x="163.5" y="-1135.8" font-family="Times,serif" font-size="14.00">0: (global)()</text>
</g>
<!-- node_8a0ceee7 -->
<g id="node20" class="node">
<title>node_8a0ceee7</title>
<path fill="#966f33" stroke="black" d="M204,-2075.5C204,-2075.5 123,-2075.5 123,-2075.5 117,-2075.5 111,-2069.5 111,-2063.5 111,-2063.5 111,-2051.5 111,-2051.5 111,-2045.5 117,-2039.5 123,-2039.5 123,-2039.5 204,-2039.5 204,-2039.5 210,-2039.5 216,-2045.5 216,-2051.5 216,-2051.5 216,-2063.5 216,-2063.5 216,-2069.5 210,-2075.5 204,-2075.5"/>
<text text-anchor="middle" x="163.5" y="-2053.8" font-family="Times,serif" font-size="14.00">58: __init__()</text>
</g>
<!-- node_8a0ceee7&#45;&gt;node_669bd721 -->
<g id="edge6" class="edge">
<title>node_8a0ceee7&#45;&gt;node_669bd721</title>
<path fill="none" stroke="#cc79a7" stroke-width="2" d="M216.14,-2060.5C347.27,-2060.5 678,-2060.5 678,-2060.5 678,-2060.5 678,-809.5 678,-809.5 678,-809.5 768.67,-809.5 768.67,-809.5"/>
<polygon fill="#cc79a7" stroke="#cc79a7" stroke-width="2" points="768.67,-813 778.67,-809.5 768.67,-806 768.67,-813"/>
</g>
<!-- node_5300f0fb -->
<g id="node53" class="node">
<title>node_5300f0fb</title>
<path fill="#6db33f" stroke="black" d="M1172.5,-2333.5C1172.5,-2333.5 1091.5,-2333.5 1091.5,-2333.5 1085.5,-2333.5 1079.5,-2327.5 1079.5,-2321.5 1079.5,-2321.5 1079.5,-2309.5 1079.5,-2309.5 1079.5,-2303.5 1085.5,-2297.5 1091.5,-2297.5 1091.5,-2297.5 1172.5,-2297.5 1172.5,-2297.5 1178.5,-2297.5 1184.5,-2303.5 1184.5,-2309.5 1184.5,-2309.5 1184.5,-2321.5 1184.5,-2321.5 1184.5,-2327.5 1178.5,-2333.5 1172.5,-2333.5"/>
<text text-anchor="middle" x="1132" y="-2311.8" font-family="Times,serif" font-size="14.00">58: __init__()</text>
</g>
<!-- node_8a0ceee7&#45;&gt;node_5300f0fb -->
<g id="edge7" class="edge">
<title>node_8a0ceee7&#45;&gt;node_5300f0fb</title>
<path fill="none" stroke="#cc79a7" stroke-width="2" d="M181,-2075.64C181,-2134.37 181,-2315.5 181,-2315.5 181,-2315.5 1069.17,-2315.5 1069.17,-2315.5"/>
<polygon fill="#cc79a7" stroke="#cc79a7" stroke-width="2" points="1069.17,-2319 1079.17,-2315.5 1069.17,-2312 1069.17,-2319"/>
</g>
<!-- node_934ba70a -->
<g id="node70" class="node">
<title>node_934ba70a</title>
<path fill="#6db33f" stroke="black" d="M557,-2843.5C557,-2843.5 476,-2843.5 476,-2843.5 470,-2843.5 464,-2837.5 464,-2831.5 464,-2831.5 464,-2819.5 464,-2819.5 464,-2813.5 470,-2807.5 476,-2807.5 476,-2807.5 557,-2807.5 557,-2807.5 563,-2807.5 569,-2813.5 569,-2819.5 569,-2819.5 569,-2831.5 569,-2831.5 569,-2837.5 563,-2843.5 557,-2843.5"/>
<text text-anchor="middle" x="516.5" y="-2821.8" font-family="Times,serif" font-size="14.00">46: __init__()</text>
</g>
<!-- node_8a0ceee7&#45;&gt;node_934ba70a -->
<g id="edge8" class="edge">
<title>node_8a0ceee7&#45;&gt;node_934ba70a</title>
<path fill="none" stroke="#cc79a7" stroke-width="2" d="M146,-2075.73C146,-2192.03 146,-2825.5 146,-2825.5 146,-2825.5 453.81,-2825.5 453.81,-2825.5"/>
<polygon fill="#cc79a7" stroke="#cc79a7" stroke-width="2" points="453.81,-2829 463.81,-2825.5 453.81,-2822 453.81,-2829"/>
</g>
<!-- node_55962c68 -->
<g id="node21" class="node">
<title>node_55962c68</title>
<path fill="#6db33f" stroke="black" d="M604.5,-1751.5C604.5,-1751.5 428.5,-1751.5 428.5,-1751.5 422.5,-1751.5 416.5,-1745.5 416.5,-1739.5 416.5,-1739.5 416.5,-1727.5 416.5,-1727.5 416.5,-1721.5 422.5,-1715.5 428.5,-1715.5 428.5,-1715.5 604.5,-1715.5 604.5,-1715.5 610.5,-1715.5 616.5,-1721.5 616.5,-1727.5 616.5,-1727.5 616.5,-1739.5 616.5,-1739.5 616.5,-1745.5 610.5,-1751.5 604.5,-1751.5"/>
<text text-anchor="middle" x="516.5" y="-1729.8" font-family="Times,serif" font-size="14.00">262: _connect_providers()</text>
</g>
<!-- node_96d47ae7 -->
<g id="node22" class="node">
<title>node_96d47ae7</title>
<path fill="#6db33f" stroke="black" d="M930,-1859.5C930,-1859.5 733,-1859.5 733,-1859.5 727,-1859.5 721,-1853.5 721,-1847.5 721,-1847.5 721,-1835.5 721,-1835.5 721,-1829.5 727,-1823.5 733,-1823.5 733,-1823.5 930,-1823.5 930,-1823.5 936,-1823.5 942,-1829.5 942,-1835.5 942,-1835.5 942,-1847.5 942,-1847.5 942,-1853.5 936,-1859.5 930,-1859.5"/>
<text text-anchor="middle" x="831.5" y="-1837.8" font-family="Times,serif" font-size="14.00">338: _detect_market_alerts()</text>
</g>
<!-- node_5af614e0 -->
<g id="node23" class="node">
<title>node_5af614e0</title>
<path fill="#966f33" stroke="black" d="M282,-2021.5C282,-2021.5 45,-2021.5 45,-2021.5 39,-2021.5 33,-2015.5 33,-2009.5 33,-2009.5 33,-1997.5 33,-1997.5 33,-1991.5 39,-1985.5 45,-1985.5 45,-1985.5 282,-1985.5 282,-1985.5 288,-1985.5 294,-1991.5 294,-1997.5 294,-1997.5 294,-2009.5 294,-2009.5 294,-2015.5 288,-2021.5 282,-2021.5"/>
<text text-anchor="middle" x="163.5" y="-1999.8" font-family="Times,serif" font-size="14.00">333: _on_broker_position_update()</text>
</g>
<!-- node_1bbb1fd2 -->
<g id="node24" class="node">
<title>node_1bbb1fd2</title>
<path fill="#6db33f" stroke="black" d="M612.5,-1805.5C612.5,-1805.5 420.5,-1805.5 420.5,-1805.5 414.5,-1805.5 408.5,-1799.5 408.5,-1793.5 408.5,-1793.5 408.5,-1781.5 408.5,-1781.5 408.5,-1775.5 414.5,-1769.5 420.5,-1769.5 420.5,-1769.5 612.5,-1769.5 612.5,-1769.5 618.5,-1769.5 624.5,-1775.5 624.5,-1781.5 624.5,-1781.5 624.5,-1793.5 624.5,-1793.5 624.5,-1799.5 618.5,-1805.5 612.5,-1805.5"/>
<text text-anchor="middle" x="516.5" y="-1783.8" font-family="Times,serif" font-size="14.00">391: _perform_warm_start()</text>
</g>
<!-- node_015fa332 -->
<g id="node25" class="node">
<title>node_015fa332</title>
<path fill="#cccccc" stroke="black" d="M914.5,-2021.5C914.5,-2021.5 748.5,-2021.5 748.5,-2021.5 742.5,-2021.5 736.5,-2015.5 736.5,-2009.5 736.5,-2009.5 736.5,-1997.5 736.5,-1997.5 736.5,-1991.5 742.5,-1985.5 748.5,-1985.5 748.5,-1985.5 914.5,-1985.5 914.5,-1985.5 920.5,-1985.5 926.5,-1991.5 926.5,-1997.5 926.5,-1997.5 926.5,-2009.5 926.5,-2009.5 926.5,-2015.5 920.5,-2021.5 914.5,-2021.5"/>
<text text-anchor="middle" x="831.5" y="-1999.8" font-family="Times,serif" font-size="14.00">372: _periodic_cleanup()</text>
</g>
<!-- node_6bd1aea3 -->
<g id="node61" class="node">
<title>node_6bd1aea3</title>
<path fill="#cccccc" stroke="black" d="M1209.5,-2045.5C1209.5,-2045.5 1054.5,-2045.5 1054.5,-2045.5 1048.5,-2045.5 1042.5,-2039.5 1042.5,-2033.5 1042.5,-2033.5 1042.5,-2021.5 1042.5,-2021.5 1042.5,-2015.5 1048.5,-2009.5 1054.5,-2009.5 1054.5,-2009.5 1209.5,-2009.5 1209.5,-2009.5 1215.5,-2009.5 1221.5,-2015.5 1221.5,-2021.5 1221.5,-2021.5 1221.5,-2033.5 1221.5,-2033.5 1221.5,-2039.5 1215.5,-2045.5 1209.5,-2045.5"/>
<text text-anchor="middle" x="1132" y="-2023.8" font-family="Times,serif" font-size="14.00">371: clear_cooldowns()</text>
</g>
<!-- node_015fa332&#45;&gt;node_6bd1aea3 -->
<g id="edge9" class="edge">
<title>node_015fa332&#45;&gt;node_6bd1aea3</title>
<path fill="none" stroke="#56b4e9" stroke-width="2" d="M926.58,-2017.5C926.58,-2017.5 1032.4,-2017.5 1032.4,-2017.5"/>
<polygon fill="#56b4e9" stroke="#56b4e9" stroke-width="2" points="1032.4,-2021 1042.4,-2017.5 1032.4,-2014 1032.4,-2021"/>
</g>
<!-- node_c920b3c2 -->
<g id="node26" class="node">
<title>node_c920b3c2</title>
<path fill="#cccccc" stroke="black" d="M925.5,-1913.5C925.5,-1913.5 737.5,-1913.5 737.5,-1913.5 731.5,-1913.5 725.5,-1907.5 725.5,-1901.5 725.5,-1901.5 725.5,-1889.5 725.5,-1889.5 725.5,-1883.5 731.5,-1877.5 737.5,-1877.5 737.5,-1877.5 925.5,-1877.5 925.5,-1877.5 931.5,-1877.5 937.5,-1883.5 937.5,-1889.5 937.5,-1889.5 937.5,-1901.5 937.5,-1901.5 937.5,-1907.5 931.5,-1913.5 925.5,-1913.5"/>
<text text-anchor="middle" x="831.5" y="-1891.8" font-family="Times,serif" font-size="14.00">403: _preload_signal_bars()</text>
</g>
<!-- node_2a531e00 -->
<g id="node64" class="node">
<title>node_2a531e00</title>
<path fill="#cccccc" stroke="black" d="M1222.5,-1829.5C1222.5,-1829.5 1041.5,-1829.5 1041.5,-1829.5 1035.5,-1829.5 1029.5,-1823.5 1029.5,-1817.5 1029.5,-1817.5 1029.5,-1805.5 1029.5,-1805.5 1029.5,-1799.5 1035.5,-1793.5 1041.5,-1793.5 1041.5,-1793.5 1222.5,-1793.5 1222.5,-1793.5 1228.5,-1793.5 1234.5,-1799.5 1234.5,-1805.5 1234.5,-1805.5 1234.5,-1817.5 1234.5,-1817.5 1234.5,-1823.5 1228.5,-1829.5 1222.5,-1829.5"/>
<text text-anchor="middle" x="1132" y="-1807.8" font-family="Times,serif" font-size="14.00">388: preload_bar_history()</text>
</g>
<!-- node_c920b3c2&#45;&gt;node_2a531e00 -->
<g id="edge10" class="edge">
<title>node_c920b3c2&#45;&gt;node_2a531e00</title>
<path fill="none" stroke="#56b4e9" stroke-width="2" d="M937.72,-1889.5C987.06,-1889.5 1035,-1889.5 1035,-1889.5 1035,-1889.5 1035,-1839.59 1035,-1839.59"/>
<polygon fill="#56b4e9" stroke="#56b4e9" stroke-width="2" points="1038.5,-1839.59 1035,-1829.59 1031.5,-1839.59 1038.5,-1839.59"/>
</g>
<!-- node_2e111026 -->
<g id="node27" class="node">
<title>node_2e111026</title>
<path fill="#6db33f" stroke="black" d="M658,-1859.5C658,-1859.5 375,-1859.5 375,-1859.5 369,-1859.5 363,-1853.5 363,-1847.5 363,-1847.5 363,-1835.5 363,-1835.5 363,-1829.5 369,-1823.5 375,-1823.5 375,-1823.5 658,-1823.5 658,-1823.5 664,-1823.5 670,-1829.5 670,-1835.5 670,-1835.5 670,-1847.5 670,-1847.5 670,-1853.5 664,-1859.5 658,-1859.5"/>
<text text-anchor="middle" x="516.5" y="-1837.8" font-family="Times,serif" font-size="14.00">277: _subscribe_components_to_events()</text>
</g>
<!-- node_cac1441f -->
<g id="node28" class="node">
<title>node_cac1441f</title>
<path fill="#cccccc" stroke="black" d="M577.5,-1913.5C577.5,-1913.5 455.5,-1913.5 455.5,-1913.5 449.5,-1913.5 443.5,-1907.5 443.5,-1901.5 443.5,-1901.5 443.5,-1889.5 443.5,-1889.5 443.5,-1883.5 449.5,-1877.5 455.5,-1877.5 455.5,-1877.5 577.5,-1877.5 577.5,-1877.5 583.5,-1877.5 589.5,-1883.5 589.5,-1889.5 589.5,-1889.5 589.5,-1901.5 589.5,-1901.5 589.5,-1907.5 583.5,-1913.5 577.5,-1913.5"/>
<text text-anchor="middle" x="516.5" y="-1891.8" font-family="Times,serif" font-size="14.00">282: _timer_loop()</text>
</g>
<!-- node_cac1441f&#45;&gt;node_384a2a80 -->
<g id="edge11" class="edge">
<title>node_cac1441f&#45;&gt;node_384a2a80</title>
<path fill="none" stroke="#cc79a7" stroke-width="2" d="M589.92,-1886.5C635.32,-1886.5 685,-1886.5 685,-1886.5 685,-1886.5 685,-1031.5 685,-1031.5 685,-1031.5 724.19,-1031.5 724.19,-1031.5"/>
<polygon fill="#cc79a7" stroke="#cc79a7" stroke-width="2" points="724.19,-1035 734.19,-1031.5 724.19,-1028 724.19,-1035"/>
</g>
<!-- node_cac1441f&#45;&gt;node_96d47ae7 -->
<g id="edge12" class="edge">
<title>node_cac1441f&#45;&gt;node_96d47ae7</title>
<path fill="none" stroke="#cc79a7" stroke-width="2" d="M589.68,-1895.5C640.45,-1895.5 699,-1895.5 699,-1895.5 699,-1895.5 699,-1841.5 699,-1841.5 699,-1841.5 710.88,-1841.5 710.88,-1841.5"/>
<polygon fill="#cc79a7" stroke="#cc79a7" stroke-width="2" points="710.88,-1845 720.88,-1841.5 710.88,-1838 710.88,-1845"/>
</g>
<!-- node_cac1441f&#45;&gt;node_015fa332 -->
<g id="edge13" class="edge">
<title>node_cac1441f&#45;&gt;node_015fa332</title>
<path fill="none" stroke="#cc79a7" stroke-width="2" d="M578,-1913.82C578,-1944.63 578,-2003.5 578,-2003.5 578,-2003.5 726.38,-2003.5 726.38,-2003.5"/>
<polygon fill="#cc79a7" stroke="#cc79a7" stroke-width="2" points="726.38,-2007 736.38,-2003.5 726.38,-2000 726.38,-2007"/>
</g>
<!-- node_cac1441f&#45;&gt;node_c920b3c2 -->
<g id="edge14" class="edge">
<title>node_cac1441f&#45;&gt;node_c920b3c2</title>
<path fill="none" stroke="#cc79a7" stroke-width="2" d="M589.56,-1904.5C589.56,-1904.5 715.4,-1904.5 715.4,-1904.5"/>
<polygon fill="#cc79a7" stroke="#cc79a7" stroke-width="2" points="715.4,-1908 725.4,-1904.5 715.4,-1901 715.4,-1908"/>
</g>
<!-- node_7ae20f14 -->
<g id="node29" class="node">
<title>node_7ae20f14</title>
<path fill="#966f33" stroke="black" d="M255,-1445.5C255,-1445.5 72,-1445.5 72,-1445.5 66,-1445.5 60,-1439.5 60,-1433.5 60,-1433.5 60,-1421.5 60,-1421.5 60,-1415.5 66,-1409.5 72,-1409.5 72,-1409.5 255,-1409.5 255,-1409.5 261,-1409.5 267,-1415.5 267,-1421.5 267,-1421.5 267,-1433.5 267,-1433.5 267,-1439.5 261,-1445.5 255,-1445.5"/>
<text text-anchor="middle" x="163.5" y="-1423.8" font-family="Times,serif" font-size="14.00">472: get_event_bus_stats()</text>
</g>
<!-- node_3b3e8fe7 -->
<g id="node62" class="node">
<title>node_3b3e8fe7</title>
<path fill="#6db33f" stroke="black" d="M1184,-1703.5C1184,-1703.5 1080,-1703.5 1080,-1703.5 1074,-1703.5 1068,-1697.5 1068,-1691.5 1068,-1691.5 1068,-1679.5 1068,-1679.5 1068,-1673.5 1074,-1667.5 1080,-1667.5 1080,-1667.5 1184,-1667.5 1184,-1667.5 1190,-1667.5 1196,-1673.5 1196,-1679.5 1196,-1679.5 1196,-1691.5 1196,-1691.5 1196,-1697.5 1190,-1703.5 1184,-1703.5"/>
<text text-anchor="middle" x="1132" y="-1681.8" font-family="Times,serif" font-size="14.00">345: get_stats()</text>
</g>
<!-- node_7ae20f14&#45;&gt;node_3b3e8fe7 -->
<g id="edge15" class="edge">
<title>node_7ae20f14&#45;&gt;node_3b3e8fe7</title>
<path fill="none" stroke="#f0e442" stroke-width="2" d="M267.16,-1427.5C279.6,-1427.5 288,-1427.5 288,-1427.5 288,-1427.5 288,-1682.5 288,-1682.5 288,-1682.5 1057.87,-1682.5 1057.87,-1682.5"/>
<polygon fill="#f0e442" stroke="#f0e442" stroke-width="2" points="1057.87,-1686 1067.87,-1682.5 1057.87,-1679 1057.87,-1686"/>
</g>
<!-- node_601bf9a6 -->
<g id="node30" class="node">
<title>node_601bf9a6</title>
<path fill="#966f33" stroke="black" d="M271,-1805.5C271,-1805.5 56,-1805.5 56,-1805.5 50,-1805.5 44,-1799.5 44,-1793.5 44,-1793.5 44,-1781.5 44,-1781.5 44,-1775.5 50,-1769.5 56,-1769.5 56,-1769.5 271,-1769.5 271,-1769.5 277,-1769.5 283,-1775.5 283,-1781.5 283,-1781.5 283,-1793.5 283,-1793.5 283,-1799.5 277,-1805.5 271,-1805.5"/>
<text text-anchor="middle" x="163.5" y="-1783.8" font-family="Times,serif" font-size="14.00">464: get_latest_market_alerts()</text>
</g>
<!-- node_9c081154 -->
<g id="node31" class="node">
<title>node_9c081154</title>
<path fill="#cccccc" stroke="black" d="M263.5,-1733.5C263.5,-1733.5 63.5,-1733.5 63.5,-1733.5 57.5,-1733.5 51.5,-1727.5 51.5,-1721.5 51.5,-1721.5 51.5,-1709.5 51.5,-1709.5 51.5,-1703.5 57.5,-1697.5 63.5,-1697.5 63.5,-1697.5 263.5,-1697.5 263.5,-1697.5 269.5,-1697.5 275.5,-1703.5 275.5,-1709.5 275.5,-1709.5 275.5,-1721.5 275.5,-1721.5 275.5,-1727.5 269.5,-1733.5 263.5,-1733.5"/>
<text text-anchor="middle" x="163.5" y="-1711.8" font-family="Times,serif" font-size="14.00">468: get_latest_risk_signals()</text>
</g>
<!-- node_9c081154&#45;&gt;node_9c081154 -->
<g id="edge16" class="edge">
<title>node_9c081154&#45;&gt;node_9c081154</title>
<path fill="none" stroke="#f0e442" stroke-width="2" d="M51.02,-1715.5C42.42,-1715.5 37,-1715.5 37,-1715.5 37,-1715.5 37,-1739.5 37,-1739.5 37,-1739.5 291,-1739.5 291,-1739.5 291,-1739.5 291,-1724.5 291,-1724.5 291,-1724.5 285.62,-1724.5 285.62,-1724.5"/>
<polygon fill="#f0e442" stroke="#f0e442" stroke-width="2" points="285.62,-1721 275.62,-1724.5 285.62,-1728 285.62,-1721"/>
</g>
<!-- node_70dbde85 -->
<g id="node32" class="node">
<title>node_70dbde85</title>
<path fill="#cccccc" stroke="black" d="M254,-1661.5C254,-1661.5 73,-1661.5 73,-1661.5 67,-1661.5 61,-1655.5 61,-1649.5 61,-1649.5 61,-1637.5 61,-1637.5 61,-1631.5 67,-1625.5 73,-1625.5 73,-1625.5 254,-1625.5 254,-1625.5 260,-1625.5 266,-1631.5 266,-1637.5 266,-1637.5 266,-1649.5 266,-1649.5 266,-1655.5 260,-1661.5 254,-1661.5"/>
<text text-anchor="middle" x="163.5" y="-1639.8" font-family="Times,serif" font-size="14.00">456: get_latest_snapshot()</text>
</g>
<!-- node_70dbde85&#45;&gt;node_70dbde85 -->
<g id="edge17" class="edge">
<title>node_70dbde85&#45;&gt;node_70dbde85</title>
<path fill="none" stroke="#0072b2" stroke-width="2" d="M60.79,-1643.5C58.37,-1643.5 57,-1643.5 57,-1643.5 57,-1643.5 57,-1616.5 57,-1616.5 57,-1616.5 270,-1616.5 270,-1616.5 270,-1616.5 270,-1643.5 270,-1643.5 270,-1643.5 269.62,-1643.5 269.62,-1643.5"/>
<polygon fill="#0072b2" stroke="#0072b2" stroke-width="2" points="276.21,-1640 266.21,-1643.5 276.21,-1647 276.21,-1640"/>
</g>
<!-- node_9f82189a -->
<g id="node33" class="node">
<title>node_9f82189a</title>
<path fill="#966f33" stroke="black" d="M262,-1607.5C262,-1607.5 65,-1607.5 65,-1607.5 59,-1607.5 53,-1601.5 53,-1595.5 53,-1595.5 53,-1583.5 53,-1583.5 53,-1577.5 59,-1571.5 65,-1571.5 65,-1571.5 262,-1571.5 262,-1571.5 268,-1571.5 274,-1577.5 274,-1583.5 274,-1583.5 274,-1595.5 274,-1595.5 274,-1601.5 268,-1607.5 262,-1607.5"/>
<text text-anchor="middle" x="163.5" y="-1585.8" font-family="Times,serif" font-size="14.00">484: get_positions_preview()</text>
</g>
<!-- node_f884d49a -->
<g id="node34" class="node">
<title>node_f884d49a</title>
<path fill="#966f33" stroke="black" d="M268,-1553.5C268,-1553.5 59,-1553.5 59,-1553.5 53,-1553.5 47,-1547.5 47,-1541.5 47,-1541.5 47,-1529.5 47,-1529.5 47,-1523.5 53,-1517.5 59,-1517.5 59,-1517.5 268,-1517.5 268,-1517.5 274,-1517.5 280,-1523.5 280,-1529.5 280,-1529.5 280,-1541.5 280,-1541.5 280,-1547.5 274,-1553.5 268,-1553.5"/>
<text text-anchor="middle" x="163.5" y="-1531.8" font-family="Times,serif" font-size="14.00">478: get_readiness_snapshot()</text>
</g>
<!-- node_a2819ae0 -->
<g id="node35" class="node">
<title>node_a2819ae0</title>
<path fill="#966f33" stroke="black" d="M249,-1499.5C249,-1499.5 78,-1499.5 78,-1499.5 72,-1499.5 66,-1493.5 66,-1487.5 66,-1487.5 66,-1475.5 66,-1475.5 66,-1469.5 72,-1463.5 78,-1463.5 78,-1463.5 249,-1463.5 249,-1463.5 255,-1463.5 261,-1469.5 261,-1475.5 261,-1475.5 261,-1487.5 261,-1487.5 261,-1493.5 255,-1499.5 249,-1499.5"/>
<text text-anchor="middle" x="163.5" y="-1477.8" font-family="Times,serif" font-size="14.00">506: signal_coordinator()</text>
</g>
<!-- node_e607b20b -->
<g id="node36" class="node">
<title>node_e607b20b</title>
<path fill="#cccccc" stroke="black" d="M200.5,-1859.5C200.5,-1859.5 126.5,-1859.5 126.5,-1859.5 120.5,-1859.5 114.5,-1853.5 114.5,-1847.5 114.5,-1847.5 114.5,-1835.5 114.5,-1835.5 114.5,-1829.5 120.5,-1823.5 126.5,-1823.5 126.5,-1823.5 200.5,-1823.5 200.5,-1823.5 206.5,-1823.5 212.5,-1829.5 212.5,-1835.5 212.5,-1835.5 212.5,-1847.5 212.5,-1847.5 212.5,-1853.5 206.5,-1859.5 200.5,-1859.5"/>
<text text-anchor="middle" x="163.5" y="-1837.8" font-family="Times,serif" font-size="14.00">164: start()</text>
</g>
<!-- node_e607b20b&#45;&gt;node_384a2a80 -->
<g id="edge18" class="edge">
<title>node_e607b20b&#45;&gt;node_384a2a80</title>
<path fill="none" stroke="#009e73" stroke-width="2" d="M212.62,-1841.5C255.52,-1841.5 311,-1841.5 311,-1841.5 311,-1841.5 311,-1019.5 311,-1019.5 311,-1019.5 724.21,-1019.5 724.21,-1019.5"/>
<polygon fill="#009e73" stroke="#009e73" stroke-width="2" points="724.21,-1023 734.21,-1019.5 724.21,-1016 724.21,-1023"/>
</g>
<!-- node_e607b20b&#45;&gt;node_55962c68 -->
<g id="edge19" class="edge">
<title>node_e607b20b&#45;&gt;node_55962c68</title>
<path fill="none" stroke="#009e73" stroke-width="2" d="M212.81,-1829.5C249.05,-1829.5 292,-1829.5 292,-1829.5 292,-1829.5 292,-1745.5 292,-1745.5 292,-1745.5 406.4,-1745.5 406.4,-1745.5"/>
<polygon fill="#009e73" stroke="#009e73" stroke-width="2" points="406.4,-1749 416.4,-1745.5 406.4,-1742 406.4,-1749"/>
</g>
<!-- node_e607b20b&#45;&gt;node_1bbb1fd2 -->
<g id="edge20" class="edge">
<title>node_e607b20b&#45;&gt;node_1bbb1fd2</title>
<path fill="none" stroke="#009e73" stroke-width="2" d="M212.83,-1835.5C249.42,-1835.5 293,-1835.5 293,-1835.5 293,-1835.5 293,-1787.5 293,-1787.5 293,-1787.5 398.35,-1787.5 398.35,-1787.5"/>
<polygon fill="#009e73" stroke="#009e73" stroke-width="2" points="398.35,-1791 408.35,-1787.5 398.35,-1784 398.35,-1791"/>
</g>
<!-- node_e607b20b&#45;&gt;node_2e111026 -->
<g id="edge21" class="edge">
<title>node_e607b20b&#45;&gt;node_2e111026</title>
<path fill="none" stroke="#009e73" stroke-width="2" d="M212.58,-1847.5C212.58,-1847.5 352.8,-1847.5 352.8,-1847.5"/>
<polygon fill="#009e73" stroke="#009e73" stroke-width="2" points="352.8,-1851 362.8,-1847.5 352.8,-1844 352.8,-1851"/>
</g>
<!-- node_e607b20b&#45;&gt;node_cac1441f -->
<g id="edge22" class="edge">
<title>node_e607b20b&#45;&gt;node_cac1441f</title>
<path fill="none" stroke="#009e73" stroke-width="2" d="M164,-1859.78C164,-1875.45 164,-1895.5 164,-1895.5 164,-1895.5 433.46,-1895.5 433.46,-1895.5"/>
<polygon fill="#009e73" stroke="#009e73" stroke-width="2" points="433.46,-1899 443.46,-1895.5 433.46,-1892 433.46,-1899"/>
</g>
<!-- node_e607b20b&#45;&gt;node_e607b20b -->
<g id="edge23" class="edge">
<title>node_e607b20b&#45;&gt;node_e607b20b</title>
<path fill="none" stroke="#009e73" stroke-width="2" d="M114.44,-1841.5C96.27,-1841.5 80,-1841.5 80,-1841.5 80,-1841.5 80,-1814.5 80,-1814.5 80,-1814.5 248,-1814.5 248,-1814.5 248,-1814.5 248,-1853.5 248,-1853.5 248,-1853.5 222.65,-1853.5 222.65,-1853.5"/>
<polygon fill="#009e73" stroke="#009e73" stroke-width="2" points="222.65,-1850 212.65,-1853.5 222.65,-1857 222.65,-1850"/>
</g>
<!-- node_a5a91685 -->
<g id="node37" class="node">
<title>node_a5a91685</title>
<path fill="#cccccc" stroke="black" d="M198.5,-1283.5C198.5,-1283.5 128.5,-1283.5 128.5,-1283.5 122.5,-1283.5 116.5,-1277.5 116.5,-1271.5 116.5,-1271.5 116.5,-1259.5 116.5,-1259.5 116.5,-1253.5 122.5,-1247.5 128.5,-1247.5 128.5,-1247.5 198.5,-1247.5 198.5,-1247.5 204.5,-1247.5 210.5,-1253.5 210.5,-1259.5 210.5,-1259.5 210.5,-1271.5 210.5,-1271.5 210.5,-1277.5 204.5,-1283.5 198.5,-1283.5"/>
<text text-anchor="middle" x="163.5" y="-1261.8" font-family="Times,serif" font-size="14.00">220: stop()</text>
</g>
<!-- node_a5a91685&#45;&gt;node_e8d199ff -->
<g id="edge29" class="edge">
<title>node_a5a91685&#45;&gt;node_e8d199ff</title>
<path fill="none" stroke="#0072b2" stroke-width="2" d="M210.68,-1251.1C237.19,-1251.1 265,-1251.1 265,-1251.1 265,-1251.1 265,-917.5 265,-917.5 265,-917.5 761.95,-917.5 761.95,-917.5"/>
<polygon fill="#0072b2" stroke="#0072b2" stroke-width="2" points="761.95,-921 771.95,-917.5 761.95,-914 761.95,-921"/>
</g>
<!-- node_a5a91685&#45;&gt;node_a5a91685 -->
<g id="edge30" class="edge">
<title>node_a5a91685&#45;&gt;node_a5a91685</title>
<path fill="none" stroke="#0072b2" stroke-width="2" d="M116.21,-1265.5C102.91,-1265.5 92,-1265.5 92,-1265.5 92,-1265.5 92,-1238.5 92,-1238.5 92,-1238.5 235,-1238.5 235,-1238.5 235,-1238.5 235,-1261.9 235,-1261.9 235,-1261.9 220.79,-1261.9 220.79,-1261.9"/>
<polygon fill="#0072b2" stroke="#0072b2" stroke-width="2" points="220.79,-1258.4 210.79,-1261.9 220.79,-1265.4 220.79,-1258.4"/>
</g>
<!-- node_534b3224 -->
<g id="node48" class="node">
<title>node_534b3224</title>
<path fill="#cccccc" stroke="black" d="M566.5,-443.5C566.5,-443.5 466.5,-443.5 466.5,-443.5 460.5,-443.5 454.5,-437.5 454.5,-431.5 454.5,-431.5 454.5,-419.5 454.5,-419.5 454.5,-413.5 460.5,-407.5 466.5,-407.5 466.5,-407.5 566.5,-407.5 566.5,-407.5 572.5,-407.5 578.5,-413.5 578.5,-419.5 578.5,-419.5 578.5,-431.5 578.5,-431.5 578.5,-437.5 572.5,-443.5 566.5,-443.5"/>
<text text-anchor="middle" x="516.5" y="-421.8" font-family="Times,serif" font-size="14.00">91: shutdown()</text>
</g>
<!-- node_a5a91685&#45;&gt;node_534b3224 -->
<g id="edge36" class="edge">
<title>node_a5a91685&#45;&gt;node_534b3224</title>
<path fill="none" stroke="#0072b2" stroke-width="2" d="M210.59,-1254.7C246.2,-1254.7 289,-1254.7 289,-1254.7 289,-1254.7 289,-431.5 289,-431.5 289,-431.5 444.33,-431.5 444.33,-431.5"/>
<polygon fill="#0072b2" stroke="#0072b2" stroke-width="2" points="444.33,-435 454.33,-431.5 444.33,-428 444.33,-435"/>
</g>
<!-- node_88c2ef6f -->
<g id="node38" class="node">
<title>node_88c2ef6f</title>
<path fill="#cccccc" stroke="black" d="M247.5,-1211.5C247.5,-1211.5 79.5,-1211.5 79.5,-1211.5 73.5,-1211.5 67.5,-1205.5 67.5,-1199.5 67.5,-1199.5 67.5,-1187.5 67.5,-1187.5 67.5,-1181.5 73.5,-1175.5 79.5,-1175.5 79.5,-1175.5 247.5,-1175.5 247.5,-1175.5 253.5,-1175.5 259.5,-1181.5 259.5,-1187.5 259.5,-1187.5 259.5,-1199.5 259.5,-1199.5 259.5,-1205.5 253.5,-1211.5 247.5,-1211.5"/>
<text text-anchor="middle" x="163.5" y="-1189.8" font-family="Times,serif" font-size="14.00">460: wait_for_snapshot()</text>
</g>
<!-- node_88c2ef6f&#45;&gt;node_88c2ef6f -->
<g id="edge37" class="edge">
<title>node_88c2ef6f&#45;&gt;node_88c2ef6f</title>
<path fill="none" stroke="#cc79a7" stroke-width="2" d="M67.31,-1193.5C65.19,-1193.5 64,-1193.5 64,-1193.5 64,-1193.5 64,-1166.5 64,-1166.5 64,-1166.5 262,-1166.5 262,-1166.5 262,-1166.5 262,-1193.5 262,-1193.5 262,-1193.5 261.76,-1193.5 261.76,-1193.5"/>
<polygon fill="#cc79a7" stroke="#cc79a7" stroke-width="2" points="269.57,-1190 259.57,-1193.5 269.56,-1197 269.57,-1190"/>
</g>
<!-- node_74265514 -->
<g id="node39" class="node">
<title>node_74265514</title>
<path fill="#966f33" stroke="black" d="M201,-593.5C201,-593.5 126,-593.5 126,-593.5 120,-593.5 114,-587.5 114,-581.5 114,-581.5 114,-569.5 114,-569.5 114,-563.5 120,-557.5 126,-557.5 126,-557.5 201,-557.5 201,-557.5 207,-557.5 213,-563.5 213,-569.5 213,-569.5 213,-581.5 213,-581.5 213,-587.5 207,-593.5 201,-593.5"/>
<text text-anchor="middle" x="163.5" y="-571.8" font-family="Times,serif" font-size="14.00">0: (global)()</text>
</g>
<!-- node_756b1ad5 -->
<g id="node40" class="node">
<title>node_756b1ad5</title>
<path fill="#966f33" stroke="black" d="M557,-659.5C557,-659.5 476,-659.5 476,-659.5 470,-659.5 464,-653.5 464,-647.5 464,-647.5 464,-635.5 464,-635.5 464,-629.5 470,-623.5 476,-623.5 476,-623.5 557,-623.5 557,-623.5 563,-623.5 569,-629.5 569,-635.5 569,-635.5 569,-647.5 569,-647.5 569,-653.5 563,-659.5 557,-659.5"/>
<text text-anchor="middle" x="516.5" y="-637.8" font-family="Times,serif" font-size="14.00">49: __init__()</text>
</g>
<!-- node_18a78c8b -->
<g id="node41" class="node">
<title>node_18a78c8b</title>
<path fill="#6db33f" stroke="black" d="M923.5,-362.5C923.5,-362.5 739.5,-362.5 739.5,-362.5 733.5,-362.5 727.5,-356.5 727.5,-350.5 727.5,-350.5 727.5,-338.5 727.5,-338.5 727.5,-332.5 733.5,-326.5 739.5,-326.5 739.5,-326.5 923.5,-326.5 923.5,-326.5 929.5,-326.5 935.5,-332.5 935.5,-338.5 935.5,-338.5 935.5,-350.5 935.5,-350.5 935.5,-356.5 929.5,-362.5 923.5,-362.5"/>
<text text-anchor="middle" x="831.5" y="-340.8" font-family="Times,serif" font-size="14.00">166: _phase_cancel_tasks()</text>
</g>
<!-- node_13efad7c -->
<g id="node42" class="node">
<title>node_13efad7c</title>
<path fill="#6db33f" stroke="black" d="M942.5,-416.5C942.5,-416.5 720.5,-416.5 720.5,-416.5 714.5,-416.5 708.5,-410.5 708.5,-404.5 708.5,-404.5 708.5,-392.5 708.5,-392.5 708.5,-386.5 714.5,-380.5 720.5,-380.5 720.5,-380.5 942.5,-380.5 942.5,-380.5 948.5,-380.5 954.5,-386.5 954.5,-392.5 954.5,-392.5 954.5,-404.5 954.5,-404.5 954.5,-410.5 948.5,-416.5 942.5,-416.5"/>
<text text-anchor="middle" x="831.5" y="-394.8" font-family="Times,serif" font-size="14.00">186: _phase_close_connections()</text>
</g>
<!-- node_3ba8b988 -->
<g id="node43" class="node">
<title>node_3ba8b988</title>
<path fill="#6db33f" stroke="black" d="M922.5,-470.5C922.5,-470.5 740.5,-470.5 740.5,-470.5 734.5,-470.5 728.5,-464.5 728.5,-458.5 728.5,-458.5 728.5,-446.5 728.5,-446.5 728.5,-440.5 734.5,-434.5 740.5,-434.5 740.5,-434.5 922.5,-434.5 922.5,-434.5 928.5,-434.5 934.5,-440.5 934.5,-446.5 934.5,-446.5 934.5,-458.5 934.5,-458.5 934.5,-464.5 928.5,-470.5 922.5,-470.5"/>
<text text-anchor="middle" x="831.5" y="-448.8" font-family="Times,serif" font-size="14.00">202: _phase_run_cleanup()</text>
</g>
<!-- node_a847d1cb -->
<g id="node44" class="node">
<title>node_a847d1cb</title>
<path fill="#6db33f" stroke="black" d="M933.5,-524.5C933.5,-524.5 729.5,-524.5 729.5,-524.5 723.5,-524.5 717.5,-518.5 717.5,-512.5 717.5,-512.5 717.5,-500.5 717.5,-500.5 717.5,-494.5 723.5,-488.5 729.5,-488.5 729.5,-488.5 933.5,-488.5 933.5,-488.5 939.5,-488.5 945.5,-494.5 945.5,-500.5 945.5,-500.5 945.5,-512.5 945.5,-512.5 945.5,-518.5 939.5,-524.5 933.5,-524.5"/>
<text text-anchor="middle" x="831.5" y="-502.8" font-family="Times,serif" font-size="14.00">152: _phase_stop_event_bus()</text>
</g>
<!-- node_9141ddbf -->
<g id="node45" class="node">
<title>node_9141ddbf</title>
<path fill="#966f33" stroke="black" d="M591,-605.5C591,-605.5 442,-605.5 442,-605.5 436,-605.5 430,-599.5 430,-593.5 430,-593.5 430,-581.5 430,-581.5 430,-575.5 436,-569.5 442,-569.5 442,-569.5 591,-569.5 591,-569.5 597,-569.5 603,-575.5 603,-581.5 603,-581.5 603,-593.5 603,-593.5 603,-599.5 597,-605.5 591,-605.5"/>
<text text-anchor="middle" x="516.5" y="-583.8" font-family="Times,serif" font-size="14.00">87: register_cleanup()</text>
</g>
<!-- node_d19755aa -->
<g id="node46" class="node">
<title>node_d19755aa</title>
<path fill="#966f33" stroke="black" d="M627,-551.5C627,-551.5 406,-551.5 406,-551.5 400,-551.5 394,-545.5 394,-539.5 394,-539.5 394,-527.5 394,-527.5 394,-521.5 400,-515.5 406,-515.5 406,-515.5 627,-515.5 627,-515.5 633,-515.5 639,-521.5 639,-527.5 639,-527.5 639,-539.5 639,-539.5 639,-545.5 633,-551.5 627,-551.5"/>
<text text-anchor="middle" x="516.5" y="-529.8" font-family="Times,serif" font-size="14.00">83: register_connection_closer()</text>
</g>
<!-- node_5276d637 -->
<g id="node47" class="node">
<title>node_5276d637</title>
<path fill="#966f33" stroke="black" d="M578.5,-497.5C578.5,-497.5 454.5,-497.5 454.5,-497.5 448.5,-497.5 442.5,-491.5 442.5,-485.5 442.5,-485.5 442.5,-473.5 442.5,-473.5 442.5,-467.5 448.5,-461.5 454.5,-461.5 454.5,-461.5 578.5,-461.5 578.5,-461.5 584.5,-461.5 590.5,-467.5 590.5,-473.5 590.5,-473.5 590.5,-485.5 590.5,-485.5 590.5,-491.5 584.5,-497.5 578.5,-497.5"/>
<text text-anchor="middle" x="516.5" y="-475.8" font-family="Times,serif" font-size="14.00">79: register_task()</text>
</g>
<!-- node_534b3224&#45;&gt;node_18a78c8b -->
<g id="edge38" class="edge">
<title>node_534b3224&#45;&gt;node_18a78c8b</title>
<path fill="none" stroke="#f0e442" stroke-width="2" d="M578.87,-410.5C629.31,-410.5 692,-410.5 692,-410.5 692,-410.5 692,-358 692,-358 692,-358 717.2,-358 717.2,-358"/>
<polygon fill="#f0e442" stroke="#f0e442" stroke-width="2" points="717.2,-361.5 727.2,-358 717.2,-354.5 717.2,-361.5"/>
</g>
<!-- node_534b3224&#45;&gt;node_13efad7c -->
<g id="edge39" class="edge">
<title>node_534b3224&#45;&gt;node_13efad7c</title>
<path fill="none" stroke="#f0e442" stroke-width="2" d="M578.73,-413.5C578.73,-413.5 698.46,-413.5 698.46,-413.5"/>
<polygon fill="#f0e442" stroke="#f0e442" stroke-width="2" points="698.46,-417 708.46,-413.5 698.46,-410 698.46,-417"/>
</g>
<!-- node_534b3224&#45;&gt;node_3ba8b988 -->
<g id="edge40" class="edge">
<title>node_534b3224&#45;&gt;node_3ba8b988</title>
<path fill="none" stroke="#f0e442" stroke-width="2" d="M578.73,-437.5C578.73,-437.5 718.47,-437.5 718.47,-437.5"/>
<polygon fill="#f0e442" stroke="#f0e442" stroke-width="2" points="718.47,-441 728.47,-437.5 718.47,-434 718.47,-441"/>
</g>
<!-- node_534b3224&#45;&gt;node_a847d1cb -->
<g id="edge41" class="edge">
<title>node_534b3224&#45;&gt;node_a847d1cb</title>
<path fill="none" stroke="#f0e442" stroke-width="2" d="M578.74,-440.5C639.54,-440.5 723,-440.5 723,-440.5 723,-440.5 723,-478.47 723,-478.47"/>
<polygon fill="#f0e442" stroke="#f0e442" stroke-width="2" points="719.5,-478.47 723,-488.47 726.5,-478.47 719.5,-478.47"/>
</g>
<!-- node_1db5e059 -->
<g id="node49" class="node">
<title>node_1db5e059</title>
<path fill="#966f33" stroke="black" d="M602.5,-389.5C602.5,-389.5 430.5,-389.5 430.5,-389.5 424.5,-389.5 418.5,-383.5 418.5,-377.5 418.5,-377.5 418.5,-365.5 418.5,-365.5 418.5,-359.5 424.5,-353.5 430.5,-353.5 430.5,-353.5 602.5,-353.5 602.5,-353.5 608.5,-353.5 614.5,-359.5 614.5,-365.5 614.5,-365.5 614.5,-377.5 614.5,-377.5 614.5,-383.5 608.5,-389.5 602.5,-389.5"/>
<text text-anchor="middle" x="516.5" y="-367.8" font-family="Times,serif" font-size="14.00">75: shutdown_complete()</text>
</g>
<!-- node_7d05de83 -->
<g id="node50" class="node">
<title>node_7d05de83</title>
<path fill="#966f33" stroke="black" d="M606,-335.5C606,-335.5 427,-335.5 427,-335.5 421,-335.5 415,-329.5 415,-323.5 415,-323.5 415,-311.5 415,-311.5 415,-305.5 421,-299.5 427,-299.5 427,-299.5 606,-299.5 606,-299.5 612,-299.5 618,-305.5 618,-311.5 618,-311.5 618,-323.5 618,-323.5 618,-329.5 612,-335.5 606,-335.5"/>
<text text-anchor="middle" x="516.5" y="-313.8" font-family="Times,serif" font-size="14.00">70: shutdown_requested()</text>
</g>
<!-- node_9ded8121 -->
<g id="node51" class="node">
<title>node_9ded8121</title>
<path fill="#966f33" stroke="black" d="M274.5,-443.5C274.5,-443.5 52.5,-443.5 52.5,-443.5 46.5,-443.5 40.5,-437.5 40.5,-431.5 40.5,-431.5 40.5,-419.5 40.5,-419.5 40.5,-413.5 46.5,-407.5 52.5,-407.5 52.5,-407.5 274.5,-407.5 274.5,-407.5 280.5,-407.5 286.5,-413.5 286.5,-419.5 286.5,-419.5 286.5,-431.5 286.5,-431.5 286.5,-437.5 280.5,-443.5 274.5,-443.5"/>
<text text-anchor="middle" x="163.5" y="-421.8" font-family="Times,serif" font-size="14.00">220: create_shutdown_handler()</text>
</g>
<!-- node_9ded8121&#45;&gt;node_534b3224 -->
<g id="edge42" class="edge">
<title>node_9ded8121&#45;&gt;node_534b3224</title>
<path fill="none" stroke="#e69f00" stroke-width="2" d="M286.96,-419.5C286.96,-419.5 444.08,-419.5 444.08,-419.5"/>
<polygon fill="#e69f00" stroke="#e69f00" stroke-width="2" points="444.08,-423 454.08,-419.5 444.08,-416 444.08,-423"/>
</g>
<!-- node_72afcc1d -->
<g id="node52" class="node">
<title>node_72afcc1d</title>
<path fill="#966f33" stroke="black" d="M1169.5,-1487.5C1169.5,-1487.5 1094.5,-1487.5 1094.5,-1487.5 1088.5,-1487.5 1082.5,-1481.5 1082.5,-1475.5 1082.5,-1475.5 1082.5,-1463.5 1082.5,-1463.5 1082.5,-1457.5 1088.5,-1451.5 1094.5,-1451.5 1094.5,-1451.5 1169.5,-1451.5 1169.5,-1451.5 1175.5,-1451.5 1181.5,-1457.5 1181.5,-1463.5 1181.5,-1463.5 1181.5,-1475.5 1181.5,-1475.5 1181.5,-1481.5 1175.5,-1487.5 1169.5,-1487.5"/>
<text text-anchor="middle" x="1132" y="-1465.8" font-family="Times,serif" font-size="14.00">0: (global)()</text>
</g>
<!-- node_607da536 -->
<g id="node54" class="node">
<title>node_607da536</title>
<path fill="#6db33f" stroke="black" d="M1557.5,-2225.5C1557.5,-2225.5 1382.5,-2225.5 1382.5,-2225.5 1376.5,-2225.5 1370.5,-2219.5 1370.5,-2213.5 1370.5,-2213.5 1370.5,-2201.5 1370.5,-2201.5 1370.5,-2195.5 1376.5,-2189.5 1382.5,-2189.5 1382.5,-2189.5 1557.5,-2189.5 1557.5,-2189.5 1563.5,-2189.5 1569.5,-2195.5 1569.5,-2201.5 1569.5,-2201.5 1569.5,-2213.5 1569.5,-2213.5 1569.5,-2219.5 1563.5,-2225.5 1557.5,-2225.5"/>
<text text-anchor="middle" x="1470" y="-2203.8" font-family="Times,serif" font-size="14.00">275: _is_options_symbol()</text>
</g>
<!-- node_06cf0e3a -->
<g id="node55" class="node">
<title>node_06cf0e3a</title>
<path fill="#966f33" stroke="black" d="M1227,-2279.5C1227,-2279.5 1037,-2279.5 1037,-2279.5 1031,-2279.5 1025,-2273.5 1025,-2267.5 1025,-2267.5 1025,-2255.5 1025,-2255.5 1025,-2249.5 1031,-2243.5 1037,-2243.5 1037,-2243.5 1227,-2243.5 1227,-2243.5 1233,-2243.5 1239,-2249.5 1239,-2255.5 1239,-2255.5 1239,-2267.5 1239,-2267.5 1239,-2273.5 1233,-2279.5 1227,-2279.5"/>
<text text-anchor="middle" x="1132" y="-2257.8" font-family="Times,serif" font-size="14.00">433: _on_indicator_update()</text>
</g>
<!-- node_b646fa1c -->
<g id="node59" class="node">
<title>node_b646fa1c</title>
<path fill="#6db33f" stroke="black" d="M1553,-2279.5C1553,-2279.5 1387,-2279.5 1387,-2279.5 1381,-2279.5 1375,-2273.5 1375,-2267.5 1375,-2267.5 1375,-2255.5 1375,-2255.5 1375,-2249.5 1381,-2243.5 1387,-2243.5 1387,-2243.5 1553,-2243.5 1553,-2243.5 1559,-2243.5 1565,-2249.5 1565,-2255.5 1565,-2255.5 1565,-2267.5 1565,-2267.5 1565,-2273.5 1559,-2279.5 1553,-2279.5"/>
<text text-anchor="middle" x="1470" y="-2257.8" font-family="Times,serif" font-size="14.00">510: _persist_indicator()</text>
</g>
<!-- node_06cf0e3a&#45;&gt;node_b646fa1c -->
<g id="edge43" class="edge">
<title>node_06cf0e3a&#45;&gt;node_b646fa1c</title>
<path fill="none" stroke="#56b4e9" stroke-width="2" d="M1239.41,-2261.5C1239.41,-2261.5 1364.86,-2261.5 1364.86,-2261.5"/>
<polygon fill="#56b4e9" stroke="#56b4e9" stroke-width="2" points="1364.86,-2265 1374.86,-2261.5 1364.86,-2258 1364.86,-2265"/>
</g>
<!-- node_ab416422 -->
<g id="node56" class="node">
<title>node_ab416422</title>
<path fill="#966f33" stroke="black" d="M1228,-2225.5C1228,-2225.5 1036,-2225.5 1036,-2225.5 1030,-2225.5 1024,-2219.5 1024,-2213.5 1024,-2213.5 1024,-2201.5 1024,-2201.5 1024,-2195.5 1030,-2189.5 1036,-2189.5 1036,-2189.5 1228,-2189.5 1228,-2189.5 1234,-2189.5 1240,-2195.5 1240,-2201.5 1240,-2201.5 1240,-2213.5 1240,-2213.5 1240,-2219.5 1234,-2225.5 1228,-2225.5"/>
<text text-anchor="middle" x="1132" y="-2203.8" font-family="Times,serif" font-size="14.00">321: _on_market_data_tick()</text>
</g>
<!-- node_ab416422&#45;&gt;node_607da536 -->
<g id="edge44" class="edge">
<title>node_ab416422&#45;&gt;node_607da536</title>
<path fill="none" stroke="#56b4e9" stroke-width="2" d="M1240.34,-2207.5C1240.34,-2207.5 1360.3,-2207.5 1360.3,-2207.5"/>
<polygon fill="#56b4e9" stroke="#56b4e9" stroke-width="2" points="1360.3,-2211 1370.3,-2207.5 1360.3,-2204 1360.3,-2211"/>
</g>
<!-- node_6ec0cdb1 -->
<g id="node57" class="node">
<title>node_6ec0cdb1</title>
<path fill="#966f33" stroke="black" d="M1218,-2171.5C1218,-2171.5 1046,-2171.5 1046,-2171.5 1040,-2171.5 1034,-2165.5 1034,-2159.5 1034,-2159.5 1034,-2147.5 1034,-2147.5 1034,-2141.5 1040,-2135.5 1046,-2135.5 1046,-2135.5 1218,-2135.5 1218,-2135.5 1224,-2135.5 1230,-2141.5 1230,-2147.5 1230,-2147.5 1230,-2159.5 1230,-2159.5 1230,-2165.5 1224,-2171.5 1218,-2171.5"/>
<text text-anchor="middle" x="1132" y="-2149.8" font-family="Times,serif" font-size="14.00">482: _on_trading_signal()</text>
</g>
<!-- node_82b89e2d -->
<g id="node60" class="node">
<title>node_82b89e2d</title>
<path fill="#6db33f" stroke="black" d="M1542.5,-2171.5C1542.5,-2171.5 1397.5,-2171.5 1397.5,-2171.5 1391.5,-2171.5 1385.5,-2165.5 1385.5,-2159.5 1385.5,-2159.5 1385.5,-2147.5 1385.5,-2147.5 1385.5,-2141.5 1391.5,-2135.5 1397.5,-2135.5 1397.5,-2135.5 1542.5,-2135.5 1542.5,-2135.5 1548.5,-2135.5 1554.5,-2141.5 1554.5,-2147.5 1554.5,-2147.5 1554.5,-2159.5 1554.5,-2159.5 1554.5,-2165.5 1548.5,-2171.5 1542.5,-2171.5"/>
<text text-anchor="middle" x="1470" y="-2149.8" font-family="Times,serif" font-size="14.00">497: _persist_signal()</text>
</g>
<!-- node_6ec0cdb1&#45;&gt;node_82b89e2d -->
<g id="edge45" class="edge">
<title>node_6ec0cdb1&#45;&gt;node_82b89e2d</title>
<path fill="none" stroke="#e69f00" stroke-width="2" d="M1230.22,-2153.5C1230.22,-2153.5 1375.3,-2153.5 1375.3,-2153.5"/>
<polygon fill="#e69f00" stroke="#e69f00" stroke-width="2" points="1375.3,-2157 1385.3,-2153.5 1375.3,-2150 1375.3,-2157"/>
</g>
<!-- node_87759f7e -->
<g id="node58" class="node">
<title>node_87759f7e</title>
<path fill="#966f33" stroke="black" d="M1221,-2117.5C1221,-2117.5 1043,-2117.5 1043,-2117.5 1037,-2117.5 1031,-2111.5 1031,-2105.5 1031,-2105.5 1031,-2093.5 1031,-2093.5 1031,-2087.5 1037,-2081.5 1043,-2081.5 1043,-2081.5 1221,-2081.5 1221,-2081.5 1227,-2081.5 1233,-2087.5 1233,-2093.5 1233,-2093.5 1233,-2105.5 1233,-2105.5 1233,-2111.5 1227,-2117.5 1221,-2117.5"/>
<text text-anchor="middle" x="1132" y="-2095.8" font-family="Times,serif" font-size="14.00">535: _persist_confluence()</text>
</g>
<!-- node_6bd1aea3&#45;&gt;node_6bd1aea3 -->
<g id="edge46" class="edge">
<title>node_6bd1aea3&#45;&gt;node_6bd1aea3</title>
<path fill="none" stroke="#009e73" stroke-width="2" d="M1042.09,-2013.5C1040.11,-2013.5 1039,-2013.5 1039,-2013.5 1039,-2013.5 1039,-1997.5 1039,-1997.5 1039,-1997.5 1228,-1997.5 1228,-1997.5 1228,-1997.5 1228,-2027.5 1228,-2027.5 1228,-2027.5 1227.37,-2027.5 1227.37,-2027.5"/>
<polygon fill="#009e73" stroke="#009e73" stroke-width="2" points="1231.7,-2024 1221.7,-2027.5 1231.7,-2031 1231.7,-2024"/>
</g>
<!-- node_2ff431c7 -->
<g id="node63" class="node">
<title>node_2ff431c7</title>
<path fill="#966f33" stroke="black" d="M1187,-1883.5C1187,-1883.5 1077,-1883.5 1077,-1883.5 1071,-1883.5 1065,-1877.5 1065,-1871.5 1065,-1871.5 1065,-1859.5 1065,-1859.5 1065,-1853.5 1071,-1847.5 1077,-1847.5 1077,-1847.5 1187,-1847.5 1187,-1847.5 1193,-1847.5 1199,-1853.5 1199,-1859.5 1199,-1859.5 1199,-1871.5 1199,-1871.5 1199,-1877.5 1193,-1883.5 1187,-1883.5"/>
<text text-anchor="middle" x="1132" y="-1861.8" font-family="Times,serif" font-size="14.00">121: is_started()</text>
</g>
<!-- node_2a531e00&#45;&gt;node_6208b400 -->
<g id="edge47" class="edge">
<title>node_2a531e00&#45;&gt;node_6208b400</title>
<path fill="none" stroke="#000000" stroke-width="2" d="M1234.69,-1811.5C1242.26,-1811.5 1247,-1811.5 1247,-1811.5 1247,-1811.5 1247,-1258.3 1247,-1258.3 1247,-1258.3 1376.33,-1258.3 1376.33,-1258.3"/>
<polygon fill="#000000" stroke="#000000" stroke-width="2" points="1376.33,-1261.8 1386.33,-1258.3 1376.33,-1254.8 1376.33,-1261.8"/>
</g>
<!-- node_1ca8f44f -->
<g id="node65" class="node">
<title>node_1ca8f44f</title>
<path fill="#cccccc" stroke="black" d="M1219,-1757.5C1219,-1757.5 1045,-1757.5 1045,-1757.5 1039,-1757.5 1033,-1751.5 1033,-1745.5 1033,-1745.5 1033,-1733.5 1033,-1733.5 1033,-1727.5 1039,-1721.5 1045,-1721.5 1045,-1721.5 1219,-1721.5 1219,-1721.5 1225,-1721.5 1231,-1727.5 1231,-1733.5 1231,-1733.5 1231,-1745.5 1231,-1745.5 1231,-1751.5 1225,-1757.5 1219,-1757.5"/>
<text text-anchor="middle" x="1132" y="-1735.8" font-family="Times,serif" font-size="14.00">409: refresh_disk_cache()</text>
</g>
<!-- node_1ca8f44f&#45;&gt;node_1ca8f44f -->
<g id="edge48" class="edge">
<title>node_1ca8f44f&#45;&gt;node_1ca8f44f</title>
<path fill="none" stroke="#cc79a7" stroke-width="2" d="M1032.88,-1736.5C1025.58,-1736.5 1021,-1736.5 1021,-1736.5 1021,-1736.5 1021,-1763.5 1021,-1763.5 1021,-1763.5 1244,-1763.5 1244,-1763.5 1244,-1763.5 1244,-1739.5 1244,-1739.5 1244,-1739.5 1241.15,-1739.5 1241.15,-1739.5"/>
<polygon fill="#cc79a7" stroke="#cc79a7" stroke-width="2" points="1241.15,-1736 1231.15,-1739.5 1241.15,-1743 1241.15,-1736"/>
</g>
<!-- node_747cd82a -->
<g id="node66" class="node">
<title>node_747cd82a</title>
<path fill="#cccccc" stroke="black" d="M1169,-1937.5C1169,-1937.5 1095,-1937.5 1095,-1937.5 1089,-1937.5 1083,-1931.5 1083,-1925.5 1083,-1925.5 1083,-1913.5 1083,-1913.5 1083,-1907.5 1089,-1901.5 1095,-1901.5 1095,-1901.5 1169,-1901.5 1169,-1901.5 1175,-1901.5 1181,-1907.5 1181,-1913.5 1181,-1913.5 1181,-1925.5 1181,-1925.5 1181,-1931.5 1175,-1937.5 1169,-1937.5"/>
<text text-anchor="middle" x="1132" y="-1915.8" font-family="Times,serif" font-size="14.00">130: start()</text>
</g>
<!-- node_747cd82a&#45;&gt;node_8281937d -->
<g id="edge49" class="edge">
<title>node_747cd82a&#45;&gt;node_8281937d</title>
<path fill="none" stroke="#56b4e9" stroke-width="2" d="M1181.15,-1913.5C1274.89,-1913.5 1470,-1913.5 1470,-1913.5 1470,-1913.5 1470,-1383.75 1470,-1383.75"/>
<polygon fill="#56b4e9" stroke="#56b4e9" stroke-width="2" points="1473.5,-1383.75 1470,-1373.75 1466.5,-1383.75 1473.5,-1383.75"/>
</g>
<!-- node_747cd82a&#45;&gt;node_747cd82a -->
<g id="edge50" class="edge">
<title>node_747cd82a&#45;&gt;node_747cd82a</title>
<path fill="none" stroke="#56b4e9" stroke-width="2" d="M1082.56,-1907.5C1077.4,-1907.5 1074,-1907.5 1074,-1907.5 1074,-1907.5 1074,-1895.5 1074,-1895.5 1074,-1895.5 1190,-1895.5 1190,-1895.5 1190,-1895.5 1190,-1925.5 1190,-1925.5 1190,-1925.5 1189.14,-1925.5 1189.14,-1925.5"/>
<polygon fill="#56b4e9" stroke="#56b4e9" stroke-width="2" points="1191.44,-1922 1181.44,-1925.5 1191.44,-1929 1191.44,-1922"/>
</g>
<!-- node_e60dd8c2 -->
<g id="node67" class="node">
<title>node_e60dd8c2</title>
<path fill="#cccccc" stroke="black" d="M1167,-1595.5C1167,-1595.5 1097,-1595.5 1097,-1595.5 1091,-1595.5 1085,-1589.5 1085,-1583.5 1085,-1583.5 1085,-1571.5 1085,-1571.5 1085,-1565.5 1091,-1559.5 1097,-1559.5 1097,-1559.5 1167,-1559.5 1167,-1559.5 1173,-1559.5 1179,-1565.5 1179,-1571.5 1179,-1571.5 1179,-1583.5 1179,-1583.5 1179,-1589.5 1173,-1595.5 1167,-1595.5"/>
<text text-anchor="middle" x="1132" y="-1573.8" font-family="Times,serif" font-size="14.00">215: stop()</text>
</g>
<!-- node_e60dd8c2&#45;&gt;node_e60dd8c2 -->
<g id="edge53" class="edge">
<title>node_e60dd8c2&#45;&gt;node_e60dd8c2</title>
<path fill="none" stroke="#56b4e9" stroke-width="2" d="M1084.65,-1583.5C1080.02,-1583.5 1077,-1583.5 1077,-1583.5 1077,-1583.5 1077,-1601.5 1077,-1601.5 1077,-1601.5 1188,-1601.5 1188,-1601.5 1188,-1601.5 1188,-1577.5 1188,-1577.5 1188,-1577.5 1187.1,-1577.5 1187.1,-1577.5"/>
<polygon fill="#56b4e9" stroke="#56b4e9" stroke-width="2" points="1189,-1574 1179,-1577.5 1189,-1581 1189,-1574"/>
</g>
<!-- node_604db609 -->
<g id="node68" class="node">
<title>node_604db609</title>
<path fill="#966f33" stroke="black" d="M1192.5,-1541.5C1192.5,-1541.5 1071.5,-1541.5 1071.5,-1541.5 1065.5,-1541.5 1059.5,-1535.5 1059.5,-1529.5 1059.5,-1529.5 1059.5,-1517.5 1059.5,-1517.5 1059.5,-1511.5 1065.5,-1505.5 1071.5,-1505.5 1071.5,-1505.5 1192.5,-1505.5 1192.5,-1505.5 1198.5,-1505.5 1204.5,-1511.5 1204.5,-1517.5 1204.5,-1517.5 1204.5,-1529.5 1204.5,-1529.5 1204.5,-1535.5 1198.5,-1541.5 1192.5,-1541.5"/>
<text text-anchor="middle" x="1132" y="-1519.8" font-family="Times,serif" font-size="14.00">126: timeframes()</text>
</g>
<!-- node_e29f299f -->
<g id="node69" class="node">
<title>node_e29f299f</title>
<path fill="#966f33" stroke="black" d="M554,-2447.5C554,-2447.5 479,-2447.5 479,-2447.5 473,-2447.5 467,-2441.5 467,-2435.5 467,-2435.5 467,-2423.5 467,-2423.5 467,-2417.5 473,-2411.5 479,-2411.5 479,-2411.5 554,-2411.5 554,-2411.5 560,-2411.5 566,-2417.5 566,-2423.5 566,-2423.5 566,-2435.5 566,-2435.5 566,-2441.5 560,-2447.5 554,-2447.5"/>
<text text-anchor="middle" x="516.5" y="-2425.8" font-family="Times,serif" font-size="14.00">0: (global)()</text>
</g>
<!-- node_716afd86 -->
<g id="node71" class="node">
<title>node_716afd86</title>
<path fill="#cccccc" stroke="black" d="M1259,-2627.5C1259,-2627.5 1005,-2627.5 1005,-2627.5 999,-2627.5 993,-2621.5 993,-2615.5 993,-2615.5 993,-2603.5 993,-2603.5 993,-2597.5 999,-2591.5 1005,-2591.5 1005,-2591.5 1259,-2591.5 1259,-2591.5 1265,-2591.5 1271,-2597.5 1271,-2603.5 1271,-2603.5 1271,-2615.5 1271,-2615.5 1271,-2621.5 1265,-2627.5 1259,-2627.5"/>
<text text-anchor="middle" x="1132" y="-2605.8" font-family="Times,serif" font-size="14.00">126: _build_and_dispatch_snapshot()</text>
</g>
<!-- node_f145379b -->
<g id="node72" class="node">
<title>node_f145379b</title>
<path fill="#6db33f" stroke="black" d="M1586.5,-2600.5C1586.5,-2600.5 1353.5,-2600.5 1353.5,-2600.5 1347.5,-2600.5 1341.5,-2594.5 1341.5,-2588.5 1341.5,-2588.5 1341.5,-2576.5 1341.5,-2576.5 1341.5,-2570.5 1347.5,-2564.5 1353.5,-2564.5 1353.5,-2564.5 1586.5,-2564.5 1586.5,-2564.5 1592.5,-2564.5 1598.5,-2570.5 1598.5,-2576.5 1598.5,-2576.5 1598.5,-2588.5 1598.5,-2588.5 1598.5,-2594.5 1592.5,-2600.5 1586.5,-2600.5"/>
<text text-anchor="middle" x="1470" y="-2578.8" font-family="Times,serif" font-size="14.00">199: _check_snapshot_readiness()</text>
</g>
<!-- node_716afd86&#45;&gt;node_f145379b -->
<g id="edge56" class="edge">
<title>node_716afd86&#45;&gt;node_f145379b</title>
<path fill="none" stroke="#d55e00" stroke-width="2" d="M1271.43,-2596C1271.43,-2596 1331.47,-2596 1331.47,-2596"/>
<polygon fill="#d55e00" stroke="#d55e00" stroke-width="2" points="1331.47,-2599.5 1341.47,-2596 1331.47,-2592.5 1331.47,-2599.5"/>
</g>
<!-- node_ce73d374 -->
<g id="node74" class="node">
<title>node_ce73d374</title>
<path fill="#6db33f" stroke="black" d="M1544.5,-2654.5C1544.5,-2654.5 1395.5,-2654.5 1395.5,-2654.5 1389.5,-2654.5 1383.5,-2648.5 1383.5,-2642.5 1383.5,-2642.5 1383.5,-2630.5 1383.5,-2630.5 1383.5,-2624.5 1389.5,-2618.5 1395.5,-2618.5 1395.5,-2618.5 1544.5,-2618.5 1544.5,-2618.5 1550.5,-2618.5 1556.5,-2624.5 1556.5,-2630.5 1556.5,-2630.5 1556.5,-2642.5 1556.5,-2642.5 1556.5,-2648.5 1550.5,-2654.5 1544.5,-2654.5"/>
<text text-anchor="middle" x="1470" y="-2632.8" font-family="Times,serif" font-size="14.00">185: _log_risk_alerts()</text>
</g>
<!-- node_716afd86&#45;&gt;node_ce73d374 -->
<g id="edge57" class="edge">
<title>node_716afd86&#45;&gt;node_ce73d374</title>
<path fill="none" stroke="#d55e00" stroke-width="2" d="M1271.43,-2623C1271.43,-2623 1373.12,-2623 1373.12,-2623"/>
<polygon fill="#d55e00" stroke="#d55e00" stroke-width="2" points="1373.12,-2626.5 1383.12,-2623 1373.12,-2619.5 1373.12,-2626.5"/>
</g>
<!-- node_74ab77a9 -->
<g id="node73" class="node">
<title>node_74ab77a9</title>
<path fill="#cccccc" stroke="black" d="M903,-2627.5C903,-2627.5 760,-2627.5 760,-2627.5 754,-2627.5 748,-2621.5 748,-2615.5 748,-2615.5 748,-2603.5 748,-2603.5 748,-2597.5 754,-2591.5 760,-2591.5 760,-2591.5 903,-2591.5 903,-2591.5 909,-2591.5 915,-2597.5 915,-2603.5 915,-2603.5 915,-2615.5 915,-2615.5 915,-2621.5 909,-2627.5 903,-2627.5"/>
<text text-anchor="middle" x="831.5" y="-2605.8" font-family="Times,serif" font-size="14.00">107: _dispatch_loop()</text>
</g>
<!-- node_74ab77a9&#45;&gt;node_716afd86 -->
<g id="edge58" class="edge">
<title>node_74ab77a9&#45;&gt;node_716afd86</title>
<path fill="none" stroke="#e69f00" stroke-width="2" d="M915.21,-2609.5C915.21,-2609.5 982.9,-2609.5 982.9,-2609.5"/>
<polygon fill="#e69f00" stroke="#e69f00" stroke-width="2" points="982.9,-2613 992.9,-2609.5 982.9,-2606 982.9,-2613"/>
</g>
<!-- node_851b40ca -->
<g id="node75" class="node">
<title>node_851b40ca</title>
<path fill="#966f33" stroke="black" d="M616.5,-2789.5C616.5,-2789.5 416.5,-2789.5 416.5,-2789.5 410.5,-2789.5 404.5,-2783.5 404.5,-2777.5 404.5,-2777.5 404.5,-2765.5 404.5,-2765.5 404.5,-2759.5 410.5,-2753.5 416.5,-2753.5 416.5,-2753.5 616.5,-2753.5 616.5,-2753.5 622.5,-2753.5 628.5,-2759.5 628.5,-2765.5 628.5,-2765.5 628.5,-2777.5 628.5,-2777.5 628.5,-2783.5 622.5,-2789.5 616.5,-2789.5"/>
<text text-anchor="middle" x="516.5" y="-2767.8" font-family="Times,serif" font-size="14.00">232: get_latest_risk_signals()</text>
</g>
<!-- node_eb3eb28c -->
<g id="node76" class="node">
<title>node_eb3eb28c</title>
<path fill="#966f33" stroke="black" d="M607,-2735.5C607,-2735.5 426,-2735.5 426,-2735.5 420,-2735.5 414,-2729.5 414,-2723.5 414,-2723.5 414,-2711.5 414,-2711.5 414,-2705.5 420,-2699.5 426,-2699.5 426,-2699.5 607,-2699.5 607,-2699.5 613,-2699.5 619,-2705.5 619,-2711.5 619,-2711.5 619,-2723.5 619,-2723.5 619,-2729.5 613,-2735.5 607,-2735.5"/>
<text text-anchor="middle" x="516.5" y="-2713.8" font-family="Times,serif" font-size="14.00">228: get_latest_snapshot()</text>
</g>
<!-- node_086d5ea4 -->
<g id="node77" class="node">
<title>node_086d5ea4</title>
<path fill="#966f33" stroke="black" d="M565.5,-2681.5C565.5,-2681.5 467.5,-2681.5 467.5,-2681.5 461.5,-2681.5 455.5,-2675.5 455.5,-2669.5 455.5,-2669.5 455.5,-2657.5 455.5,-2657.5 455.5,-2651.5 461.5,-2645.5 467.5,-2645.5 467.5,-2645.5 565.5,-2645.5 565.5,-2645.5 571.5,-2645.5 577.5,-2651.5 577.5,-2657.5 577.5,-2657.5 577.5,-2669.5 577.5,-2669.5 577.5,-2675.5 571.5,-2681.5 565.5,-2681.5"/>
<text text-anchor="middle" x="516.5" y="-2659.8" font-family="Times,serif" font-size="14.00">245: is_ready()</text>
</g>
<!-- node_544a37f3 -->
<g id="node78" class="node">
<title>node_544a37f3</title>
<path fill="#966f33" stroke="black" d="M549,-2627.5C549,-2627.5 484,-2627.5 484,-2627.5 478,-2627.5 472,-2621.5 472,-2615.5 472,-2615.5 472,-2603.5 472,-2603.5 472,-2597.5 478,-2591.5 484,-2591.5 484,-2591.5 549,-2591.5 549,-2591.5 555,-2591.5 561,-2597.5 561,-2603.5 561,-2603.5 561,-2615.5 561,-2615.5 561,-2621.5 555,-2627.5 549,-2627.5"/>
<text text-anchor="middle" x="516.5" y="-2605.8" font-family="Times,serif" font-size="14.00">84: start()</text>
</g>
<!-- node_544a37f3&#45;&gt;node_74ab77a9 -->
<g id="edge59" class="edge">
<title>node_544a37f3&#45;&gt;node_74ab77a9</title>
<path fill="none" stroke="#009e73" stroke-width="2" d="M561.3,-2609.5C561.3,-2609.5 737.8,-2609.5 737.8,-2609.5"/>
<polygon fill="#009e73" stroke="#009e73" stroke-width="2" points="737.8,-2613 747.8,-2609.5 737.8,-2606 737.8,-2613"/>
</g>
<!-- node_fc6d3f51 -->
<g id="node79" class="node">
<title>node_fc6d3f51</title>
<path fill="#cccccc" stroke="black" d="M547,-2555.5C547,-2555.5 486,-2555.5 486,-2555.5 480,-2555.5 474,-2549.5 474,-2543.5 474,-2543.5 474,-2531.5 474,-2531.5 474,-2525.5 480,-2519.5 486,-2519.5 486,-2519.5 547,-2519.5 547,-2519.5 553,-2519.5 559,-2525.5 559,-2531.5 559,-2531.5 559,-2543.5 559,-2543.5 559,-2549.5 553,-2555.5 547,-2555.5"/>
<text text-anchor="middle" x="516.5" y="-2533.8" font-family="Times,serif" font-size="14.00">91: stop()</text>
</g>
<!-- node_fc6d3f51&#45;&gt;node_fc6d3f51 -->
<g id="edge60" class="edge">
<title>node_fc6d3f51&#45;&gt;node_fc6d3f51</title>
<path fill="none" stroke="#e69f00" stroke-width="2" d="M473.63,-2537.5C467.93,-2537.5 464,-2537.5 464,-2537.5 464,-2537.5 464,-2560 464,-2560 464,-2560 570,-2560 570,-2560 570,-2560 570,-2537.5 570,-2537.5 570,-2537.5 568.92,-2537.5 568.92,-2537.5"/>
<polygon fill="#e69f00" stroke="#e69f00" stroke-width="2" points="569.17,-2534 559.17,-2537.5 569.17,-2541 569.17,-2534"/>
</g>
<!-- node_f2f6994a -->
<g id="node80" class="node">
<title>node_f2f6994a</title>
<path fill="#966f33" stroke="black" d="M600.5,-2501.5C600.5,-2501.5 432.5,-2501.5 432.5,-2501.5 426.5,-2501.5 420.5,-2495.5 420.5,-2489.5 420.5,-2489.5 420.5,-2477.5 420.5,-2477.5 420.5,-2471.5 426.5,-2465.5 432.5,-2465.5 432.5,-2465.5 600.5,-2465.5 600.5,-2465.5 606.5,-2465.5 612.5,-2471.5 612.5,-2477.5 612.5,-2477.5 612.5,-2489.5 612.5,-2489.5 612.5,-2495.5 606.5,-2501.5 600.5,-2501.5"/>
<text text-anchor="middle" x="516.5" y="-2479.8" font-family="Times,serif" font-size="14.00">236: wait_for_snapshot()</text>
</g>
</g>
</svg>
